<?xml version="1.0" encoding="utf-8" ?>
<svg baseProfile="full" height="200mm" version="1.1" viewBox="0,0,200,200" width="200mm" xmlns="http://www.w3.org/2000/svg" xmlns:ev="http://www.w3.org/2001/xml-events" xmlns:xlink="http://www.w3.org/1999/xlink"><defs /><rect fill="#1a1a1a" height="200" width="200" x="0" y="0" /><text alignment-baseline="middle" fill="#e1ed5e" style="dominant-baseline: central; font-size:9.0px; font-family:Arial;" text-anchor="middle" x="100.0" y="100.0">2017</text><line stroke="#e1ed5e" stroke-width="0.3" x1="100.0" x2="100.0" y1="15.0" y2="10.0" /><path d="M 100.0 14.0 a86.0,86.0 0 0,1 42.46469731375804,11.215312516191453" fill="none" id="id13" stroke="none" /><text fill="#e1ed5e" style="font-size:6.75px; font-family:Arial;" text-anchor="middle"><textPath startOffset="22.20632615414155" xlink:href="#id13">January</textPath></text><line stroke="#e1ed5e" stroke-width="0.3" x1="143.23703022742887" x2="145.7803849466894" y1="26.81831364943548" y2="22.513508569990506" /><path d="M 143.74570117128098 25.957352633546492 a86.0,86.0 0 0,1 28.547481713284135,27.462654790039103" fill="none" id="id14" stroke="none" /><text fill="#e1ed5e" style="font-size:6.75px; font-family:Arial;" text-anchor="middle"><textPath startOffset="19.985693538727396" xlink:href="#id14">February</textPath></text><path d="M 111.90073688211348 82.69761687909136 l 12.973501091381863 -18.862066149869445 a43.892996090729085,43.892996090729085 0 0,0 0.6188261587067345,0.4335272707485968 l -13.296258389672248 18.635954036356914" fill="#e8ff1a" stroke="none" /><path d="M 113.06298171725822 83.55741782278167 l 7.726277497637283 -9.725187972287701 a33.42073448177786,33.42073448177786 0 0,0 0.447354994300299,0.36172996060297935 l -7.8925358905020735 9.590751914420592" fill="#ff8f0d" stroke="none" /><path d="M 115.4437574822437 85.77008943001954 l 10.613545877417925 -9.77934345574171 a35.43201006503991,35.43201006503991 0 0,0 0.40941916990659843,0.45209087325546327 l -10.78030868794056 9.595199795216699" fill="#ffaa0f" stroke="none" /><path d="M 116.82858285166822 87.43820079747576 l 4.8898335678998475 -3.6500463500188043 a27.10191041224351,27.10191041224351 0 0,0 0.27584245368584165,0.3762487968295035 l -4.9519386340993155 3.565335109517807" fill="#ff3605" stroke="none" /><line stroke="#e1ed5e" stroke-width="0.3" x1="172.23445277983987" x2="176.4835382374775" y1="55.19839476539836" y2="52.563006222186495" /><path d="M 173.08426987136738 54.67131705675599 a86.0,86.0 0 0,1 12.851231095245387,41.99856678651699" fill="none" id="id15" stroke="none" /><text fill="#e1ed5e" style="font-size:6.75px; font-family:Arial;" text-anchor="middle"><textPath startOffset="22.20632615414155" xlink:href="#id15">March</textPath></text><path d="M 120.37134235888165 94.90015583598534 l 12.016821063712472 -3.0083395434696683 a33.38765899135454,33.38765899135454 0 0,0 0.13477039802589516,0.5587103071372191 l -12.066824261999187 2.8010440046730434" fill="#ff8e0d" stroke="none" /><line stroke="#e1ed5e" stroke-width="0.3" x1="184.98032266829074" x2="189.97916517819016" y1="98.17113171792111" y2="98.06355123074" /><path d="M 185.9800911702706 98.14961562048488 a86.0,86.0 0 0,1 -9.607161424134198,41.387399972396054" fill="none" id="id16" stroke="none" /><text fill="#e1ed5e" style="font-size:6.75px; font-family:Arial;" text-anchor="middle"><textPath startOffset="21.466115282336823" xlink:href="#id16">April</textPath></text><path d="M 120.41448212921028 104.9243191809786 l 14.570535860869864 3.514660267289064 a35.9884406149324,35.9884406149324 0 0,0 -0.1504465667692937,0.6009592489122312 l -14.50787797980551 -3.7649473555986908" fill="#ffb110" stroke="none" /><path d="M 119.9155931802556 106.66101706037122 l 17.15380492461694 5.737302736552829 a39.087831989563284,39.087831989563284 0 0,0 -0.21890892573919715,0.6362518071948567 l -17.05250516793451 -6.0317272468369865" fill="#ffda14" stroke="none" /><path d="M 119.67450827220406 107.3425965602758 l 24.321935303870994 9.077032880855182 a46.960528940023785,46.960528940023785 0 0,0 -0.2891554773933214,0.7548937075810549 l -24.162085546884168 -9.49435015526938" fill="#c4ff1e" stroke="none" /><path d="M 118.81262510543309 109.33194174019688 l 18.82421110110241 9.337688935815901 a42.012933118461255,42.012933118461255 0 0,0 -0.32694330554283096,0.6450901589554391 l -18.66068912577331 -9.660333306474035" fill="#fffe18" stroke="none" /><line stroke="#e1ed5e" stroke-width="0.3" x1="174.80103733775053" x2="179.2010983576182" y1="140.37084112569926" y2="142.7455964860345" /><path d="M 175.68104954172406 140.8457921977663 a86.0,86.0 0 0,1 -30.038265399797805,32.042727171017184" fill="none" id="id17" stroke="none" /><text fill="#e1ed5e" style="font-size:6.75px; font-family:Arial;" text-anchor="middle"><textPath startOffset="22.206326154141568" xlink:href="#id17">May</textPath></text><path d="M 118.48025628344425 109.97397251340804 l 14.385706623511558 7.764104579945515 a37.34716718535891,37.34716718535891 0 0,0 -0.31020128558500293,0.5631054373909856 l -14.249928928475045 -8.010580535734306" fill="#ffc312" stroke="none" /><path d="M 117.35343817320211 111.8261652097733 l 7.553739317390838 5.14778502262301 a30.141043064893523,30.141043064893523 0 0,0 -0.2958689178373399,0.426221243091308 l -7.464009492391362 -5.277047527901337" fill="#ff6109" stroke="none" /><path d="M 114.81725581225074 114.88116024355365 l 17.627639663925155 17.703664826897942 a45.98306283113283,45.98306283113283 0 0,0 -0.5657012605871434,0.5536577478169924 l -17.320288450962217 -18.004472677637505" fill="#cfff1d" stroke="none" /><path d="M 114.29624159901734 115.38237550388516 l 10.712616687920741 11.526490468243766 a36.73595052155517,36.73595052155517 0 0,0 -0.46689722595076516,0.4264995458796448 l -10.512619912503112 -11.709182780709993" fill="#ffbb11" stroke="none" /><path d="M 112.04921762599082 117.19931262002967 l 14.458458876972362 20.63831544485378 a46.19895032532885,46.19895032532885 0 0,0 -0.6552399662880288,0.45068002360990933 l -14.101062026061449 -20.884136257828786" fill="#cdff1d" stroke="none" /><line stroke="#e1ed5e" stroke-width="0.3" x1="143.8653032363475" x2="146.44561519142675" y1="172.8068346515853" y2="177.08958963109032" /><path d="M 144.38136562736335 173.6633856474863 a86.0,86.0 0 0,1 -40.68145358897372,12.25698825130547" fill="none" id="id18" stroke="none" /><text fill="#e1ed5e" style="font-size:6.75px; font-family:Arial;" text-anchor="middle"><textPath startOffset="21.466115282336833" xlink:href="#id18">June</textPath></text><path d="M 110.21172684928248 118.3499491758327 l 30.635180547847472 55.049847527498095 a84.0,84.0 0 0,0 -1.2695087525254052,0.692237392960918 l -29.683048983453418 -55.56902557221878" fill="#4dd2ff" stroke="none" /><path d="M 107.59598834532513 119.57807347666477 l 9.808454603336383 25.280534432998945 a48.11662226243814,48.11662226243814 0 0,0 -0.7747458506361645,0.29294258834337894 l -9.371838531939943 -25.445625271448954" fill="#b6ff1f" stroke="none" /><path d="M 105.18746579009965 120.34920634021253 l 6.12685675182118 24.03421580103343 a45.802860779111384,45.802860779111384 0 0,0 -0.7656639917081456,0.18818158064949525 l -5.712239475369823 -24.136118639996955" fill="#d1ff1c" stroke="none" /><path d="M 104.48393922423573 120.51570834832081 l 2.1821698714229143 9.984247869959905 a31.21993497418378,31.21993497418378 0 0,0 -0.525994265118372,0.11022721240200062 l -2.009984144875164 -10.020331063088447" fill="#ff700a" stroke="none" /><path d="M 102.70371172650421 120.8252237178851 l 1.5897101850941386 12.24467458074415 a33.347438360279995,33.347438360279995 0 0,0 -0.5698800542375683,0.06900453820523418 l -1.3787027078051899 -12.270224647674734" fill="#ff8e0d" stroke="none" /><line stroke="#e1ed5e" stroke-width="0.3" x1="102.19456741930631" x2="102.32365962044197" y1="184.97166512339345" y2="189.96999836594603" /><path d="M 102.22038585953345 185.97133177190398 a86.0,86.0 0 0,1 -42.740103519485714,-10.115201625700543" fill="none" id="id19" stroke="none" /><text fill="#e1ed5e" style="font-size:6.75px; font-family:Arial;" text-anchor="middle"><textPath startOffset="22.20632615414155" xlink:href="#id19">July</textPath></text><line stroke="#e1ed5e" stroke-width="0.3" x1="58.666819895761336" x2="56.23545636021788" y1="174.27360380694188" y2="178.64263932499728" /><path d="M 58.180547188652646 175.14741091055294 a86.0,86.0 0 0,1 -31.652253787137756,-30.449443065178592" fill="none" id="id20" stroke="none" /><text fill="#e1ed5e" style="font-size:6.75px; font-family:Arial;" text-anchor="middle"><textPath startOffset="22.20632615414155" xlink:href="#id20">August</textPath></text><path d="M 88.24862548938628 117.40417183066458 l -24.149769947524586 35.766602915950045 a64.1562425688985,64.1562425688985 0 0,0 -0.9099283408385845,-0.625857009998364 l 24.76185517298606 -35.345605116586576" fill="#34ff5a" stroke="none" /><path d="M 86.24171649860922 115.8653595955263 l -25.781703912413594 29.730162451913476 a60.351986176615384,60.351986176615384 0 0,0 -0.7789936843070243,-0.6873713543583392 l 26.289639949627205 -29.28196795578285" fill="#33ff2f" stroke="none" /><path d="M 84.67929136418377 114.36230785411682 l -9.709549040708508 9.102159421091999 a34.30881845623034,34.30881845623034 0 0,0 -0.4001937294417167,-0.4343312540874915 l 9.864789178145955 -8.933676912203163" fill="#ff9b0e" stroke="none" /><path d="M 83.06392112726016 112.41649034213515 l -39.035739397992316 28.618600850603244 a69.40261630319293,69.40261630319293 0 0,0 -0.6980588107255458,-0.969542634148846 l 39.522578001093464 -27.94242461100326" fill="#3aff97" stroke="none" /><path d="M 82.05923443525364 110.91462005526583 l -2.4571058380879265 1.4948290005529858 a23.876088114168272,23.876088114168272 0 0,0 -0.21058610153610008,-0.35295441906443376 l 2.482472815322258 -1.4523124876024411" fill="#ff0701" stroke="none" /><line stroke="#e1ed5e" stroke-width="0.3" x1="26.63291911575756" x2="22.317208475507996" y1="142.92168965132927" y2="145.44649492493687" /><path d="M 25.769776987707644 143.4266507060508 a86.0,86.0 0 0,1 -11.730757126820373,-40.83630448921669" fill="none" id="id21" stroke="none" /><text fill="#e1ed5e" style="font-size:6.75px; font-family:Arial;" text-anchor="middle"><textPath startOffset="21.46611528233685" xlink:href="#id21">September</textPath></text><path d="M 81.69416730710424 110.29060199501025 l -45.36343372772101 25.501000115671673 a73.03981289809585,73.03981289809585 0 0,0 -0.6066603056512052,-1.101264671154482 l 45.79567044282373 -24.71636492611937" fill="#3fffbf" stroke="none" /><path d="M 80.58989483394504 108.01547362559985 l -25.101876660579943 10.365911395359683 a48.1579883448575,48.1579883448575 0 0,0 -0.3098103965720684,-0.7689239969261682 l 25.2765896714094 -9.93228803059071" fill="#b6ff1f" stroke="none" /><path d="M 79.97269907076064 106.31721596034903 l -25.955394865768326 8.187115941509967 a48.21601348613862,48.21601348613862 0 0,0 -0.24285539825318223,-0.7936654930107061 l 26.092477036527637 -7.7391234759472125" fill="#b5ff20" stroke="none" /><path d="M 79.86692584326677 105.97154293290107 l -7.692118705054162 2.281510351306208 a29.023339682187306,29.023339682187306 0 0,0 -0.13794014297323873,-0.480187733736514 l 7.730251484913505 -2.148765142065098" fill="#ff5107" stroke="none" /><path d="M 79.76711848015287 105.62410040840567 l -13.378351055190471 3.718757981135042 a34.885583814812094,34.885583814812094 0 0,0 -0.15584208217179835,-0.5799463624388368 l 13.440381213704045 -3.4879206855206664" fill="#ffa20f" stroke="none" /><path d="M 79.67330655649465 105.27499134158121 l -13.392339206346787 3.475453277895021 a34.83595045180072,34.83595045180072 0 0,0 -0.14562868121171654,-0.5817141910275411 l 13.450179201853562 -3.2444112474700884" fill="#ffa20e" stroke="none" /><path d="M 79.4281124754447 104.21870165774334 l -11.826438644069395 2.4252619626362653 a33.072553441146916,33.072553441146916 0 0,0 -0.10956475045554495,-0.5586683020980162 l 11.866433327500605 -2.221329933470294" fill="#ff8a0c" stroke="none" /><path d="M 79.29508885075956 103.50808413554451 l -8.26031976746625 1.399566340657111 a29.37804682504783,29.37804682504783 0 0,0 -0.08018562401445684,-0.49931595728118616 l 8.283187145841996 -1.2571711536827113" fill="#ff5708" stroke="none" /><path d="M 79.23777060512086 103.15116336523772 l -12.20145687484476 1.851862012276094 a33.34118887227676,33.34118887227676 0 0,0 -0.0812349318516595,-0.5681569241667105 l 12.231525857713018 -1.641559616128983" fill="#ff8e0d" stroke="none" /><path d="M 79.18660465613746 102.79330883721812 l -51.51862032793901 6.914173063346569 a72.98051586550713,72.98051586550713 0 0,0 -0.1563815746825846,-1.2465150154239764 l 51.63000341186845 -6.026340293635184" fill="#3fffbe" stroke="none" /><path d="M 79.1416061653843 102.43462659150553 l -8.187716249287002 0.9556839257265537 a29.243302077731382,29.243302077731382 0 0,0 -0.05405512776985904,-0.5004833489033834 l 8.202953678557913 -0.8146042549383881" fill="#ff5507" stroke="none" /><path d="M 79.07016306316243 101.71520430193888 l -12.805724034404516 1.049431632914169 a33.848652645218735,33.848652645218735 0 0,0 -0.0425903755934394,-0.5811118367614923 l 12.821890968662291 -0.8288466596559162" fill="#ff940d" stroke="none" /><path d="M 79.0235259727143 100.99374915477108 l -12.820667741587057 0.6073722263918329 a33.83504664430804,33.83504664430804 0 0,0 -0.02255326132859267,-0.5819994617269896 l 12.829223135766851 -0.38659551765084643" fill="#ff940d" stroke="none" /><path d="M 79.0095281055655 100.63252640178507 l -12.329104595655286 0.37152495695865695 a33.334701087754475,33.334701087754475 0 0,0 -0.01234643883212229,-0.5736904981288732 l 12.333673097172415 -0.15924464303965485" fill="#ff8d0d" stroke="none" /><line stroke="#e1ed5e" stroke-width="0.3" x1="15.007084014347285" x2="10.007500721073583" y1="101.09737516637583" y2="101.16192664675087" /><path d="M 14.007167355692545 101.11028546245083 a86.0,86.0 0 0,1 10.666146001902534,-42.60595125391555" fill="none" id="id22" stroke="none" /><text fill="#e1ed5e" style="font-size:6.75px; font-family:Arial;" text-anchor="middle"><textPath startOffset="22.20632615414155" xlink:href="#id22">October</textPath></text><path d="M 79.00019446554 99.90962569577889 l -51.32765630207582 -0.22089258007598894 a72.32813161411543,72.32813161411543 0 0,0 0.016074041687238548,-1.24495224289204 l 51.31624925327087 1.1043810810285009" fill="#3effb7" stroke="none" /><path d="M 79.05617556472873 98.46500227214037 l -17.463018143475203 -1.2798853072251124 a38.5098574831149,38.5098574831149 0 0,0 0.05414397239174145,-0.6606936048322948 l 17.438399687263964 1.5802928292651857" fill="#ffd213" stroke="none" /><path d="M 79.08570108090925 98.10471618934814 l -15.455680787205788 -1.40061599444078 a36.51901394289874,36.51901394289874 0 0,0 0.06212210215671954,-0.625561090943179 l 15.42928155936684 1.6664526160883895" fill="#ffb811" stroke="none" /><path d="M 79.32604984820605 96.31383870115002 l -5.430105370992698 -0.9681867335591812 a26.515743820295114,26.515743820295114 0 0,0 0.08398454786659475,-0.44864881293986514 l 5.412635099216241 1.061513623961619" fill="#ff2d04" stroke="none" /><path d="M 79.46518482838121 95.60439243477599 l -8.747449377429788 -1.8724470777310291 a29.945609463284224,29.945609463284224 0 0,0 0.11223274044787472,-0.5031173687989525 l 8.713922249979877 2.022742616079941" fill="#ff5f08" stroke="none" /><path d="M 79.54389044137918 95.25157060432595 l -24.252456211283285 -5.629666562986451 a45.897284548533015,45.897284548533015 0 0,0 0.18526591841960563,-0.7680468389088322 l 24.151957492602865 6.046298633554679" fill="#d0ff1d" stroke="none" /><path d="M 79.91906864156998 93.8553929516997 l -5.356154868595892 -1.6389412607371923 a26.60129658494623,26.60129658494623 0 0,0 0.13774976801278613,-0.4367044081191334 l 5.327149616814903 1.7308958352827402" fill="#ff2f04" stroke="none" /><path d="M 81.10775173730289 90.83032412892265 l -6.800630210699922 -3.300802206495674 a28.55935622054492,28.55935622054492 0 0,0 0.218465457777486,-0.4404130319364767 l 6.742804739969023 3.417374826931112" fill="#ff4b07" stroke="none" /><path d="M 81.26839172434947 90.50648371742162 l -22.97114718734007 -11.642190923669844 a46.75294570734816,46.75294570734816 0 0,0 0.3699951689780288,-0.7147128993685863 l 22.767342585201927 12.035876545298766" fill="#c6ff1e" stroke="none" /><line stroke="#e1ed5e" stroke-width="0.3" x1="26.266209847984243" x2="21.928928074336255" y1="57.711370442889674" y2="55.22380399835377" /><path d="M 25.398753493254645 57.213857153982495 a86.0,86.0 0 0,1 29.58750427330803,-30.492523968695096" fill="none" id="id23" stroke="none" /><text fill="#e1ed5e" style="font-size:6.75px; font-family:Arial;" text-anchor="middle"><textPath startOffset="21.46611528233685" xlink:href="#id23">November</textPath></text><path d="M 81.78341655067845 89.55222093294921 l -2.114406630093143 -1.2126781836219287 a23.43747897927642,23.43747897927642 0 0,0 0.20372785916533492,-0.3482369506693875 l 2.093219096457483 1.248894546645208" fill="#ff0000" stroke="none" /><path d="M 81.96595687620814 89.24020034530311 l -11.507586849290943 -6.8658663039373256 a34.40017444653299,34.40017444653299 0 0,0 0.30777377689055857,-0.50589916554228 l 11.387697274114167 7.062933242686681" fill="#ff9c0e" stroke="none" /><path d="M 82.15384107792192 88.93136811851018 l -12.19287096105383 -7.56232200081163 a35.34764148969681,35.34764148969681 0 0,0 0.3251518511238416,-0.5143121430919739 l 12.060891513684025 7.771081791617819" fill="#ffa90f" stroke="none" /><path d="M 82.54541684631803 88.32363383020206 l -43.15644620037394 -28.86980823236981 a72.9224871902298,72.9224871902298 0 0,0 0.7069159187864509,-1.0373118819763443 l 42.65310581591875 29.608398137616568" fill="#3fffbd" stroke="none" /><path d="M 85.31137513191541 84.99185889309783 l -8.459386399091525 -8.643400311164076 a33.09419642589643,33.09419642589643 0 0,0 0.4105520337203681,-0.39495073115903984 l 8.309351121758729 8.787734129085429" fill="#ff8a0c" stroke="none" /><path d="M 85.57189188830299 84.74124197986013 l -8.782952261324253 -9.28860126500841 a33.78351922926612,33.78351922926612 0 0,0 0.42598140712259747,-0.39590329278958813 l 8.621762970406799 9.438409143872645" fill="#ff940d" stroke="none" /><path d="M 85.83668400450813 84.49514656593479 l -11.569169357524665 -12.664991397451965 a38.153649370341576,38.153649370341576 0 0,0 0.4887101173208461,-0.43876876866699394 l 11.349448252607846 12.862259174888237" fill="#ffcd13" stroke="none" /><path d="M 86.37877921826538 84.01681056812374 l -8.420931810968408 -9.881151659189307 a33.98265191233591,33.98265191233591 0 0,0 0.44847789769742724,-0.3755873417877197 l 8.249596376311871 10.024640158370838" fill="#ff960d" stroke="none" /><path d="M 86.65592168130627 83.78471172551755 l -8.449285131760092 -10.2672954139406 a34.29690845102379,34.29690845102379 0 0,0 0.45908306692034523,-0.37121324636228054 l 8.271298666275248 10.411214757567015" fill="#ff9a0e" stroke="none" /><path d="M 87.22198572758235 83.33499621200491 l -8.07854377233982 -10.535984676283732 a34.27666534113503,34.27666534113503 0 0,0 0.4713104263613918,-0.3549812418455488 l 7.895987192220038 10.673482507635136" fill="#ff9a0e" stroke="none" /><path d="M 87.51073957382395 83.11751280151077 l -15.312796672564865 -20.69923157786196 a46.74761988707444,46.74761988707444 0 0,0 0.6510266850137152,-0.47299857352881586 l 14.954224671197368 20.959749386207445" fill="#c6ff1e" stroke="none" /><path d="M 87.80319425747018 82.90503203632743 l -22.939953666176017 -32.15249806299464 a60.497146807043876,60.497146807043876 0 0,0 0.8529200625524517,-0.597525010348374 l 22.383102464039904 32.54260791610695" fill="#31ff2f" stroke="none" /><path d="M 88.70189139769569 82.29822771554957 l -7.64935558029038 -11.984939724997279 a35.21799637802519,35.21799637802519 0 0,0 0.5138152181928886,-0.32175104249488956 l 7.441921209725249 12.114835108815099" fill="#ffa70f" stroke="none" /><path d="M 89.00827224532344 82.1063720568725 l -7.09226913890413 -11.54563032095495 a34.54997642237086,34.54997642237086 0 0,0 0.5094277767453262,-0.3069245354627642 l 6.892479295941155 11.666001465876334" fill="#ff9e0e" stroke="none" /><line stroke="#e1ed5e" stroke-width="0.3" x1="56.762969772571076" x2="54.21961505331055" y1="26.818313649435495" y2="22.513508569990535" /><path d="M 56.25429882871897 25.957352633546506 a86.0,86.0 0 0,1 42.265352541879196,-11.944610805530505" fill="none" id="id24" stroke="none" /><text fill="#e1ed5e" style="font-size:6.75px; font-family:Arial;" text-anchor="middle"><textPath startOffset="22.20632615414155" xlink:href="#id24">December</textPath></text><path d="M 89.94658935756843 81.56283822128135 l -19.234088252080515 -35.27380004483627 a61.176997405131125,61.176997405131125 0 0,0 0.9288851743405272,-0.49617829080195724 l 18.624058031211685 35.59965706213998" fill="#30ff36" stroke="none" /><path d="M 90.26544431104013 81.39251694778311 l -6.040478744124963 -11.546300565731443 a34.030903276919666,34.030903276919666 0 0,0 0.5213850584395274,-0.26707367763826295 l 5.8408331980966715 11.64856676868221" fill="#ff970d" stroke="none" /><path d="M 90.58718382345135 81.22770947309562 l -3.040692974636323 -6.064154537002736 a27.7837883232493,27.7837883232493 0 0,0 0.4293636962949817,-0.2106869010658869 l 2.9358580113309154 6.115596598203453" fill="#ff4006" stroke="none" /><path d="M 91.90106846888425 80.62456947434976 l -2.1818172661118522 -5.219657518624616 a26.657309536735486,26.657309536735486 0 0,0 0.42488721406289826,-0.17332216289885455 l 2.0916461824605737 5.256440567707047" fill="#ff2f04" stroke="none" /><path d="M 92.23578459929587 80.48803036053334 l -14.608475298779084 -36.712032291482515 a60.51178135095776,60.51178135095776 0 0,0 0.9711185252919711,-0.37677890058178043 l 13.974373608487436 36.95805389595485" fill="#31ff2f" stroke="none" /><path d="M 93.25333710446033 80.11325718540243 l -2.730118453675907 -8.04741016147905 a29.49790309889316,29.49790309889316 0 0,0 0.4822446115085185,-0.15898846637741526 l 2.5911910199249797 8.0932123521157" fill="#ff5808" stroke="none" /><path d="M 93.94186890950719 79.89281104454417 l -2.6276821203096485 -8.721386202892637 a30.108638242097502,30.108638242097502 0 0,0 0.49752342862069165,-0.14524073180508795 l 2.4771684739655355 8.765325263616424" fill="#ff6108" stroke="none" /><path d="M 94.28887869178378 79.79150937346287 l -7.378242368366974 -26.107507386852 a48.130064548410076,48.130064548410076 0 0,0 0.7991930999918608,-0.21844966392202972 l 6.92775137915139 26.230643591600327" fill="#b6ff1f" stroke="none" /><path d="M 94.63758080256005 79.69619591428918 l -3.378874813169016 -12.7934817683553 a34.2321566934611,34.2321566934611 0 0,0 0.5710104862315107,-0.1455632870192415 l 3.1581554382525057 12.849748051543404" fill="#ff9a0e" stroke="none" /><path d="M 95.692805502759 79.44645832069477 l -2.740159445669191 -13.075792470151896 a34.359821200531506,34.359821200531506 0 0,0 0.5799178475319804,-0.11632606463105602 l 2.5146751886700742 13.121022490860163" fill="#ff9b0e" stroke="none" /><path d="M 96.40284397218896 79.31037775812273 l -1.5725032418929603 -9.044505658735861 a30.18018785519495,30.18018785519495 0 0,0 0.5125900743423784,-0.08458175430772887 l 1.4165839614116964 9.070233675983218" fill="#ff6209" stroke="none" /><path d="M 97.11714578562143 79.19881850522333 l -2.8522903283474923 -20.580648337967315 a41.777358978663806,41.777358978663806 0 0,0 0.7131698988424277,-0.09258992098289633 l 2.497605700997207 20.62669658211435" fill="#fffc17" stroke="none" /><path d="M 97.47563105711357 79.15227682838746 l -1.4744319788788767 -12.176726313187986 a33.265668076653036,33.265668076653036 0 0,0 0.56905407633941,-0.0639398559084595 l 1.2646111990297486 12.200302122567045" fill="#ff8d0c" stroke="none" /><path d="M 98.19473922651362 79.07773832637324 l -1.058129127231674 -12.263300022673654 a33.308865288726,33.308865288726 0 0,0 0.571659134822155,-0.044371751107235353 l 0.8468798030471848 12.27969703596935" fill="#ff8d0d" stroke="none" /><path d="M 98.55514903715128 79.0497635885617 l -0.8730716353363223 -12.65947674516807 a33.68954709758705,33.68954709758705 0 0,0 0.5788793881054447,-0.03491958554155511 l 0.6550301983912545 12.67262960008993" fill="#ff920d" stroke="none" /><path d="M 98.91598698831166 79.02799685794201 l -0.7749716076181492 -14.993092162851584 a36.01310739308741,36.01310739308741 0 0,0 0.6193554232933965,-0.02667074737575822 l 0.5167753519354286 15.004210636751534" fill="#ffb110" stroke="none" /><path d="M 99.63851952072746 79.00311137660856 l -0.3608534551784819 -20.960467417207266 a41.96357339682149,41.96357339682149 0 0,0 0.7223339344510125,-0.006217356222781601 l 5.134594611821608e-15 20.963573396821488" fill="#fffe18" stroke="none" /></svg>