<?xml version="1.0" encoding="utf-8" ?>
<svg baseProfile="full" height="200mm" version="1.1" viewBox="0,0,200,200" width="200mm" xmlns="http://www.w3.org/2000/svg" xmlns:ev="http://www.w3.org/2001/xml-events" xmlns:xlink="http://www.w3.org/1999/xlink"><defs /><rect fill="#1a1a1a" height="200" width="200" x="0" y="0" /><text alignment-baseline="middle" fill="#e1ed5e" style="dominant-baseline: central; font-size:9.0px; font-family:Arial;" text-anchor="middle" x="100.0" y="100.0">2022</text><line stroke="#e1ed5e" stroke-width="0.3" x1="100.0" x2="100.0" y1="15.0" y2="10.0" /><path d="M 100.0 14.0 a86.0,86.0 0 0,1 42.46469731375804,11.215312516191453" fill="none" id="id73" stroke="none" /><text fill="#e1ed5e" style="font-size:6.75px; font-family:Arial;" text-anchor="middle"><textPath startOffset="22.20632615414155" xlink:href="#id73">January</textPath></text><path d="M 100.0 79.0 l 0.0 -4.893237593004429 a25.89323759300443,25.89323759300443 0 0,0 0.44570952071603287,0.0038363625603205303 l -0.08422904144350447 4.892512607052667" fill="#ff3e05" stroke="none" /><path d="M 100.36148047927253 79.00311137660856 l 0.10723418050819351 -6.2287848828862264 a27.2297078813329,27.2297078813329 0 0,0 0.46857576951133795,0.012101929693300371 l -0.2144365852143993 6.226016161050566" fill="#ff5007" stroke="none" /><path d="M 100.72285384407766 79.0124445844662 l 0.16480466949328032 -4.78498822696632 a25.78782548880941,25.78782548880941 0 0,0 0.44350045657274223,0.01909806258801451 l -0.24714595845535406 4.7814424378541105" fill="#ff3c05" stroke="none" /><path d="M 101.44485096284872 79.0497635885617 l 0.36709134932974874 -5.322798510573694 a26.3354418788811,26.3354418788811 0 0,0 0.45197864860126696,0.03508224198631572 l -0.45866018729335695 5.315691006398914" fill="#ff4406" stroke="none" /><path d="M 101.80526077348638 79.07773832637324 l 0.4585461791641906 -5.314369697064345 a26.334115660116666,26.334115660116666 0 0,0 0.4512850726845379,0.042854955398038345 l -0.5499563789389726 5.305689197151128" fill="#ff4406" stroke="none" /><path d="M 102.16513564639614 79.11191278185805 l 0.5514862010063035 -5.320448113907145 a26.348953651199313,26.348953651199313 0 0,0 0.4507343561518947,0.050645256722761496 l -0.6429872606679236 5.310166903713783" fill="#ff4406" stroke="none" /><path d="M 102.52436894288641 79.15227682838746 l 0.5612815928800584 -4.635393452553557 a25.669251491029623,25.669251491029623 0 0,0 0.4381927899886729,0.05689000035780966 l -0.6409891113765774 4.62504512903161" fill="#ff3a05" stroke="none" /><path d="M 103.2404852339499 79.25152402106235 l 0.853474519508462 -5.464704909354459 a26.530950958178252,26.530950958178252 0 0,0 0.4506102542925718,0.07435455293592075 l -0.947413979939909 5.449204093478913" fill="#ff4606" stroke="none" /><path d="M 103.59715602781102 79.31037775812273 l 1.020573616337825 -5.86999352510862 a26.958052911076066,26.958052911076066 0 0,0 0.4564959590830855,0.08342171867369524 l -1.1214646965238113 5.851556325084187" fill="#ff4c07" stroke="none" /><path d="M 103.95276090670814 79.375362276772 l 1.0377360217132292 -5.4146785007554765 a26.513224040187808,26.513224040187808 0 0,0 0.447484628246014,0.08976120670933374 l -1.1307870594263685 5.396013337968935" fill="#ff4606" stroke="none" /><path d="M 104.66035177308747 79.52364482259891 l 1.2746991687109799 -5.600691577316693 a26.743918881298605,26.743918881298605 0 0,0 0.44799415143983695,0.10602574153529123 l -1.3709170071133405 5.5779199236405335" fill="#ff4906" stroke="none" /><path d="M 105.01212808612495 79.60689891045804 l 1.1408065261588585 -4.64165767749831 a25.779793460517478,25.779793460517478 0 0,0 0.4300205952740567,0.10962182454331547 l -1.2205360101179403 4.621332856786127" fill="#ff3c05" stroke="none" /><path d="M 105.71112130821622 79.79150937346287 l 1.3576427542836391 -4.803944688524951 a25.99210160339971,25.99210160339971 0 0,0 0.42950064372887115,0.12538301558758272 l -1.4401336157359375 4.779863344018666" fill="#ff3f05" stroke="none" /><path d="M 106.74666289553966 80.11325718540242 l 1.56588865595127 -4.6156782188993475 a25.87406326418305,25.87406326418305 0 0,0 0.4205373057176681,0.1467172084984403 l -1.6451079657322119 4.5880401572287" fill="#ff3d05" stroke="none" /><path d="M 107.08798089147638 80.2323363322302 l 1.6600247788856093 -4.629641644299006 a25.918258230424854,25.918258230424854 0 0,0 0.41866339414049986,0.15419726130767192 l -1.7394704987986858 4.60038111518501" fill="#ff3e05" stroke="none" /><path d="M 107.76421540070413 80.48803036053334 l 2.20586335872634 -5.5434756331434265 a26.96623459584237,26.96623459584237 0 0,0 0.42981112836629104,0.17533075117533442 l -2.3009583566810186 5.504683995784513" fill="#ff4c07" stroke="none" /><path d="M 108.09893153111575 80.62456947434976 l 2.584282531631096 -6.182492895253765 a27.700875659431155,27.700875659431155 0 0,0 0.4383548050028516,0.18768065069847156 l -2.6903210944242626 6.1370927165925035" fill="#ff5708" stroke="none" /><path d="M 108.76106565485865 80.91482961587045 l 2.4833596397043394 -5.409769052757152 a26.952535283749395,26.952535283749395 0 0,0 0.4199741335980559,0.19718348696260818 l -2.5761119846019933 5.366220583154542" fill="#ff4c07" stroke="none" /><path d="M 109.41281617654863 81.2277094730956 l 5.006653398285326 -9.984934412539127 a32.16984751342963,32.16984751342963 0 0,0 0.4928719549197587,0.2524681585604891 l -5.17778584079384 9.897273728666137" fill="#ff930d" stroke="none" /><path d="M 109.73455568895987 81.39251694778311 l 5.504250612762727 -10.521307110944317 a32.87411799380932,32.87411799380932 0 0,0 0.49914644587328,0.26662674484939064 l -5.684542105164318 10.425001639593171" fill="#ff9c0e" stroke="none" /><path d="M 110.36928655335952 81.73862282372117 l 5.096655968769023 -8.975733914236342 a31.321807078373503,31.321807078373503 0 0,0 0.4665506475812305,0.27025624883962845 l -5.250403348815582 8.886673508006664" fill="#ff870c" stroke="none" /><line stroke="#e1ed5e" stroke-width="0.3" x1="143.23703022742887" x2="145.7803849466894" y1="26.81831364943548" y2="22.513508569990506" /><path d="M 143.74570117128098 25.957352633546492 a86.0,86.0 0 0,1 28.547481713284135,27.462654790039103" fill="none" id="id74" stroke="none" /><text fill="#e1ed5e" style="font-size:6.75px; font-family:Arial;" text-anchor="middle"><textPath startOffset="19.985693538727396" xlink:href="#id74">February</textPath></text><path d="M 110.68208982089419 81.91981866633111 l 0.6440223854317559 -1.0900527618455675 a22.26608840787062,22.26608840787062 0 0,0 0.32830598133468913,0.1978006803134525 l -0.6626904329840826 1.0788054720735003" fill="#ff0a01" stroke="none" /><path d="M 110.99172775467656 82.1063720568725 l 12.457343420268332 -20.27952959690168 a44.800099280509606,44.800099280509606 0 0,0 0.6536139233985377,0.4092929788695078 l -12.804576496039132 20.06209227670923" fill="#cfff1d" stroke="none" /><path d="M 111.60114157652 82.49532879139004 l 5.517119949529766 -8.324643751477346 a30.986906734645626,30.986906734645626 0 0,0 0.44207294250295914,0.29848962414909164 l -5.659597586439267 8.228442215029585" fill="#ff830c" stroke="none" /><path d="M 112.48926042617603 83.11751280151076 l 2.781560028167865 -3.760002591422582 a25.677039199943245,25.677039199943245 0 0,0 0.3530639918609707,0.2659204788855098 l -2.845870173787219 3.711565523031225" fill="#ff3b05" stroke="none" /><path d="M 112.77801427241765 83.33499621200491 l 7.808685896974813 -10.184037775982835 a33.83316799781951,33.83316799781951 0 0,0 0.45911197310477897,0.3583441773217277 l -7.9828304252390225 10.048115209437883" fill="#ffa80f" stroke="none" /><path d="M 113.06298171725822 83.55741782278167 l 6.35336854282623 -7.997085705904238 a31.213651238834807,31.213651238834807 0 0,0 0.41781196579189167,0.33784155279576655 l -6.490083907182612 7.886538055844342" fill="#ff860c" stroke="none" /><path d="M 113.6212207817346 84.01681056812373 l 7.729081237205334 -9.069331708819252 a32.91601755688174,32.91601755688174 0 0,0 0.4280746913636376,0.37122215403249065 l -7.884049727215737 8.934944561367091" fill="#ff9c0e" stroke="none" /><path d="M 113.89432698308785 84.25364557470407 l 16.907560679770025 -19.16123344836451 a46.55422617499556,46.55422617499556 0 0,0 0.5963131105735698,0.535375798439988 l -17.234884777939584 18.867358641155224" fill="#bbff1f" stroke="none" /><path d="M 114.42810811169701 84.74124197986012 l 8.18914518763466 -8.660607741676612 a32.91923761653189,32.91923761653189 0 0,0 0.4083815717433788,0.39286274845683516 l -8.337010002990455 8.518361906457475" fill="#ff9d0e" stroke="none" /><path d="M 114.68862486808459 84.99185889309783 l 1.0739217538448946 -1.0972823776374236 a22.53536202560013,22.53536202560013 0 0,0 0.2748929991060744,0.27371252120720546 l -1.0926505531182915 1.0786340057800994" fill="#ff0e01" stroke="none" /><path d="M 114.94478906791727 85.2469230424477 l 6.610575536270863 -6.525774915731751 a30.288996026026524,30.288996026026524 0 0,0 0.3630867960145424,0.37419285952340864 l -6.721926595988515 6.411017860658228" fill="#ff7a0b" stroke="none" /><path d="M 115.19652480421416 85.50635884689758 l 6.769774757718846 -6.456652905175954 a30.355117156303514,30.355117156303514 0 0,0 0.35737032887872683,0.3812177499222328 l -6.879912408568036 6.339165738375666" fill="#ff7b0b" stroke="none" /><path d="M 115.68641384162765 86.03803664274999 l 9.648551264733177 -8.587859568721846 a33.91688327268895,33.91688327268895 0 0,0 0.3844044848085881,0.4394407771704341 l -9.794947613119612 8.420503235348464" fill="#ffa90f" stroke="none" /><path d="M 115.9244219780498 86.31012108654704 l 6.80721095558973 -5.852011071347306 a29.976867748445017,29.976867748445017 0 0,0 0.333013575552979,0.39418303556595075 l -6.906935144629827 5.733969086152248" fill="#ff760a" stroke="none" /><path d="M 116.15771136456269 86.58626213691792 l 8.205844252532854 -6.812291745114572 a31.665045650037445,31.665045650037445 0 0,0 0.3445481275953765,0.4223752646027444 l -8.32189087220464 6.670032310903727" fill="#ff8c0c" stroke="none" /><path d="M 116.60985879189232 87.15038557335679 l 5.159029877750547 -3.991096226355959 a27.522609781947377,27.522609781947377 0 0,0 0.2866598546254789,0.37721076679666865 l -5.22696567260014 3.9017006836782566" fill="#ff5407" stroke="none" /><path d="M 116.82858285166822 87.43820079747576 l 7.503735140063039 -5.601209259819109 a30.363737834032957,30.363737834032957 0 0,0 0.309041238046065,0.4215319013873039 l -7.599038990622731 5.471214914760312" fill="#ff7b0b" stroke="none" /><path d="M 117.04232023915458 87.72973835380427 l 7.572158162385094 -5.451861047967898 a30.330614562960193,30.330614562960193 0 0,0 0.30141030918487427,0.42632350703030664 l -7.664881091373851 5.320711040605798" fill="#ff7a0b" stroke="none" /><path d="M 117.2510076193507 88.02491185347247 l 7.696159705872268 -5.34242363699348 a30.36869065213483,30.36869065213483 0 0,0 0.29439630602139477,0.4319902524902498 l -7.786980477562396 5.209155361232824" fill="#ff7b0b" stroke="none" /><path d="M 117.45458315368197 88.32363383020206 l 10.673560714816391 -7.140153514091605 a33.84159999913042,33.84159999913042 0 0,0 0.3197279668904153,0.4869676288490656 l -10.794885317064733 6.955367821264865" fill="#ffa80f" stroke="none" /><line stroke="#e1ed5e" stroke-width="0.3" x1="172.23445277983987" x2="176.4835382374775" y1="55.19839476539836" y2="52.563006222186495" /><path d="M 173.08426987136738 54.67131705675599 a86.0,86.0 0 0,1 12.851231095245387,41.99856678651699" fill="none" id="id75" stroke="none" /><text fill="#e1ed5e" style="font-size:6.75px; font-family:Arial;" text-anchor="middle"><textPath startOffset="22.20632615414155" xlink:href="#id75">March</textPath></text><path d="M 117.84615892207809 88.93136811851018 l 4.169433136349994 -2.585986191328264 a25.906271217557567,25.906271217557567 0 0,0 0.2317799565281608,0.38098530609617126 l -4.213328891164379 2.5138331120250115" fill="#ff3e05" stroke="none" /><path d="M 118.03404312379186 89.2402003453031 l 4.034066177300109 -2.40687812286941 a25.697526181000388,25.697526181000388 0 0,0 0.22337308544700465,0.38181701047842387 l -4.074898937217441 2.337081700037091" fill="#ff3b05" stroke="none" /><path d="M 118.21658344932153 89.55222093294921 l 4.240386267981234 -2.4319938483565644 a25.888299272766346,25.888299272766346 0 0,0 0.21837687600501057,0.3884680952662742 l -4.281620785278678 2.3586422431554963" fill="#ff3d05" stroke="none" /><path d="M 118.56541770881063 90.18545643968196 l 4.141334451395224 -2.1893020673472443 a25.684409736605446,25.684409736605446 0 0,0 0.20326221967020408,0.39263791133773046 l -4.1784061042255445 2.1176914337491692" fill="#ff3b05" stroke="none" /><path d="M 118.73160827565052 90.50648371742162 l 7.996368255365388 -4.052703383322696 a29.964725873589806,29.964725873589806 0 0,0 0.2292158655327687,0.46208519797235653 l -8.064944133851565 3.91445859685139" fill="#ff750a" stroke="none" /><path d="M 119.04729006885535 91.15688171328212 l 4.247659051168242 -1.972068010480292 a25.683124987968096,25.683124987968096 0 0,0 0.18271425554015241,0.4025866423903599 l -4.280975623671741 1.898659359247869" fill="#ff3b05" stroke="none" /><path d="M 119.196687751892 91.48605970444005 l 5.28354838620169 -2.3433113092330067 a26.779878151078428,26.779878151078428 0 0,0 0.18326272759957069,0.42299564240853627 l -5.323101823643941 2.2520165222378674" fill="#ff4a06" stroke="none" /><path d="M 119.34039704204932 91.81776055985345 l 4.301847380684282 -1.8199598088497337 a25.670989680199323,25.670989680199323 0 0,0 0.16866856438265415,0.4084443073231153 l -4.332537631953134 1.7456409310733154" fill="#ff3a05" stroke="none" /><path d="M 119.47837535516314 92.15188598940014 l 4.324748006717358 -1.742502380458312 a25.662591539852986,25.662591539852986 0 0,0 0.16156000611047003,0.41115259335888393 l -4.354101562709528 1.6678007822036436" fill="#ff3a05" stroke="none" /><path d="M 119.61058180528143 92.48833698450437 l 5.755739938369382 -2.2046861868328924 a27.163536600082143,27.163536600082143 0 0,0 0.16349268506278788,0.43807911251927195 l -5.792837211933795 2.105283937284287" fill="#ff4f07" stroke="none" /><path d="M 119.7369772167798 92.82701384747503 l 8.866749001966113 -3.2224320426810715 a30.434156355157825,30.434156355157825 0 0,0 0.17470208508413482,0.4939063201686343 l -8.920904167860058 3.0693280960858225" fill="#ff7c0b" stroke="none" /><path d="M 119.97218684219823 93.5106431181261 l 5.135917591289259 -1.6687607836389464 a26.40022333404145,26.40022333404145 0 0,0 0.13670854832722154,0.43340345717695977 l -5.163881623384688 1.5801071600355676" fill="#ff4506" stroke="none" /><path d="M 120.08093135843002 93.85539295169968 l 4.0385281917682825 -1.2357578614739626 a25.223364470170896,25.223364470170896 0 0,0 0.12346729154932286,0.4162703282258532 l -4.0592013804293074 1.1660581465015796" fill="#ff3405" stroke="none" /><path d="M 120.28053869075195 94.5502522615342 l 5.442260947936447 -1.46243399869265 a26.6353276236583,26.6353276236583 0 0,0 0.11517073571735369,0.4437998258188325 l -5.466628015524103 1.368537747324967" fill="#ff4806" stroke="none" /><path d="M 120.45610955862082 95.25157060432595 l 19.435117720569956 -4.51142892192068 a40.95186186123878,40.95186186123878 0 0,0 0.15348292339031794,0.6880338505818709 l -19.509895030962312 4.176216901788845" fill="#fdff18" stroke="none" /><path d="M 120.6074358757038 95.95851677861258 l 5.651554924691998 -1.108370034033268 a26.7592149811544,26.7592149811544 0 0,0 0.08475570539104445,0.45276836727125586 l -5.6697963539929015 1.0109235892994495" fill="#ff4a06" stroke="none" /><path d="M 120.67395015179393 96.31383870115 l 12.88550042095499 -2.2974822237306225 a34.08871825912642,34.08871825912642 0 0,0 0.09802639232524897,0.5785573164595261 l -12.923138674800462 2.0753391189552586" fill="#ffac0f" stroke="none" /><path d="M 120.73433829027371 96.67025291283417 l 12.05614443461273 -1.9361076901322387 a33.21061552977706,33.21061552977706 0 0,0 0.08578476989255565,0.5652144508736963 l -12.087685097944584 1.7282941268664602" fill="#ffa00e" stroke="none" /><path d="M 120.78858239683441 97.02765380044208 l 11.481139395450262 -1.6415703772979608 a32.59790132400609,32.59790132400609 0 0,0 0.07463988180838436,0.5561538157893988 l -11.507695276316483 1.4436982194438976" fill="#ff980e" stroke="none" /><path d="M 120.87857604477298 97.74499172005257 l 6.427599153842449 -0.6942182877326302 a27.464980271702196,27.464980271702196 0 0,0 0.04672038278028983,0.4704678786881541 l -6.438596662304968 0.5834748783400411" fill="#ff5307" stroke="none" /><line stroke="#e1ed5e" stroke-width="0.3" x1="184.98032266829074" x2="189.97916517819016" y1="98.17113171792111" y2="98.06355123074" /><path d="M 185.9800911702706 98.14961562048488 a86.0,86.0 0 0,1 -9.607161424134198,41.387399972396054" fill="none" id="id76" stroke="none" /><text fill="#e1ed5e" style="font-size:6.75px; font-family:Arial;" text-anchor="middle"><textPath startOffset="21.466115282336823" xlink:href="#id76">April</textPath></text><path d="M 120.99513854157772 99.54816195383933 l 8.366512708988378 -0.18005638534470103 a29.36844998859212,29.36844998859212 0 0,0 0.006526778431451725,0.505506182278127 l -8.368372494537544 0.03601394500611126" fill="#ff6d0a" stroke="none" /><path d="M 120.99980553446 99.90962569577887 l 2.962587549637055 -0.012749727041675502 a23.962614984233376,23.962614984233376 0 0,0 -0.0017751764324555987,0.41248848544070127 l -2.962368075915096 -0.03824823660271047" fill="#ff2203" stroke="none" /><path d="M 120.99824983174949 100.27111621757518 l 9.171261238438369 0.11841356671543876 a30.1720256473946,30.1720256473946 0 0,0 -0.011175053531037265,0.5192608260576316 l -9.167864122222324 -0.2762642085631851" fill="#ff780b" stroke="none" /><path d="M 120.9764740272857 100.99374915477107 l 10.351741318824791 0.4904081673883659 a31.363351219683025,31.363351219683025 0 0,0 -0.030188941740278696,0.539043834556643 l -10.341766026196984 -0.6685237182804321" fill="#ff880c" stroke="none" /><path d="M 120.95626037817324 101.35467743843564 l 11.42167156887938 0.7383321501243661 a32.445510726536185,32.445510726536185 0 0,0 -0.04082485948991579,0.5570227722380232 l -11.407270150725127 -0.9348280588591596" fill="#ff960d" stroke="none" /><path d="M 120.92983693683757 101.71520430193887 l 8.803159700909124 0.7214206892877815 a29.83267052089247,29.83267052089247 0 0,0 -0.04634775808938619,0.5114436484199857 l -8.789437346542663 -0.8728457262563377" fill="#ff740a" stroke="none" /><path d="M 120.89721153311464 102.0752229133903 l 9.006689498860338 0.8944202144964825 a30.05099128543283,30.05099128543283 0 0,0 -0.05554811044344995,0.5143065142377446 l -8.989959086915835 -1.0493230506190185" fill="#ff770a" stroke="none" /><path d="M 120.81339534386255 102.79330883721812 l 9.454003669982123 1.2687959634726642 a30.538764521098106,30.538764521098106 0 0,0 -0.07440689845250145,0.520401674476142 l -9.43076272051302 -1.4313431099292155" fill="#ff7d0b" stroke="none" /><path d="M 120.76222939487914 103.15116336523771 l 3.2004227646720764 0.4857404654143173 a24.237074245730575,24.237074245730575 0 0,0 -0.06615364643716548,0.41193881951281625 l -3.1915873638736225 -0.5407585146203384" fill="#ff2603" stroke="none" /><path d="M 120.64145759157962 103.86396538481128 l 10.424749697686801 1.951454823307422 a31.605827746424644,31.605827746424644 0 0,0 -0.10470569307992272,0.533892073223772 l -10.389614071631215 -2.130610623599139" fill="#ff8b0c" stroke="none" /><path d="M 120.5718875245553 104.21870165774334 l 9.767741335009855 2.00308243534911 a30.97101349063696,30.97101349063696 0 0,0 -0.11159292892606128,0.5213250127435982 l -9.731814367359352 -2.170921267508877" fill="#ff830c" stroke="none" /><path d="M 120.41448212921028 104.9243191809786 l 10.579716816391798 2.5520070564873722 a31.883158913266165,31.883158913266165 0 0,0 -0.1332847912913025,0.5324064868072009 l -10.534220710805435 -2.733741382691969" fill="#ff8f0d" stroke="none" /><path d="M 120.23288151984713 105.62410040840565 l 9.474688113311235 2.6336632889052063 a30.83391565775547,30.83391565775547 0 0,0 -0.14654532458461833,0.5101434998194933 l -9.427950151840516 -2.796364264229281" fill="#ff810b" stroke="none" /><path d="M 120.13307415673323 105.97154293290107 l 10.262492248105968 3.043892481647372 a31.704392957205208,31.704392957205208 0 0,0 -0.15968933184844908,0.5218739760436363 l -10.208576143751385 -3.2200934302430655" fill="#ff8d0c" stroke="none" /><path d="M 119.79798401119884 107.00284435728193 l 4.7859233738530245 1.6928529932144776 a26.076496212647847,26.076496212647847 0 0,0 -0.15332450667862377,0.4218831921242088 l -4.756074606169173 -1.7749839823448175" fill="#ff4006" stroke="none" /><path d="M 119.67450827220406 107.3425965602758 l 5.956798978040613 2.223098594449167 a27.358114612479675,27.358114612479675 0 0,0 -0.16845527233000449,0.43978355947861597 l -5.917649426117102 -2.325305720760927" fill="#ff5207" stroke="none" /><path d="M 119.54520255179757 107.68017299344265 l 4.9378841945059255 1.9403127051197466 a26.305423047411068,26.305423047411068 0 0,0 -0.16922828021707487,0.4200107131885311 l -4.903753300031458 -2.025022786151091" fill="#ff4306" stroke="none" /><path d="M 119.41010516605496 108.01547362559984 l 4.3067646492050615 1.7784941483851384 a25.65953465267537,25.65953465267537 0 0,0 -0.17210096566148922,0.4067958450203553 l -4.275512702351263 -1.8523645190716571" fill="#ff3a05" stroke="none" /><path d="M 119.26925614724726 108.34839909993367 l 2.059957868615867 0.8924760916996132 a23.244981067788288,23.244981067788288 0 0,0 -0.1622266290827214,0.36577822200222004 l -2.044290154801873 -0.9278026501945209" fill="#ff1802" stroke="none" /><path d="M 118.97047184881838 109.00673069616215 l 4.591983442675871 2.180164972121833 a26.083250066982377,26.083250066982377 0 0,0 -0.19605505142748586,0.40393147552867326 l -4.553775134633671 -2.2588854036157815" fill="#ff4006" stroke="none" /><path d="M 118.81262510543309 109.33194174019688 l 5.167197542320035 2.5631716017714674 a26.76799610796383,26.76799610796383 0 0,0 -0.20830769195806773,0.4110108383891242 l -5.122311180575697 -2.651736651863286" fill="#ff4a06" stroke="none" /><path d="M 118.64920377521936 109.65438752849418 l 10.19500031987448 5.2777847852130435 a32.480115145819184,32.480115145819184 0 0,0 -0.26130638030727676,0.49429319566082114 l -10.102641431342308 -5.452492995959999" fill="#ff970d" stroke="none" /><line stroke="#e1ed5e" stroke-width="0.3" x1="174.80103733775053" x2="179.2010983576182" y1="140.37084112569926" y2="142.7455964860345" /><path d="M 175.68104954172406 140.8457921977663 a86.0,86.0 0 0,1 -30.038265399797805,32.042727171017184" fill="none" id="id77" stroke="none" /><text fill="#e1ed5e" style="font-size:6.75px; font-family:Arial;" text-anchor="middle"><textPath startOffset="22.206326154141568" xlink:href="#id77">May</textPath></text><path d="M 118.48025628344425 109.97397251340804 l 5.607905263806892 3.026640545516382 a27.3725312427321,27.3725312427321 0 0,0 -0.22735310389324126,0.4127119227393405 l -5.55497575046214 -3.1227229866535273" fill="#ff5207" stroke="none" /><path d="M 118.30583269289576 110.29060199501025 l 7.778028081315921 4.372409200587633 a29.922762075227737,29.922762075227737 0 0,0 -0.2562642394684281,0.4468183020902322 l -7.701611845695113 -4.505647348536181" fill="#ff750a" stroke="none" /><path d="M 118.12598468904814 110.60418214915192 l 4.779765159486946 2.796289484454567 a26.53763395871526,26.53763395871526 0 0,0 -0.23406082489877278,0.3922994056838373 l -4.730923458889946 -2.8781509840245083" fill="#ff4706" stroke="none" /><path d="M 117.94076556474637 110.91462005526583 l 3.643633074313108 2.2166763443514146 a25.264940327347563,25.264940327347563 0 0,0 -0.2292316432875516,0.36959439792374377 l -3.604936791357593 -2.279067073640432" fill="#ff3505" stroke="none" /><path d="M 117.75023020441432 111.22182372390056 l 4.692271006610289 2.966487617036933 a26.551347222207326,26.551347222207326 0 0,0 -0.24755355509025995,0.38420861494353986 l -4.640512588142979 -3.046817831901926" fill="#ff4706" stroke="none" /><path d="M 117.35343817320211 111.8261652097733 l 7.785355854152915 5.305628984247498 a30.42133030385201,30.42133030385201 0 0,0 -0.2986202586550985,0.43018475474398404 l -7.692874688335681 -5.438855001178502" fill="#ff7b0b" stroke="none" /><path d="M 116.498646956653 112.99209946851258 l 5.335784850665292 4.2017413733719415 a27.791555826266524,27.791555826266524 0 0,0 -0.29919871278316307,0.3732963981021904 l -5.262668225827276 -4.292965605052382" fill="#ff5808" stroke="none" /><path d="M 116.27256486870786 113.27417163493432 l 4.828093440626171 3.938465848344254 a27.230730254953386,27.230730254953386 0 0,0 -0.29941354960422134,0.3606629086184167 l -4.759583891128407 -4.020990014076442" fill="#ff5007" stroke="none" /><path d="M 116.0416608686014 113.55231037782055 l 4.208048770053091 3.555042304153735 a26.50872038094765,26.50872038094765 0 0,0 -0.29747516759352727,0.34603082515910927 l -4.146231092888785 -3.626950228474372" fill="#ff4606" stroke="none" /><path d="M 115.32070863581623 114.36230785411682 l 4.238945972122995 3.973774873981566 a26.810296868806702,26.810296868806702 0 0,0 -0.3185234963977302,0.33397061253286314 l -4.1699159243462995 -4.046152603096936" fill="#ff4a06" stroke="none" /><path d="M 115.07121518719521 114.62390073753431 l 4.57749393720003 4.441633679356698 a27.37820981833451,27.37820981833451 0 0,0 -0.3310930025029824,0.3353954635027835 l -4.500360309641512 -4.519769636840147" fill="#ff5207" stroke="none" /><path d="M 114.55890576462653 115.13401014063108 l 3.5538104659952623 3.694192716112606 a26.126073414612485,26.126073414612485 0 0,0 -0.32678015590922344,0.30899103400109307 l -3.4896944756952313 -3.7548183868596205" fill="#ff4106" stroke="none" /><path d="M 114.29624159901734 115.38237550388516 l 3.797757427600942 4.086285924829507 a26.57859248721018,26.57859248721018 0 0,0 -0.3378018242558582,0.30857395725377834 l -3.72685605387822 -4.151052648669868" fill="#ff4706" stroke="none" /><path d="M 114.0293411484842 115.62618273729858 l 3.1363059224055756 3.493285176038106 a25.694619916462234,25.694619916462234 0 0,0 -0.3316534865483706,0.2926456411892672 l -3.075710082950617 -3.546753958999662" fill="#ff3b05" stroke="none" /><path d="M 113.75828350139079 115.86535959552629 l 3.748538100120466 4.32262534130295 a26.721593111129906,26.721593111129906 0 0,0 -0.3500967993206088,0.2983600875688804 l -3.67357582422281 -4.386509819094777" fill="#ff4906" stroke="none" /><path d="M 112.92097659922987 116.55440617244103 l 4.1924230732507315 5.371348974151281 a27.813794906455662,27.813794906455662 0 0,0 -0.3799513671541011,0.2913305063763091 l -4.099342977603136 -5.442718822354961" fill="#ff5808" stroke="none" /><path d="M 112.63410532772338 116.77436683061366 l 3.9343941964587055 5.223715474558913 a27.53962239370701,27.53962239370701 0 0,0 -0.38111562745755867,0.2819402300052607 l -3.8438935985825826 -5.290665653303943" fill="#ff5407" stroke="none" /><path d="M 112.04921762599082 117.19931262002967 l 5.212626526921692 7.440615315520404 a30.084835253471827,30.084835253471827 0 0,0 -0.42669338369054083,0.2934836001003536 l -5.083776258608268 -7.5292397049858515" fill="#ff770b" stroke="none" /><path d="M 111.7513745106137 117.40417183066458 l 2.6174580497327686 3.8765413880700366 a25.677462963565915,25.677462963565915 0 0,0 -0.36844139348047206,0.24418286510373774 l -2.5503419575123325 -3.921022274265093" fill="#ff3b05" stroke="none" /><path d="M 111.45004920935366 117.60387380957326 l 3.0111584626959087 4.62950443519706 a26.52262497395708,26.52262497395708 0 0,0 -0.38485364224044183,0.2456318031977121 l -2.9310230184085366 -4.68065066721858" fill="#ff4606" stroke="none" /><path d="M 111.1453310114006 117.79835938074945 l 2.7143943623969187 4.334708974870495 a26.114453895718974,26.114453895718974 0 0,0 -0.38303785629953313,0.23529313616898193 l -2.639377306165077 -4.380790577867854" fill="#ff4106" stroke="none" /><line stroke="#e1ed5e" stroke-width="0.3" x1="143.8653032363475" x2="146.44561519142675" y1="172.8068346515853" y2="177.08958963109032" /><path d="M 144.38136562736335 173.6633856474863 a86.0,86.0 0 0,1 -40.68145358897372,12.25698825130547" fill="none" id="id78" stroke="none" /><text fill="#e1ed5e" style="font-size:6.75px; font-family:Arial;" text-anchor="middle"><textPath startOffset="21.466115282336833" xlink:href="#id78">June</textPath></text><path d="M 110.8373102113329 117.98757091392108 l 2.4236791675269456 4.0227787198427105 a25.696484785019905,25.696484785019905 0 0,0 -0.380836746034692,0.22500506234768586 l -2.3540745504638716 -4.063902354484146" fill="#ff3b05" stroke="none" /><path d="M 110.21172684928248 118.3499491758327 l 2.4807000078392707 4.457690627274938 a26.101458444149927,26.101458444149927 0 0,0 -0.39447654700626755,0.21510006602209625 l -2.4036006489643547 -4.499731345056805" fill="#ff4006" stroke="none" /><path d="M 109.57404056367764 118.69057910512821 l 2.125440257218208 4.149314910099076 a25.66200713321787,25.66200713321787 0 0,0 -0.39488463457697526,0.19800335344743725 l -2.053701714958472 -4.185286104455814" fill="#ff3a05" stroke="none" /><path d="M 108.92500713936063 119.00905698771935 l 2.9881610096138 6.364378429427106 a28.030961457178755,28.030961457178755 0 0,0 -0.438527045147293,0.20130625803379865 l -2.8781659686990873 -6.4148717577949785" fill="#ff5b08" stroke="none" /><path d="M 108.59647513512805 119.15986991738527 l 2.2676328973961635 5.054112371820033 a26.539513590951614,26.539513590951614 0 0,0 -0.4184135359335064,0.18342019811288846 l -2.1802986868049032 -5.092397123227377" fill="#ff4706" stroke="none" /><path d="M 108.2653958097858 119.30500536409082 l 1.8314690885316234 4.2776560726116974 a25.653237636076476,25.653237636076476 0 0,0 -0.40743270990120894,0.1703069057824765 l -1.7575649191329532 -4.308548021414147" fill="#ff3a05" stroke="none" /><path d="M 107.2578585660854 119.70592522655815 l 1.6115983743390336 4.375675933996144 a25.66302361129828,25.66302361129828 0 0,0 -0.4158392833343842,0.1491051721506698 l -1.5360395303749146 -4.4027686471867735" fill="#ff3a05" stroke="none" /><path d="M 106.91757812671514 119.82793768551818 l 1.5195288210465712 4.355443801740965 a25.612901315670538,25.612901315670538 0 0,0 -0.41752720703075935,0.141647897889291 l -1.4443318810785848 -4.380954686528379" fill="#ff3a05" stroke="none" /><path d="M 106.57524785965236 119.94407469862006 l 1.4764858902616078 4.478484388023196 a25.715594660051806,25.715594660051806 0 0,0 -0.4215871590356777,0.13497889503954102 l -1.3991773861349897 -4.503236129722443" fill="#ff3b05" stroke="none" /><path d="M 105.88484417918355 120.15858648285463 l 1.3134258533440784 4.499152033134558 a25.686945326061682,25.686945326061682 0 0,0 -0.42550893645418736,0.1202530757358387 l -1.2357857487852852 -4.521093902208916" fill="#ff3b05" stroke="none" /><path d="M 105.53697534728816 120.25689768951611 l 1.2328282468910439 4.510273949160445 a25.675728454776625,25.675728454776625 0 0,0 -0.4273291658438673,0.11286151663371453 l -1.155008638235679 -4.530826815097743" fill="#ff3b05" stroke="none" /><path d="M 105.18746579009965 120.34920634021253 l 1.1598404137266585 4.549780732180565 a25.69528854238322,25.69528854238322 0 0,0 -0.42953555430376344,0.1055693886997499 l -1.081351574679684 -4.569071379194345" fill="#ff3b05" stroke="none" /><path d="M 104.83641907484287 120.43548508189849 l 0.977332757083906 4.129557151349169 a25.24363306428917,25.24363306428917 0 0,0 -0.42370819101343116,0.09643460479922118 l -0.9061044166776128 -4.145768489726074" fill="#ff3405" stroke="none" /><path d="M 104.48393922423573 120.51570834832081 l 0.9983351309532855 4.567758695260033 a25.675584726194057,25.675584726194057 0 0,0 -0.43258290994861437,0.09065195470458366 l -0.9195607595752932 -4.5842666306911575" fill="#ff3b05" stroke="none" /><path d="M 104.13013068566511 120.58985236759428 l 1.179897152399299 5.8821160940901835 a26.999287210543827,26.999287210543827 0 0,0 -0.45645815920109756,0.08748129259046547 l -1.078471378626497 -5.901554585029117" fill="#ff4d07" stroke="none" /><path d="M 103.7750983002368 120.6578951692458 l 0.908687189477024 4.972470438895705 a26.054816977301087,26.054816977301087 0 0,0 -0.44187856497967987,0.07682625255283354 l -0.8229596530252943 -4.987375269969545" fill="#ff4006" stroke="none" /><path d="M 103.41894727170886 120.7198165907248 l 1.116530256490956 6.766498659958721 a27.857998536663807,27.857998536663807 0 0,0 -0.47380371375917724,0.07399839582366466 l -0.9998906791232618 -6.784715363129491" fill="#ff5908" stroke="none" /><path d="M 102.70371172650421 120.8252237178851 l 0.8909275719729373 6.862331446391984 a27.91992375815239,27.91992375815239 0 0,0 -0.4771283327284352,0.05777359642566787 l -0.7726718161931219 -6.876650571543003" fill="#ff5a08" stroke="none" /><path d="M 102.34483914955558 120.86867818915974 l 0.5722666898031058 5.093078299268477 a26.12512787418399,26.12512787418399 0 0,0 -0.44732116157461566,0.046366667383090816 l -0.48451293162288755 -5.102174335107326" fill="#ff4106" stroke="none" /><path d="M 101.98527174616119 120.90594882070398 l 0.4691352182796625 4.940238978522235 a25.96246400671488,25.96246400671488 0 0,0 -0.4452632827356698,0.03841918960461682 l -0.38402761780245104 -4.947582420405515" fill="#ff3f05" stroke="none" /><path d="M 101.62511606390274 120.93702456842531 l 0.43396678421882445 5.590968808252378 a26.60778560437685,26.60778560437685 0 0,0 -0.45694087343564704,0.03151331793983849 l -0.33766315000424707 -5.597610470708501" fill="#ff4806" stroke="none" /><path d="M 101.26447882468166 120.96189622390904 l 0.3114037584995941 5.162295439029651 a26.171679272792737,26.171679272792737 0 0,0 -0.4499184993873241,0.02325564726609466 l -0.22249719069879045 -5.166890893057948" fill="#ff4106" stroke="none" /><line stroke="#e1ed5e" stroke-width="0.3" x1="102.19456741930631" x2="102.32365962044197" y1="184.97166512339345" y2="189.96999836594603" /><path d="M 102.22038585953345 185.97133177190398 a86.0,86.0 0 0,1 -42.740103519485714,-10.115201625700543" fill="none" id="id79" stroke="none" /><text fill="#e1ed5e" style="font-size:6.75px; font-family:Arial;" text-anchor="middle"><textPath startOffset="22.20632615414155" xlink:href="#id79">July</textPath></text><path d="M 100.54218724476979 120.99299961872073 l 0.12616340643641663 4.884932961380788 a25.88656190406999,25.88656190406999 0 0,0 -0.4455450934390336,0.007670462838691213 l -0.042058623104715115 -4.886380901498639" fill="#ff3d05" stroke="none" /><path d="M 100.18074693466247 120.99922214144158 l 0.03707061020459206 4.306872368589542 a25.30703190485757,25.30703190485757 0 0,0 -0.43563508973409204,0.0 l 0.0370706102045891 -4.306872368589542" fill="#ff3505" stroke="none" /><path d="M 99.81925306533755 120.99922214144158 l -0.04096002683693077 4.758745724094525 a25.758921998770983,25.758921998770983 0 0,0 -0.4433482264412553,-0.007632641781033643 l 0.12286794317085403 -4.757335605034332" fill="#ff3c05" stroke="none" /><path d="M 99.45781275523022 120.99299961872073 l -0.1221818719226512 4.7307715469697555 a25.732349082585216,25.732349082585216 0 0,0 -0.44269400129246234,-0.015247276504987072 l 0.20359622488975657 -4.727967472038674" fill="#ff3b05" stroke="none" /><path d="M 99.09653310690486 120.98055641714683 l -0.12765037703442889 2.964332127175003 a23.96707930109037,23.96707930109037 0 0,0 -0.41201912347493913,-0.021296682433522736 l 0.17865756892285695 -2.9616956379792785" fill="#ff2203" stroke="none" /><path d="M 98.73552117531835 120.96189622390904 l -0.3886262765554737 6.442451640968347 a27.454162496330962,27.454162496330962 0 0,0 -0.4714758746573065,-0.03251573672393658 l 0.4994649119917102 -6.434807559728125" fill="#ff5307" stroke="none" /><path d="M 98.37488393609728 120.93702456842531 l -0.09533939962425585 1.2282958716673265 a22.231990401535544,22.231990401535544 0 0,0 -0.3812846510013586,-0.03289884405053786 l 0.11646836836715613 -1.2264727753381253" fill="#ff0a01" stroke="none" /><path d="M 98.01472825383883 120.90594882070398 l -0.6477028936094196 6.820649903975953 a27.85133447957383,27.85133447957383 0 0,0 -0.4768777152328319,-0.049430325019217285 l 0.7650132054478448 -6.808490210500975" fill="#ff5908" stroke="none" /><path d="M 97.65516085044442 120.86867818915974 l -0.5381715369721072 4.789637113387919 a25.819777202438914,25.819777202438914 0 0,0 -0.4412385705180115,-0.05342784603625148 l 0.6205375305415081 -4.779663738626319" fill="#ff3d05" stroke="none" /><path d="M 97.2962882734958 120.8252237178851 l -0.6474348362180868 4.986839083036036 a26.028691271816598,26.028691271816598 0 0,0 -0.44381572158392396,-0.06150881495346385 l 0.7331791489888418 -4.974955702589967" fill="#ff3f05" stroke="none" /><path d="M 96.93821686468263 120.77559828337769 l -0.6828798054677148 4.633651662189915 a25.683700732885374,25.683700732885374 0 0,0 -0.4368236567427762,-0.06822287145098696 l 0.7625393258190081 -4.621210483391822" fill="#ff3b05" stroke="none" /><path d="M 96.58105272829116 120.7198165907248 l -0.7545140379952059 4.57257490097939 a25.634407476538776,25.634407476538776 0 0,0 -0.4347485994511361,-0.07558661665328704 l 0.833111608918392 -4.558909705805097" fill="#ff3a05" stroke="none" /><path d="M 96.22490169976321 120.6578951692458 l -1.106413888638743 6.05446012461797 a27.154724940528354,27.154724940528354 0 0,0 -0.4590860367278699,-0.0879849315728703 l 1.2104675399383078 -6.034517994696631" fill="#ff4f07" stroke="none" /><path d="M 95.86986931433489 120.58985236759428 l -0.1121732367181724 0.5592148431619037 a21.570354342359575,21.570354342359575 0 0,0 -0.3634178831581201,-0.07615775086167831 l 0.1217825813056793 -0.5572011115736842" fill="#ff0000" stroke="none" /><path d="M 95.51606077576429 120.51570834832081 l -1.007269811452653 4.60863821885388 a25.717429247518666,25.717429247518666 0 0,0 -0.4316607437697621,-0.09824457991527052 l 1.0864507046152778 -4.590616905360923" fill="#ff3b05" stroke="none" /><path d="M 95.16358092515715 120.4354850818985 l -1.1840880956765925 5.003167475853786 a26.14137621748926,26.14137621748926 0 0,0 -0.43699258349721715,-0.10740214504688175 l 1.2700339639170202 -4.982044072492875" fill="#ff4106" stroke="none" /><path d="M 94.81253420990036 120.34920634021253 l -2.3327133022036173 9.150684792889628 a30.443335402764173,30.443335402764173 0 0,0 -0.5066779369505438,-0.13381824827274594 l 2.48988168196565 -9.1091751953133" fill="#ff7c0b" stroke="none" /><path d="M 94.46302465271185 120.25689768951611 l -1.2451588803637224 4.555385289745578 a25.722494655939702,25.722494655939702 0 0,0 -0.42609781759033594,-0.12041949942708895 l 1.3233878660586722 -4.533276996979968" fill="#ff3b05" stroke="none" /><path d="M 94.11515582081647 120.15858648285463 l -1.3060561712726984 4.473907121143091 a25.660646698810623,25.660646698810623 0 0,0 -0.4229424759288404,-0.12742909854732606 l 1.3828736216417847 -4.450762653490039" fill="#ff3a05" stroke="none" /><path d="M 93.76903079525671 120.05430185196036 l -1.3986892135921847 4.501664952076158 a25.713949390582165,25.713949390582165 0 0,0 -0.42156018612329815,-0.13497025916477356 l 1.4759707448064232 -4.476921846251678" fill="#ff3b05" stroke="none" /><path d="M 93.42475214034765 119.94407469862007 l -1.4721089378579653 4.465208194098075 a25.70161556718134,25.70161556718134 0 0,0 -0.41897337719323535,-0.14213851732691163 l 1.5487520479884265 -4.43920668987304" fill="#ff3b05" stroke="none" /><path d="M 93.08242187328487 119.8279376855182 l -0.9271104429507944 2.6573878536230864 a23.814470461385575,23.814470461385575 0 0,0 -0.38588564152241334,-0.13836486189642594 l 0.9727156451029343 -2.6410354506867026" fill="#ff2003" stroke="none" /><path d="M 92.7421414339146 119.70592522655815 l -1.6302133740321056 4.4262178105984535 a25.71688453873233,25.71688453873233 0 0,0 -0.4140783091340407,-0.15656898524202842 l 1.7061619039264293 -4.397500575249792" fill="#ff3b05" stroke="none" /><path d="M 92.40401165467489 119.57807347666478 l -2.3203410873205 5.980499999903653 a27.414854870560617,27.414854870560617 0 0,0 -0.43847961687583453,-0.1744800887428639 l 2.422941780238193 -5.939673066754723" fill="#ff5307" stroke="none" /><path d="M 92.06813273071674 119.44442032107085 l -1.7828301410234264 4.370483953681442 a25.720128525912042,25.720128525912042 0 0,0 -0.40849509184691096,-0.1707509815219423 l 1.8577966923677998 -4.339147929139527" fill="#ff3b05" stroke="none" /><path d="M 91.7346041902142 119.30500536409082 l -1.8515791731331117 4.324626030256611 a25.704331592899607,25.704331592899607 0 0,0 -0.40524632200718363,-0.17764807847633377 l 1.9257461697980387 -4.292113398485824" fill="#ff3b05" stroke="none" /><path d="M 91.40352486487194 119.15986991738527 l -1.965519924392476 4.380761356186696 a25.80149337529924,25.80149337529924 0 0,0 -0.4036483967038433,-0.18529518122308813 l 2.0406363168637385 -4.3462791046295335" fill="#ff3c05" stroke="none" /><path d="M 91.07499286063937 119.00905698771935 l -2.0058351840235233 4.272157402868717 a25.719608422353772,25.719608422353772 0 0,0 -0.399128312801875,-0.19160584513252785 l 2.0790761648256404 -4.236997281236627" fill="#ff3b05" stroke="none" /><path d="M 90.42595943632237 118.69057910512821 l -2.5665601904292146 5.010475561309246 a26.629573390726268,26.629573390726268 0 0,0 -0.4061759342327609,-0.21249205173039568 l 2.652427027188471 -4.965554090634133" fill="#ff4806" stroke="none" /><path d="M 90.10565033884886 118.52300852407294 l -1.631576169999167 3.0544401946123223 a24.46289556599279,24.46289556599279 0 0,0 -0.36971261944218536,-0.2015967982247441 l 1.683911601309993 -3.025902744627812" fill="#ff2904" stroke="none" /><line stroke="#e1ed5e" stroke-width="0.3" x1="58.666819895761336" x2="56.23545636021788" y1="174.27360380694188" y2="178.64263932499728" /><path d="M 58.180547188652646 175.14741091055294 a86.0,86.0 0 0,1 -31.652253787137756,-30.449443065178592" fill="none" id="id80" stroke="none" /><text fill="#e1ed5e" style="font-size:6.75px; font-family:Arial;" text-anchor="middle"><textPath startOffset="22.20632615414155" xlink:href="#id80">August</textPath></text><path d="M 89.7882731507175 118.34994917583269 l -3.1585187045794507 5.6756960458673245 a27.495364963745473,27.495364963745473 0 0,0 -0.4115810419192774,-0.23370645720712996 l 3.255748513419935 -5.620486422865561" fill="#ff5407" stroke="none" /><path d="M 89.4739219176387 118.17145234162733 l -2.3755521702198323 4.10097974843404 a25.739333604052607,25.739333604052607 0 0,0 -0.38147179028095235,-0.22538025768193634 l 2.4457918315291667 -4.059480918458354" fill="#ff3b05" stroke="none" /><path d="M 89.1626897886671 117.98757091392108 l -0.7831434017636302 1.299847213034618 a22.517536281266374,22.517536281266374 0 0,0 -0.3302795019480445,-0.20288464585838245 l 0.8054021036439833 -1.2861741003478573" fill="#ff0e01" stroke="none" /><path d="M 88.8546689885994 117.79835938074946 l -3.641343815797077 5.814986185348072 a27.86100933687111,27.86100933687111 0 0,0 -0.40427412182310496,-0.25802687211555725 l 3.7408997396671055 -5.751444884408711" fill="#ff5908" stroke="none" /><path d="M 88.54995079064634 117.60387380957326 l -0.6825994446532795 1.049462257013253 a22.25192373199661,22.25192373199661 0 0,0 -0.3192889343885367,-0.21160729541927514 l 0.7005630777817781 -1.0375569405026595" fill="#ff0a01" stroke="none" /><path d="M 88.24862548938628 117.40417183066458 l -3.312926018450846 4.906552304610941 a26.920281608303064,26.920281608303064 0 0,0 -0.38181050195457594,-0.26261274477838814 l 3.3968934050283126 -4.848798770467452" fill="#ff4c07" stroke="none" /><path d="M 87.95078237400918 117.19931262002967 l -3.6505361355614094 5.210853864138146 a27.36234328454879,27.36234328454879 0 0,0 -0.3834280892695351,-0.2735657610466338 l 3.7396915526798313 -5.147243841247293" fill="#ff5207" stroke="none" /><path d="M 87.65650970185807 116.9893568818739 l -3.469372128600552 4.7751810731923925 a26.902448411336195,26.902448411336195 0 0,0 -0.37229789718445316,-0.2754170839513786 l 3.5510549962035696 -4.714754040501248" fill="#ff4c07" stroke="none" /><path d="M 87.36589467227662 116.77436683061367 l -2.587248920195013 3.43510374052586 a25.30044121959887,25.30044121959887 0 0,0 -0.34561760677819653,-0.2650048429867136 l 2.645995255466696 -3.3900595557117796" fill="#ff3505" stroke="none" /><path d="M 86.79598089348748 116.32954008644616 l -3.485715471571664 4.310818551822662 a26.54376847780393,26.54376847780393 0 0,0 -0.3528170801499501,-0.29034443729887927 l 3.559402680266303 -4.250178995666602" fill="#ff4706" stroke="none" /><path d="M 86.51685102203217 116.09983520530335 l -2.998602846584121 3.5805442597307935 a25.670322925391083,25.670322925391083 0 0,0 -0.3363234316281207,-0.2866221248145153 l 3.0597917547892983 -3.5283977446933266" fill="#ff3a05" stroke="none" /><path d="M 86.24171649860922 115.8653595955263 l -3.0905199578753457 3.5638319608610067 a25.717225016392607,25.717225016392607 0 0,0 -0.33194526203405816,-0.29290309913123247 l 3.1514075728159914 -3.5101057199574854" fill="#ff3b05" stroke="none" /><path d="M 85.97065885151581 115.62618273729859 l -4.309859307505268 4.800414245996217 a27.451268416649025,27.451268416649025 0 0,0 -0.34889313848142517,-0.3187056098263097 l 4.391851995453548 -4.725515869583332" fill="#ff5307" stroke="none" /><path d="M 85.70375840098266 115.38237550388516 l -2.959435048769989 3.184273354940206 a25.347166043167707,25.347166043167707 0 0,0 -0.3170377247279078,-0.29977895722726455 l 3.013808607888714 -3.13285976096701" fill="#ff3605" stroke="none" /><path d="M 85.44109423537348 115.13401014063109 l -3.2774493859744385 3.4069148495525488 a25.727445744768087,25.727445744768087 0 0,0 -0.31650889682904787,-0.3097705718395135 l 3.3356082351792806 -3.3499941747904654" fill="#ff3b05" stroke="none" /><path d="M 84.9287848128048 114.62390073753433 l -3.3658687174582647 3.2659695590772095 a25.689949827448384,25.689949827448384 0 0,0 -0.30521305606436444,-0.3200146690577679 l 3.4215883249015864 -3.2075477734369415" fill="#ff3b05" stroke="none" /><path d="M 84.67929136418377 114.36230785411682 l -0.5326224765036872 0.4993037958887149 a21.7300623145087,21.7300623145087 0 0,0 -0.25346937230550237,-0.2750909428286066 l 0.5411382568049186 -0.4900615982587642" fill="#ff0200" stroke="none" /><path d="M 84.43433777217949 114.09645910891817 l -5.647189060067088 5.114165301832585 a28.6187552142466,28.6187552142466 0 0,0 -0.3275364071345069,-0.3679906256052339 l 5.734384316849933 -5.016200506486488" fill="#ff6309" stroke="none" /><path d="M 84.19399662182784 113.82643327865904 l -3.8680534558770328 3.383612020469843 a26.1391310396399,26.1391310396399 0 0,0 -0.2933277153715285,-0.3412064012372844 l 3.92572368081934 -3.316528520071028" fill="#ff4106" stroke="none" /><path d="M 83.95833913139862 113.55231037782056 l -4.663417855721821 3.939747057358328 a27.10484012673786,27.10484012673786 0 0,0 -0.29802933369095036,-0.35899553138015955 l 4.730543189306308 -3.8588902688644073" fill="#ff4e07" stroke="none" /><path d="M 83.72743513129214 113.27417163493432 l -1.9891774138819485 1.6226503084943904 a23.56706462862839,23.56706462862839 0 0,0 -0.2537186275227781,-0.3165529988570656 l 2.0168139534595872 -1.588169476059065" fill="#ff1d02" stroke="none" /><path d="M 83.50135304334701 112.99209946851258 l -4.029172841318978 3.172830745925915 a26.12845870876575,26.12845870876575 0 0,0 -0.27521128299896064,-0.35574768213044544 l 4.0831909415360075 -3.103005069682217" fill="#ff4106" stroke="none" /><path d="M 83.28015986056508 112.70617746262583 l -3.7440208240855815 2.8452540585239006 a25.702463459585115,25.702463459585115 0 0,0 -0.26466038768174033,-0.3545558394821163 l 3.792442478462407 -2.7803853395324762" fill="#ff3b05" stroke="none" /><path d="M 82.85270091963577 112.12312394758628 l -7.615226497193846 5.38395780476836 a30.326235909898987,30.326235909898987 0 0,0 -0.2976867980787475,-0.4288400351629761 l 7.706774202434727 -5.252076507418371" fill="#ff7a0b" stroke="none" /><path d="M 82.6465618267979 111.8261652097733 l -3.849830779957678 2.623614662353035 a25.65881432671698,25.65881432671698 0 0,0 -0.24558771421489398,-0.3671203109726322 l 3.8944215995833025 -2.5569574371745816" fill="#ff3a05" stroke="none" /><path d="M 82.24976979558568 111.22182372390057 l -3.6503538974602154 2.3077800961119173 a25.318672544742576,25.318672544742576 0 0,0 -0.22971916173531232,-0.3703804328907848 l 3.6895376988634836 -2.2446033318558682" fill="#ff3605" stroke="none" /><path d="M 82.05923443525364 110.91462005526583 l -4.353784271310164 2.64871088986969 a26.09618552048707,26.09618552048707 0 0,0 -0.23016726808195695,-0.3857735805018853 l 4.398732415090352 -2.573375215481694" fill="#ff4006" stroke="none" /><line stroke="#e1ed5e" stroke-width="0.3" x1="26.63291911575756" x2="22.317208475507996" y1="142.92168965132927" y2="145.44649492493687" /><path d="M 25.769776987707644 143.4266507060508 a86.0,86.0 0 0,1 -11.730757126820373,-40.83630448921669" fill="none" id="id81" stroke="none" /><text fill="#e1ed5e" style="font-size:6.75px; font-family:Arial;" text-anchor="middle"><textPath startOffset="21.46611528233685" xlink:href="#id81">September</textPath></text><path d="M 81.87401531095188 110.60418214915194 l -4.040870562377788 2.3640165331536713 a25.681581898345396,25.681581898345396 0 0,0 -0.2199419638126982,-0.38348735287074587 l 4.080964522342863 -2.294109334424619" fill="#ff3b05" stroke="none" /><path d="M 81.69416730710424 110.29060199501025 l -4.009911528293501 2.2541669786420506 a25.600071655131185,25.600071655131185 0 0,0 -0.21263125792316373,-0.3859874960544183 l 4.048119195668182 -2.1848089641898096" fill="#ff3905" stroke="none" /><path d="M 81.51974371655577 109.97397251340807 l -12.475683539111898 6.73324670375668 a35.17671650777139,35.17671650777139 0 0,0 -0.2830008582320105,-0.5353309721169398 l 12.589736905568795 -6.517500716553614" fill="#ffba11" stroke="none" /><path d="M 81.18737489456691 109.33194174019688 l -4.182947828751594 2.0749377198251615 a25.6693060597064,25.6693060597064 0 0,0 -0.19294363649927218,-0.3975210392058934 l 4.218044721865585 -2.0026277246539834" fill="#ff3a05" stroke="none" /><path d="M 81.02952815118164 109.00673069616217 l -4.778775132891222 2.268849242257975 a26.290025392645493,26.290025392645493 0 0,0 -0.19057186612791172,-0.41047484557040625 l 4.8171216158589605 -2.1862543294087415" fill="#ff4306" stroke="none" /><path d="M 80.87730276802145 108.67885076344099 l -5.64905642936145 2.5638285807661787 a27.203632446693103,27.203632446693103 0 0,0 -0.18985404108363332,-0.4280707426405243 l 5.692351555176364 -2.4662095016329584" fill="#ff5007" stroke="none" /><path d="M 80.73074385275274 108.34839909993369 l -6.519709527045484 2.8246620799210858 a28.105302821329417,28.105302821329417 0 0,0 -0.1885049678893974,-0.4455700606232067 l 6.567365476127188 -2.7120174936317203" fill="#ff5c08" stroke="none" /><path d="M 80.45479744820244 107.68017299344265 l -8.906917935463175 3.4999212927810217 a30.56988172156467,30.56988172156467 0 0,0 -0.18823145613086373,-0.49141293494752597 l 8.965843671187548 -3.346084791000338" fill="#ff7d0b" stroke="none" /><path d="M 80.32549172779594 107.34259656027581 l -4.3780505547910735 1.6339040599931254 a25.673004294623368,25.673004294623368 0 0,0 -0.15095205607117468,-0.4153552269795098 l 4.4055268718674725 -1.5583010360074985" fill="#ff3a05" stroke="none" /><path d="M 80.0844068197444 106.66101706037122 l -4.307912140173821 1.4408346264436924 a25.542478555614338,25.542478555614338 0 0,0 -0.13587108490063815,-0.418168201176837 l 4.332075476090708 -1.3664675252890521" fill="#ff3905" stroke="none" /><path d="M 79.97269907076064 106.31721596034903 l -5.187482711317802 1.636288818635937 a26.439431769791224,26.439431769791224 0 0,0 -0.1331706681616558,-0.43520944875558576 l 5.2148801519855885 -1.5467523973283035" fill="#ff4506" stroke="none" /><path d="M 79.86692584326677 105.97154293290107 l -11.826056497067615 3.5076513178954922 a33.335283946459,33.335283946459 0 0,0 -0.1584336566356695,-0.5515283432918491 l 11.88468279058939 -3.3035654990990473" fill="#ffa20f" stroke="none" /><path d="M 79.76711848015287 105.62410040840567 l -4.42385728470206 1.2296922480970103 a25.591585379848812,25.591585379848812 0 0,0 -0.11432361209272983,-0.42544069002464474 l 4.444368973136564 -1.1533606248968267" fill="#ff3905" stroke="none" /><path d="M 79.67330655649465 105.27499134158121 l -4.055519067864449 1.0524499731380448 a25.189855111548656,25.189855111548656 0 0,0 -0.10530401301622659,-0.42063718653492477 l 4.073034395175734 -0.9824849472057282" fill="#ff3404" stroke="none" /><path d="M 79.58551787078972 104.9243191809786 l -11.268188459768728 2.7180780886880815 a32.59137695276413,32.59137695276413 0 0,0 -0.1268571765553756,-0.5464973964397889 l 11.31330620225466 -2.5237120348997184" fill="#ff980e" stroke="none" /><path d="M 79.4281124754447 104.21870165774334 l -5.168313476967919 1.0598722458985028 a26.275868968599784,26.275868968599784 0 0,0 -0.08704828406038538,-0.44385732504627945 l 5.185791694003971 -0.9707511937842686" fill="#ff4306" stroke="none" /><path d="M 79.35854240842038 103.8639653848113 l -4.603874246903485 0.8618195031593157 a25.683843607266034,25.683843607266034 0 0,0 -0.07760625006118642,-0.4352570642346 l 4.61802693930386 -0.782443688191502" fill="#ff3b05" stroke="none" /><path d="M 79.29508885075956 103.50808413554451 l -4.721964194355188 0.8000540335298342 a25.789262188410632,25.789262188410632 0 0,0 -0.07039025071220938,-0.43832015837767624 l 4.735036199428688 -0.7186546454589442" fill="#ff3c05" stroke="none" /><path d="M 79.23777060512086 103.15116336523772 l -4.662689078716657 0.7076742448462617 a25.716086543056893,25.716086543056893 0 0,0 -0.06265657010070351,-0.43821990535127603 l 4.674179699833959 -0.6273088675145851" fill="#ff3b05" stroke="none" /><path d="M 79.18660465613746 102.79330883721812 l -9.370528525482005 1.2575929927430998 a30.45454097152625,30.45454097152625 0 0,0 -0.06525754191898614,-0.5201668165625314 l 9.39078757664784 -1.0961084218931598" fill="#ff7c0b" stroke="none" /><path d="M 79.10278846688536 102.07522291339032 l -1.2362482886890964 0.12276713432611747 a22.242329103159612,22.242329103159612 0 0,0 -0.03455547460613043,-0.3813167828173971 l 1.2381783595723022 -0.1014689629601542" fill="#ff0a01" stroke="none" /><path d="M 79.07016306316243 101.71520430193888 l -6.22228521888607 0.5099175119009156 a27.24314417694412,27.24314417694412 0 0,0 -0.03427893437897796,-0.46770882486096205 l 6.230140711929383 -0.4027355505431929" fill="#ff5007" stroke="none" /><path d="M 79.04373962182676 101.35467743843564 l -5.063624536885152 0.32732833974385794 a26.074193265194463,26.074193265194463 0 0,0 -0.025097837788253655,-0.44813875348308235 l 5.068508725560938 -0.240117869925338" fill="#ff4006" stroke="none" /><path d="M 79.0235259727143 100.99374915477108 l -4.702278791524838 0.2227679241276393 a25.707552589323292,25.707552589323292 0 0,0 -0.01713575742219594,-0.44219775804037215 l 4.705416681798235 -0.14179291907327035" fill="#ff3b05" stroke="none" /><path d="M 79.0095281055655 100.63252640178507 l -5.215122055155559 0.15715236918004524 a26.217489330828464,26.217489330828464 0 0,0 -0.009710380408174743,-0.45120322136071656 l 5.217054498248742 -0.06735933202919986" fill="#ff4206" stroke="none" /><line stroke="#e1ed5e" stroke-width="0.3" x1="15.007084014347285" x2="10.007500721073583" y1="101.09737516637583" y2="101.16192664675087" /><path d="M 14.007167355692545 101.11028546245083 a86.0,86.0 0 0,1 10.666146001902534,-42.60595125391555" fill="none" id="id82" stroke="none" /><text fill="#e1ed5e" style="font-size:6.75px; font-family:Arial;" text-anchor="middle"><textPath startOffset="22.20632615414155" xlink:href="#id82">October</textPath></text><path d="M 79.00175016825051 100.2711162175752 l -1.4090474721628514 0.018192736256480057 a22.40916491386247,22.40916491386247 0 0,0 -0.0016600951712604675,-0.38574765322533494 l 1.409151864623615 0.00606439517253026" fill="#ff0c01" stroke="none" /><path d="M 79.00019446554 99.90962569577889 l -17.974749280883874 -0.07735573823020805 a38.974915733345526,38.974915733345526 0 0,0 0.008661697824531417,-0.6708580420358504 l 17.970754575941626 0.3867500383265304" fill="#ffe915" stroke="none" /><path d="M 79.01574976396665 99.18683210126434 l -4.922227048148852 -0.1907429134146473 a25.92592143385845,25.92592143385845 0 0,0 0.02111899852167205,-0.4457886800157503 l 4.9182144413936815 0.2754427000534067" fill="#ff3e05" stroke="none" /><path d="M 79.03285615573316 98.82574320788736 l -4.909103946730504 -0.27493247031886575 a25.916796662771468,25.916796662771468 0 0,0 0.028779256249267974,-0.44520235617583814 l 4.903644099476822 0.35939389074771566" fill="#ff3e05" stroke="none" /><path d="M 79.05617556472873 98.46500227214037 l -62.831473305813795 -4.604993183578899 a84.0,84.0 0 0,0 0.11810206472201168,-1.4411443311688865 l 62.742896757272284 5.685851431955563" fill="#4dd2ff" stroke="none" /><path d="M 79.12142395522702 97.74499172005258 l -4.633604145215361 -0.5004563381646535 a25.66055189016989,25.66055189016989 0 0,0 0.0512106986404814,-0.43874199210501447 l 4.6243030935712905 0.5801420685945298" fill="#ff3a05" stroke="none" /><path d="M 79.21141760316559 97.0276538004421 l -2.080533342558719 -0.297474125736904 a23.101692138487817,23.101692138487817 0 0,0 0.05967288809964606,-0.3931697750257226 l 2.0751045610197707 0.33324301315471866" fill="#ff1602" stroke="none" /><path d="M 79.26566170972629 96.67025291283419 l -11.755220956991996 -1.8877821029328774 a32.90583642655389,32.90583642655389 0 0,0 0.09462486699617266,-0.5584813214180246 l 11.7209842284756 2.08984921266673" fill="#ff9c0e" stroke="none" /><path d="M 79.32604984820605 96.31383870115002 l -4.392240295900068 -0.7831355921399148 a25.461510525887466,25.461510525887466 0 0,0 0.08064542575194492,-0.4308110890840608 l 4.378109146238262 0.8586247586865483" fill="#ff3805" stroke="none" /><path d="M 79.3925641242962 95.95851677861259 l -4.586599908561182 -0.8995134904445734 a25.67397296105842,25.67397296105842 0 0,0 0.08878390443292639,-0.4329418489768267 l 4.570436708213261 0.9783309955848025" fill="#ff3b05" stroke="none" /><path d="M 79.46518482838121 95.60439243477599 l -1.953396666413535 -0.4181369587702899 a22.997647880044223,22.997647880044223 0 0,0 0.08619257018619864,-0.3863843914801287 l 1.9459097092252986 0.4516995198003778" fill="#ff1502" stroke="none" /><path d="M 79.54389044137918 95.25157060432595 l -6.239035614250544 -1.4482529058845128 a27.404920130281845,27.404920130281845 0 0,0 0.11062087326285806,-0.4585949361417013 l 6.213181940726871 1.555433073685611" fill="#ff5307" stroke="none" /><path d="M 79.62865764111835 94.90015583598534 l -4.848224073967143 -1.213724005707302 a25.99783979669464,25.99783979669464 0 0,0 0.11241424842799888,-0.43317795585102165 l 4.8266134936688365 1.2969983871071875" fill="#ff3f05" stroke="none" /><path d="M 79.81627453868168 94.20196356495316 l -4.848588767464062 -1.3928198927493407 a26.044676430616434,26.044676430616434 0 0,0 0.12748757850957557,-0.4298247372641283 l 4.82389529184278 1.4760740167600082" fill="#ff4006" stroke="none" /><path d="M 79.91906864156998 93.8553929516997 l -6.295664391382103 -1.9264237849595522 a27.58380579362533,27.58380579362533 0 0,0 0.14283750556474298,-0.45283392650849696 l 6.261571402049157 2.034507877894464" fill="#ff5507" stroke="none" /><path d="M 80.02781315780177 93.51064311812611 l -4.659396060826108 -1.5139295527124181 a25.89917894572324,25.89917894572324 0 0,0 0.14141285461932196,-0.4228064359438963 l 4.632645912435013 1.5939090915786365" fill="#ff3e05" stroke="none" /><path d="M 80.14247586403 93.16781622104843 l -5.993029140352552 -2.0619628206988794 a27.337829987547735,27.337829987547735 0 0,0 0.15692815154019438,-0.44365701657628753 l 5.956647908002548 2.164817463701778" fill="#ff5207" stroke="none" /><path d="M 80.2630227832202 92.82701384747504 l -5.78465561004418 -2.1023105074416537 a27.154831435264104,27.154831435264104 0 0,0 0.16344029016329262,-0.4379387202377273 l 5.74761073137926 2.2015723647087224" fill="#ff4f07" stroke="none" /><path d="M 80.38941819471856 92.48833698450439 l -9.516842887391073 -3.6453440010762654 a31.191115318230324,31.191115318230324 0 0,0 0.1963650776882875,-0.49972770415379 l 9.452684259821094 3.8086207101258185" fill="#ff860c" stroke="none" /><path d="M 80.65960295795068 91.81776055985345 l -4.30009452569139 -1.819218237762825 a25.669086412403388,25.669086412403388 0 0,0 0.17566124701492283,-0.40545037717498594 l 4.268142568833786 1.8929677595244103" fill="#ff3a05" stroke="none" /><path d="M 80.803312248108 91.48605970444005 l -10.203374592884195 -4.525307866638991 a32.16186652717992,32.16186652717992 0 0,0 0.2288051591092674,-0.5041418388241202 l 10.123967116811576 4.700271714305183" fill="#ff930d" stroke="none" /><path d="M 80.95270993114464 91.15688171328213 l -4.892576818700475 -2.2714850972615106 a26.39415910721647,26.39415910721647 0 0,0 0.19486657619100117,-0.41043870663105037 l 4.852752048667722 2.355366219533093" fill="#ff4506" stroke="none" /><path d="M 81.10775173730289 90.83032412892265 l -5.744447445781186 -2.7881658341457562 a27.385338297697288,27.385338297697288 0 0,0 0.20948478044802388,-0.4223085344486399 l 5.69560265237975 2.8866339570933577" fill="#ff5207" stroke="none" /><path d="M 81.26839172434947 90.50648371742162 l -4.471709063793701 -2.2663426537305433 a26.013231590035826,26.013231590035826 0 0,0 0.20586446206120393,-0.3976646153600307 l 4.432035168572383 2.3429799913509095" fill="#ff3f05" stroke="none" /><path d="M 81.43458229118936 90.18545643968196 l -7.922576900555682 -4.188242748967192 a29.96150668523406,29.96150668523406 0 0,0 0.24495943014601426,-0.4538726211706764 l 7.849309371191196 4.323996353470341" fill="#ff750a" stroke="none" /><path d="M 81.6062741919709 89.86733742301443 l -4.895024622484443 -2.6965517113460575 a26.58861854009489,26.58861854009489 0 0,0 0.22428431442705796,-0.39897676904941015 l 4.847882666764955 2.780411990330252" fill="#ff4706" stroke="none" /><line stroke="#e1ed5e" stroke-width="0.3" x1="26.266209847984243" x2="21.928928074336255" y1="57.711370442889674" y2="55.22380399835377" /><path d="M 25.398753493254645 57.213857153982495 a86.0,86.0 0 0,1 29.58750427330803,-30.492523968695096" fill="none" id="id83" stroke="none" /><text fill="#e1ed5e" style="font-size:6.75px; font-family:Arial;" text-anchor="middle"><textPath startOffset="21.46611528233685" xlink:href="#id83">November</textPath></text><path d="M 81.78341655067845 89.55222093294921 l -0.5600929971857748 -0.321230811907115 a21.64567282737858,21.64567282737858 0 0,0 0.18815276972469178,-0.32161407407590764 l 0.554480552990758 0.33082429833691446" fill="#ff0100" stroke="none" /><path d="M 81.96595687620814 89.24020034530311 l -4.044603139179761 -2.4131648772048613 a25.70979609728892,25.70979609728892 0 0,0 0.23002211980777446,-0.3780958847198954 l 4.00246522108577 2.4824285351318314" fill="#ff3b05" stroke="none" /><path d="M 82.15384107792192 88.93136811851018 l -7.512456639176904 -4.659412561984554 a29.840086548122287,29.840086548122287 0 0,0 0.27448958317758554,-0.43417660177095996 l 7.431139459753355 4.78803681146973" fill="#ff740a" stroke="none" /><path d="M 82.54541684631803 88.32363383020206 l -5.5824528066449774 -3.7344210699327385 a27.716374026658727,27.716374026658727 0 0,0 0.2686845548667665,-0.39426143033428573 l 5.51734378610947 3.82996052353744" fill="#ff5708" stroke="none" /><path d="M 82.7489923806493 88.02491185347247 l -3.4809676361343524 -2.4163744633188764 a25.237452209853743,25.237452209853743 0 0,0 0.25079703735710485,-0.3547346234043727 l 3.438857978973369 2.475935587055035" fill="#ff3405" stroke="none" /><path d="M 82.95767976084542 87.72973835380427 l -3.9553333901657846 -2.8477915515144754 a25.87386693993974,25.87386693993974 0 0,0 0.26334346304345674,-0.3592001876399418 l 3.9057273146086944 2.915454182825918" fill="#ff3d05" stroke="none" /><path d="M 83.17141714833178 87.43820079747576 l -9.176383010652208 -6.849767553293469 a32.45099649342093,32.45099649342093 0 0,0 0.33799112841972545,-0.4447567061256174 l 9.057115942008373 7.006709035300113" fill="#ff960d" stroke="none" /><path d="M 83.6137871275137 86.86637796730984 l -6.634171684889611 -5.317317923753725 a29.502123490450117,29.502123490450117 0 0,0 0.32101331926268256,-0.3935243723739209 l 6.541659873550536 5.430726465735728" fill="#ff6f0a" stroke="none" /><path d="M 83.84228863543731 86.58626213691792 l -4.1795909256883235 -3.469794439765765 a26.432168421572143,26.432168421572143 0 0,0 0.2936354454892178,-0.34757175007204977 l 4.119244866711981 3.5412251394669307" fill="#ff4506" stroke="none" /><path d="M 84.31358615837235 86.03803664274999 l -12.999328814100172 -11.570276954549511 a38.40269687209642,38.40269687209642 0 0,0 0.4437456482623102,-0.4899950280100179 l 12.798239525221817 11.792324769829085" fill="#ffe215" stroke="none" /><path d="M 84.80347519578584 85.50635884689758 l -3.785455428199359 -3.610367059853743 a26.23110151935144,26.23110151935144 0 0,0 0.3144431264215326,-0.3240612821085388 l 3.722748038074708 3.6749925375124053" fill="#ff4206" stroke="none" /><path d="M 85.05521093208273 85.24692304244772 l -3.3957647003067213 -3.3522037497947945 a25.771633669927677,25.771633669927677 0 0,0 0.3143699960684835,-0.3130199913989097 l 3.3375589040709244 3.4101595918438132" fill="#ff3c05" stroke="none" /><path d="M 85.31137513191541 84.99185889309783 l -3.7496842914991118 -3.8312497908111944 a26.36084016227923,26.36084016227923 0 0,0 0.32702097974896355,-0.3145939234201168 l 3.6831800681377205 3.895226800993625" fill="#ff4406" stroke="none" /><path d="M 85.57189188830299 84.74124197986013 l -3.2859951454263614 -3.4751752891819527 a25.7827405727581,25.7827405727581 0 0,0 0.32509840180137334,-0.30214353397061355 l 3.2256888598301323 3.5312234092272137" fill="#ff3c05" stroke="none" /><path d="M 85.83668400450813 84.49514656593479 l -3.4153533160794396 -3.7388527240524434 a26.06395674999394,26.06395674999394 0 0,0 0.33385323740581835,-0.2997367328818183 l 3.35048909107765 3.7970884657035406" fill="#ff4006" stroke="none" /><path d="M 86.10567301691215 84.25364557470407 l -4.448458480228447 -5.041410351228351 a27.72343670898959,27.72343670898959 0 0,0 0.3605448803832734,-0.31266096740012467 l 4.3610198011984 5.117236312048156" fill="#ff5708" stroke="none" /><path d="M 86.65592168130627 83.78471172551755 l -0.8091482692893393 -0.9832505572861161 a22.273382338536777,22.273382338536777 0 0,0 0.2981415275160079,-0.24107638089781558 l 0.7921033432088308 0.997033035448066" fill="#ff0a01" stroke="none" /><path d="M 86.93701828274178 83.55741782278169 l -2.9156409913890604 -3.6699635380216313 a25.68717342980569,25.68717342980569 0 0,0 0.34857181797468667,-0.27206583288380193 l 2.852036618254948 3.719607760128655" fill="#ff3b05" stroke="none" /><path d="M 87.22198572758235 83.33499621200491 l -0.518530083086706 -0.6762635895220669 a21.852177146829916,21.852177146829916 0 0,0 0.3004714380904834,-0.22630885774356188 l 0.5068124912378328 0.6850890367714831" fill="#ff0400" stroke="none" /><path d="M 87.51073957382395 83.11751280151077 l -4.014597609308513 -5.426773918829092 a27.750323631556437,27.750323631556437 0 0,0 0.38646248184509585,-0.28078142853896265 l 3.9205898111096356 5.4950745821847224" fill="#ff5708" stroke="none" /><path d="M 87.80319425747018 82.90503203632743 l -4.1710254903366835 -5.846083690940025 a28.18151433630215,28.18151433630215 0 0,0 0.3973175635407485,-0.2783463441530627 l 4.069776787212274 5.917014877857031" fill="#ff5d08" stroke="none" /><path d="M 88.09926311788651 82.69761687909137 l -3.738841849521246 -5.435871303577175 a27.59754766597296,27.59754766597296 0 0,0 0.3937188441246315,-0.2658407210760047 l 3.6447183109900747 5.499423936951844" fill="#ff5507" stroke="none" /><path d="M 88.70189139769569 82.29822771554957 l -3.628096582743716 -5.684468241049057 a27.743609122510883,27.743609122510883 0 0,0 0.40476716567657506,-0.2534651620132613 l 3.529710264694899 5.746077744385248" fill="#ff5708" stroke="none" /><path d="M 89.00827224532344 82.1063720568725 l -3.8177073776723636 -6.214913336325839 a28.29383557530431,28.29383557530431 0 0,0 0.4171830850626094,-0.25134814085682655 l 3.7101622263921046 6.279708086641285" fill="#ff5f08" stroke="none" /><line stroke="#e1ed5e" stroke-width="0.3" x1="56.762969772571076" x2="54.21961505331055" y1="26.818313649435495" y2="22.513508569990535" /><path d="M 56.25429882871897 25.957352633546506 a86.0,86.0 0 0,1 42.265352541879196,-11.944610805530505" fill="none" id="id84" stroke="none" /><text fill="#e1ed5e" style="font-size:6.75px; font-family:Arial;" text-anchor="middle"><textPath startOffset="22.20632615414155" xlink:href="#id84">December</textPath></text><path d="M 89.3179101791058 81.91981866633112 l -3.034586826535027 -5.136249649314708 a26.965716861188216,26.965716861188216 0 0,0 0.40166496883784214,-0.23267027563068624 l 2.945725125231865 5.187724082335441" fill="#ff4c07" stroke="none" /><path d="M 89.63071344664047 81.73862282372117 l -2.001263457701394 -3.524430214376579 a25.05298208275604,25.05298208275604 0 0,0 0.3768396922310612,-0.20971088073090902 l 1.9402996763982872 3.5583564926676723" fill="#ff3204" stroke="none" /><path d="M 89.94658935756843 81.56283822128135 l -2.8580296907554765 -5.241400918653325 a26.969976323512494,26.969976323512494 0 0,0 0.4095005021793468,-0.2187409863637292 l 2.7673841420478245 5.289820631518803" fill="#ff4d07" stroke="none" /><path d="M 90.26544431104013 81.39251694778311 l -3.5564798194389025 -6.798167279561962 a28.672263490455933,28.672263490455933 0 0,0 0.43928571786408493,-0.2250192066398332 l 3.438933613986054 6.858379011514301" fill="#ff6409" stroke="none" /><path d="M 90.91171255644093 81.06846463323043 l -5.557770825333082 -11.57722349712447 a33.84215404242195,33.84215404242195 0 0,0 0.5273281037731189,-0.24758761541938257 l 5.357664510260355 11.67117609518386" fill="#ffa90f" stroke="none" /><path d="M 91.23893434514133 80.91482961587045 l -4.313109887000417 -9.395710558706522 a31.33838932330999,31.33838932330999 0 0,0 0.49218862748940745,-0.2208306902003691 l 4.150739141044236 9.46856157942342" fill="#ff880c" stroke="none" /></svg>