<?xml version="1.0" encoding="utf-8" ?>
<svg baseProfile="full" height="200mm" version="1.1" viewBox="0,0,200,200" width="200mm" xmlns="http://www.w3.org/2000/svg" xmlns:ev="http://www.w3.org/2001/xml-events" xmlns:xlink="http://www.w3.org/1999/xlink"><defs /><rect fill="#1a1a1a" height="200" width="200" x="0" y="0" /><text alignment-baseline="middle" fill="#e1ed5e" style="dominant-baseline: central; font-size:9.0px; font-family:Arial;" text-anchor="middle" x="100.0" y="100.0">2018</text><line stroke="#e1ed5e" stroke-width="0.3" x1="100.0" x2="100.0" y1="15.0" y2="10.0" /><path d="M 100.0 14.0 a86.0,86.0 0 0,1 42.46469731375804,11.215312516191453" fill="none" id="id25" stroke="none" /><text fill="#e1ed5e" style="font-size:6.75px; font-family:Arial;" text-anchor="middle"><textPath startOffset="22.20632615414155" xlink:href="#id25">January</textPath></text><path d="M 100.0 79.0 l 0.0 -13.642537827910054 a34.642537827910054,34.642537827910054 0 0,0 0.5963143417737915,0.005132665802803577 l -0.2348338625012631 13.64051653871581" fill="#ff950d" stroke="none" /><path d="M 100.72285384407766 79.0124445844662 l 0.3220981733982173 -9.351895018366987 a30.357440230525853,30.357440230525853 0 0,0 0.5220889449736826,0.022482248213835713 l -0.4830279507612315 9.344965043628957" fill="#ff5808" stroke="none" /><path d="M 101.44485096284872 79.0497635885617 l 0.233052003317591 -3.3792375069857323 a24.387264289197034,24.387264289197034 0 0,0 0.4185433002114306,0.03248701544909091 l -0.29118549289136275 3.374725229348177" fill="#ff0000" stroke="none" /><path d="M 102.16513564639614 79.11191278185805 l 6.1925501892770285 -59.742459402783346 a81.06254351374017,81.06254351374017 0 0,0 1.3866840346822484,0.15581010848476445 l -7.220000927469003 59.62701334082798" fill="#49eeff" stroke="none" /><path d="M 103.59715602781102 79.31037775812273 l 2.5107380044492422 -14.440914005053692 a35.65755104471213,35.65755104471213 0 0,0 0.603809481953428,0.11034232337390895 l -2.758942607505571 14.395556200329045" fill="#ffa20f" stroke="none" /><path d="M 103.95276090670814 79.375362276772 l 2.9017437313015155 -15.140661081265034 a36.41621661303062,36.41621661303062 0 0,0 0.614625257513303,0.12328804456294862 l -3.161935398281944 15.088469080624877" fill="#ffad10" stroke="none" /><path d="M 104.307194497241 79.44645832069477 l 4.023583879386078 -19.20017752114876 a40.617238441689025,40.617238441689025 0 0,0 0.6830606324035,0.14929059772951953 l -4.353487235943106 19.12807342532337" fill="#ffe415" stroke="none" /><path d="M 104.66035177308747 79.52364482259891 l 4.7242268702428305 -20.7570054887997 a42.287827422815724,42.287827422815724 0 0,0 0.7083740960553908,0.16764926188718499 l -5.080824653260745 20.672610314771646" fill="#fffa17" stroke="none" /><path d="M 105.36241919743992 79.69619591428918 l 6.437460722261615 -24.374249103214126 a46.21001626132351,46.21001626132351 0 0,0 0.7673109623490549,0.20973507134952218 l -6.856069573834381 24.259827491038312" fill="#d4ff1c" stroke="none" /><path d="M 106.40334571778207 80.00007090966166 l 4.613497363912824 -14.409595265251244 a36.130128672129054,36.130128672129054 0 0,0 0.5906711337016028,0.1947349860206131 l -4.860851319856844 14.328046554971396" fill="#ffa90f" stroke="none" /><path d="M 106.74666289553966 80.11325718540242 l 4.799046742661767 -14.14586882496268 a35.9377526573211,35.9377526573211 0 0,0 0.5841048435936476,0.20378271073057286 l -5.041833590318689 14.0611652610599" fill="#ffa60f" stroke="none" /><path d="M 107.08798089147638 80.2323363322302 l 5.032177555619148 -14.034235554387813 a35.90914412524475,35.90914412524475 0 0,0 0.5800483977934702,0.21363672013713295 l -5.273008279185195 13.945535566444354" fill="#ffa60f" stroke="none" /><path d="M 107.76421540070413 80.48803036053334 l 5.4683201885833626 -13.742238203340516 a35.79025478219425,35.79025478219425 0 0,0 0.5704559803400843,0.23270331767736743 l -5.704060038511835 13.64607399947957" fill="#ffa40f" stroke="none" /><path d="M 108.09893153111575 80.62456947434976 l 5.748812477889424 -13.753137230806136 a35.90629493185087,35.90629493185087 0 0,0 0.5682021430202538,0.24327450438147588 l -5.984698378699993 13.65214319846187" fill="#ffa60f" stroke="none" /><path d="M 108.43124777332544 80.76684994638697 l 6.201413551072437 -14.146508391039983 a36.446074895881786,36.446074895881786 0 0,0 0.5724079624933711,0.2568227674791588 l -6.444003632032588 14.037665293044293" fill="#ffad10" stroke="none" /><path d="M 109.41281617654863 81.2277094730956 l 13.33955231904186 -26.603510249757562 a50.76055130002485,50.76055130002485 0 0,0 0.7776988107140931,0.3983675368334459 l -13.79551161734471 26.369950187611618" fill="#9eff22" stroke="none" /><path d="M 110.05341064243156 81.56283822128135 l 7.105726528305295 -13.031341722455608 a35.84274963012157,35.84274963012157 0 0,0 0.5391362471227441,0.3000287378133775 l -7.328986864500075 12.907097587082049" fill="#ffa50f" stroke="none" /><path d="M 110.36928655335952 81.73862282372117 l 8.702828559537702 -15.326573724083207 a38.62506984543502,38.62506984543502 0 0,0 0.5753356217336663,0.3332715274529423 l -8.965360913736697 15.174498039240216" fill="#ffca12" stroke="none" /><line stroke="#e1ed5e" stroke-width="0.3" x1="143.23703022742887" x2="145.7803849466894" y1="26.81831364943548" y2="22.513508569990506" /><path d="M 143.74570117128098 25.957352633546492 a86.0,86.0 0 0,1 28.547481713284135,27.462654790039103" fill="none" id="id26" stroke="none" /><text fill="#e1ed5e" style="font-size:6.75px; font-family:Arial;" text-anchor="middle"><textPath startOffset="19.985693538727396" xlink:href="#id26">February</textPath></text><path d="M 110.68208982089419 81.91981866633111 l 7.489256080360048 -12.676087756005877 a35.72318435105572,35.72318435105572 0 0,0 0.5267263328851104,0.31734672198211455 l -7.706344479462795 12.545294424565148" fill="#ffa30f" stroke="none" /><path d="M 110.99172775467656 82.1063720568725 l 2.2105000312401133 -3.5985120820021814 a25.22322147091864,25.22322147091864 0 0,0 0.36799580829343725,0.23043894139335008 l -2.2721149919058137 3.559928799285887" fill="#ff0d01" stroke="none" /><path d="M 111.2981086023043 82.29822771554956 l 9.099600413969284 -14.257169945659978 a37.913592833970554,37.913592833970554 0 0,0 0.5470985142705667,0.3558480922168193 l -9.34366595402413 14.09842292928363" fill="#ffc111" stroke="none" /><path d="M 111.60114157652 82.49532879139004 l 8.495236676044872 -12.818249296643568 a36.37779441964683,36.37779441964683 0 0,0 0.5189817350461947,0.35041878418773653 l -8.714623105497608 12.670118600157162" fill="#ffac0f" stroke="none" /><path d="M 112.48926042617603 83.11751280151076 l 8.914628065864294 -12.050440864041413 a35.98945357811466,35.98945357811466 0 0,0 0.4948615783245112,0.3727194812375887 l -9.120735797947187 11.895204793297976" fill="#ffa70f" stroke="none" /><path d="M 113.06298171725822 83.55741782278167 l 13.276059136044212 -16.710786102197375 a42.342542452508695,42.342542452508695 0 0,0 0.5667783228351881,0.458295320275713 l -13.56174085744389 16.47978468465753" fill="#fffa17" stroke="none" /><path d="M 113.34407831869373 83.78471172551755 l 13.781182707521733 -16.746443255861593 a42.68788506378361,42.68788506378361 0 0,0 0.5633631242182426,0.4718004150766591 l -14.067403368699093 16.506741683391112" fill="#ffff18" stroke="none" /><path d="M 113.6212207817346 84.01681056812373 l 10.0915255148546 -11.841432316905264 a36.558226329913374,36.558226329913374 0 0,0 0.4754418248178328,0.4122984654004848 l -10.293861138319198 11.665968858085108" fill="#ffaf10" stroke="none" /><path d="M 113.89432698308785 84.25364557470407 l 9.969325126823833 -11.298174213047739 a36.067719934771084,36.067719934771084 0 0,0 0.46199144594849983,0.41478048169898035 l -10.162327560368322 11.12489472257946" fill="#ffa80f" stroke="none" /><path d="M 114.16331599549186 84.49514656593476 l 6.322826222179482 -6.921719030710138 a30.374877373916704,30.374877373916704 0 0,0 0.38300133615768717,0.35595800096505087 l -6.441035442132016 6.811856443670447" fill="#ff5908" stroke="none" /><path d="M 114.42810811169701 84.74124197986012 l 5.008079718671947 -5.29640310297047 a28.289221378016208,28.289221378016208 0 0,0 0.35094362829195325,0.33760749236458676 l -5.098506590576319 5.209412523843581" fill="#ff3a05" stroke="none" /><path d="M 114.68862486808459 84.99185889309783 l 12.83154341117832 -13.1106632420532 a39.34497198034052,39.34497198034052 0 0,0 0.4799415840372878,0.47788056235049853 l -13.055320795382931 12.887846829052583" fill="#ffd413" stroke="none" /><path d="M 114.94478906791727 85.2469230424477 l 28.724524093905956 -28.35604521419437 a61.36289861507495,61.36289861507495 0 0,0 0.7355825935322553,0.7580825221704164 l -29.20837095114132 27.857398496473838" fill="#30ff33" stroke="none" /><path d="M 115.4437574822437 85.77008943001954 l 22.13743212246118 -20.397476437571576 a51.10187612089758,51.10187612089758 0 0,0 0.5904854865327309,0.6520288224710141 l -22.485261249609948 20.013394827831014" fill="#9aff23" stroke="none" /><path d="M 116.38621287248628 86.86637796730983 l 9.075912569314282 -7.274384033376074 a32.631373608945495,32.631373608945495 0 0,0 0.34751778820259394,0.4413123000333625 l -9.19978443811084 7.117079339389673" fill="#ff790b" stroke="none" /><path d="M 116.60985879189232 87.15038557335679 l 16.797423371999457 -12.994716956692915 a42.23713965492425,42.23713965492425 0 0,0 0.43991803136410085,0.5788805626631479 l -17.01861734358767 12.703651618148735" fill="#fff917" stroke="none" /><path d="M 116.82858285166822 87.43820079747576 l 17.12436187978513 -12.782585277755421 a42.369095820200904,42.369095820200904 0 0,0 0.43123142146521776,0.5881991742509383 l -17.341855913763972 12.48592365983299" fill="#fffb17" stroke="none" /><path d="M 117.04232023915458 87.72973835380427 l 13.977879988652258 -10.06390223356083 a38.22391526755273,38.22391526755273 0 0,0 0.37984993990590193,0.5372708019306924 l -14.149042548362043 9.821804931298344" fill="#ffc512" stroke="none" /><line stroke="#e1ed5e" stroke-width="0.3" x1="172.23445277983987" x2="176.4835382374775" y1="55.19839476539836" y2="52.563006222186495" /><path d="M 173.08426987136738 54.67131705675599 a86.0,86.0 0 0,1 12.851231095245387,41.99856678651699" fill="none" id="id27" stroke="none" /><text fill="#e1ed5e" style="font-size:6.75px; font-family:Arial;" text-anchor="middle"><textPath startOffset="22.20632615414155" xlink:href="#id27">March</textPath></text><path d="M 118.03404312379186 89.2402003453031 l 18.28165528463859 -10.907534537245919 a42.28833552975823,42.28833552975823 0 0,0 0.36758697779571864,0.6283253001224195 l -18.466701936904634 10.591229824769604" fill="#fffa17" stroke="none" /><path d="M 118.21658344932153 89.55222093294921 l 18.655640476683857 -10.699591973267765 a42.506143075635414,42.506143075635414 0 0,0 0.35855421161806544,0.6378279339144617 l -18.837052329594353 10.376880529418509" fill="#fffc17" stroke="none" /><path d="M 118.3937258080291 89.86733742301442 l 26.282073033997435 -14.47816394876025 a51.00607595623853,51.00607595623853 0 0,0 0.4170157205873311,0.7726667965365963 l -26.527396853803232 14.023616168891193" fill="#9bff22" stroke="none" /><path d="M 118.89224826269711 90.83032412892265 l 14.014033719328813 -6.801950994171832 a36.57753762356555,36.57753762356555 0 0,0 0.2700498808561295,0.5687939203889912 l -14.1290417940267 6.5597146581423" fill="#ffaf10" stroke="none" /><path d="M 119.04729006885535 91.15688171328212 l 3.6211771653525147 -1.681210182373121 a24.9924167793688,24.9924167793688 0 0,0 0.17780043620590802,0.3917596928387878 l -3.64957991852177 1.6186284806922702" fill="#ff0901" stroke="none" /><path d="M 119.196687751892 91.48605970444005 l 8.549531071814977 -3.79181023524713 a30.352663065034186,30.352663065034186 0 0,0 0.2077123649266831,0.4794287763212603 l -8.61353414658434 3.644082314339267" fill="#ff5808" stroke="none" /><path d="M 119.34039704204932 91.81776055985345 l 14.087805657490573 -5.960053396278411 a36.29668280150024,36.29668280150024 0 0,0 0.2384835745037035,0.5775068920081654 l -14.188310918880473 5.716671933816943" fill="#ffab0f" stroke="none" /><path d="M 119.47837535516314 92.15188598940014 l 27.400725154753797 -11.04014123696499 a50.54123317565623,50.54123317565623 0 0,0 0.3181846201311782,0.809745152178273 l -27.586703324766678 10.566847079890932" fill="#a1ff22" stroke="none" /><path d="M 119.61058180528143 92.48833698450437 l 13.95098352980027 -5.343803057508804 a35.939416741164926,35.939416741164926 0 0,0 0.21631320800052947,0.5796118532806286 l -14.040901326302425 5.102868067198843" fill="#ffa60f" stroke="none" /><path d="M 119.97218684219823 93.5106431181261 l 13.014372962820312 -4.228626109741326 a34.68412154255341,34.68412154255341 0 0,0 0.1796051437176052,0.5693973871162448 l -13.085233590306123 4.003978556198661" fill="#ff950d" stroke="none" /><path d="M 120.08093135843002 93.85539295169968 l 14.905697586123019 -4.561026219985308 a36.587904949297936,36.587904949297936 0 0,0 0.17909623170597092,0.6038234598065647 l -14.981999714940693 4.303773373432214" fill="#ffaf10" stroke="none" /><path d="M 120.18372546131832 94.20196356495316 l 35.44019135727993 -10.180653772186218 a57.87347115026938,57.87347115026938 0 0,0 0.26680560193295216,0.9598417063594388 l -35.610183729779244 9.569100762407828" fill="#50ff2b" stroke="none" /><path d="M 120.28053869075195 94.5502522615342 l 19.250226039008417 -5.172884084626441 a40.93313653958903,40.93313653958903 0 0,0 0.17699423551659185,0.6820309899380553 l -19.336416606395314 4.840756669139536" fill="#ffe815" stroke="none" /><path d="M 120.45610955862082 95.25157060432595 l 14.486455209615556 -3.3627073397964238 a35.87162348882322,35.87162348882322 0 0,0 0.13444276742475897,0.6026805647876723 l -14.542192364042354 3.1128486054587876" fill="#ffa50f" stroke="none" /><path d="M 120.53481517161879 95.60439243477599 l 8.622154668501617 -1.8456269497754434 a29.81747639437167,29.81747639437167 0 0,0 0.10311267284748715,0.5028140125247536 l -8.6526466372641 1.696937281087278" fill="#ff5007" stroke="none" /><path d="M 120.67395015179393 96.31383870115 l 21.17925014262567 -3.7762561891267574 a42.51326910094855,42.51326910094855 0 0,0 0.12225224674743355,0.7215396806062488 l -21.241114250893325 3.411130720204671" fill="#fffc17" stroke="none" /><path d="M 120.78858239683441 97.02765380044208 l 36.08383109121852 -5.159256949901744 a57.45079969623023,57.45079969623023 0 0,0 0.13154591936769516,0.9801698935655354 l -36.16729300964405 4.537368714271544" fill="#54ff2b" stroke="none" /><path d="M 120.83666639777658 97.38593545837742 l 16.007823006124845 -2.0082618644480625 a37.133304469686806,37.133304469686806 0 0,0 0.07410684200642038,0.6349021660252753 l -16.040020201134855 1.7324159600979343" fill="#ffb610" stroke="none" /><path d="M 120.87857604477298 97.74499172005257 l 22.812722442763647 -2.46390739896524 a43.94539485215384,43.94539485215384 0 0,0 0.07475503891182507,0.7527730400559569 l -22.8517546073577 2.0708588282048477" fill="#f0ff19" stroke="none" /><path d="M 120.91429891909075 98.10471618934814 l 14.775622512405622 -1.3389881367002603 a35.83616897515433,35.83616897515433 0 0,0 0.05038482794872569,0.6148225210637543 l -14.796481824173842 1.0844516984287371" fill="#ffa50f" stroke="none" /><path d="M 120.94382443527127 98.46500227214037 l 15.216386282913483 -1.115226994128695 a36.257199702411675,36.257199702411675 0 0,0 0.04026173661405343,0.622831245152979 l -15.23332861053195 0.8531366847226807" fill="#ffab0f" stroke="none" /><path d="M 120.96714384426684 98.82574320788733 l 8.617425673188066 -0.4826155962121698 a29.630929442802092,29.630929442802092 0 0,0 0.024137061307342694,0.5094952153444468 l -8.624456342728905 0.3342092742447233" fill="#ff4e07" stroke="none" /><path d="M 120.98425023603335 99.18683210126433 l 26.489993803247927 -1.026522861489658 a47.50987591221948,47.50987591221948 0 0,0 0.024633430728887355,0.8174636409151834 l -26.503738928432462 0.5703890731494756" fill="#c4ff1e" stroke="none" /><line stroke="#e1ed5e" stroke-width="0.3" x1="184.98032266829074" x2="189.97916517819016" y1="98.17113171792111" y2="98.06355123074" /><path d="M 185.9800911702706 98.14961562048488 a86.0,86.0 0 0,1 -9.607161424134198,41.387399972396054" fill="none" id="id28" stroke="none" /><text fill="#e1ed5e" style="font-size:6.75px; font-family:Arial;" text-anchor="middle"><textPath startOffset="21.466115282336823" xlink:href="#id28">April</textPath></text><path d="M 120.99513854157772 99.54816195383933 l 15.049950864809517 -0.3238911893866728 a36.05343570537115,36.05343570537115 0 0,0 0.008012434658041294,0.6205718942780941 l -15.053296306585274 0.0647830370481159" fill="#ffa80f" stroke="none" /><path d="M 120.9904718944345 100.63252640178507 l 21.083390840173454 0.6353264191787481 a42.09296112399623,42.09296112399623 0 0,0 -0.028057698938722283,0.7240445380258254 l -21.06933100838353 -0.9981482042185796" fill="#fff717" stroke="none" /><path d="M 120.9764740272857 100.99374915477107 l 4.776823045454458 0.22629941799258393 a25.78218044767955,25.78218044767955 0 0,0 -0.02481675947256177,0.4431199113386375 l -4.772219935094367 -0.30849104566664476" fill="#ff1502" stroke="none" /><path d="M 120.92983693683757 101.71520430193887 l 29.625839466116737 2.427843439687671 a50.72515412642556,50.72515412642556 0 0,0 -0.07880612534677199,0.8696190263931179 l -29.57965874449289 -2.9374438546293593" fill="#9eff22" stroke="none" /><path d="M 120.81339534386255 102.79330883721812 l 16.446237003201816 2.207204466212851 a37.59368744797715,37.59368744797715 0 0,0 -0.0915960330505254,0.640622441819613 l -16.405806919134687 -2.4899723800128735" fill="#ffbd11" stroke="none" /><path d="M 120.76222939487914 103.15116336523771 l 15.139498902225743 2.2977799446005926 a36.312877576873106,36.312877576873106 0 0,0 -0.099113830323794,0.6171819160378045 l -15.097703317540661 -2.558041090331602" fill="#ffab0f" stroke="none" /><path d="M 120.70491114924044 103.5080841355445 l 15.058498871321135 2.551398584366027 a36.27311438423365,36.27311438423365 0 0,0 -0.10960276929129396,0.6147105362789494 l -15.012349659690653 -2.8102278713781947" fill="#ffab0f" stroke="none" /><path d="M 120.64145759157962 103.86396538481128 l 13.874061125494205 2.597146625804875 a35.11505376220293,35.11505376220293 0 0,0 -0.11633126875236266,0.593170633114886 l -13.827299923766178 -2.8355809859877064" fill="#ff9b0e" stroke="none" /><path d="M 120.49622156327973 104.57218783832717 l 45.41483947312664 10.130900277279377 a67.53109481624134,67.53109481624134 0 0,0 -0.2628549272557021,1.1323721470649728 l -45.233723979940386 -10.911141081692914" fill="#38ff7e" stroke="none" /><path d="M 120.32669344350535 105.2749913415812 l 7.471327277190755 1.9388882312235158 a28.718809419597797,28.718809419597797 0 0,0 -0.1282936550869694,0.47742841698976485 l -7.436845545762009 -2.067207581388829" fill="#ff4106" stroke="none" /><path d="M 120.23288151984713 105.62410040840565 l 8.926629138509021 2.4813202476536698 a30.265077330918203,30.265077330918203 0 0,0 -0.14384178870653497,0.5007321367572984 l -8.882594712916386 -2.6346098599155505" fill="#ff5708" stroke="none" /><path d="M 120.13307415673323 105.97154293290107 l 10.65353878338902 3.159878304578641 a32.112277872197076,32.112277872197076 0 0,0 -0.1617437748915325,0.5285880147777118 l -10.597568235991355 -3.34279329190841" fill="#ff710a" stroke="none" /><path d="M 120.02730092923936 106.31721596034902 l 7.333074964108284 2.313073457345811 a28.689232552622492,28.689232552622492 0 0,0 -0.15260998040594614,0.4696852243040218 l -7.29217273268609 -2.438957581627628" fill="#ff4006" stroke="none" /><path d="M 119.9155931802556 106.66101706037122 l 20.170411734454017 6.746244285161973 a42.268693459930276,42.268693459930276 0 0,0 -0.2367231388065569,0.6880282490169016 l -20.05129776470423 -7.092445237268175" fill="#fff917" stroke="none" /><path d="M 119.79798401119884 107.00284435728193 l 33.194292021561225 11.74131974476135 a56.209652258456146,56.209652258456146 0 0,0 -0.3305013500596237,0.9093977706823702 l -32.987266410496375 -12.31096531244985" fill="#61ff29" stroke="none" /><path d="M 119.54520255179757 107.68017299344265 l 14.240407684487344 5.595684886056821 a36.30035621691374,36.30035621691374 0 0,0 -0.23352777268716465,0.5795967803362967 l -14.141977297542788 -5.839981034235931" fill="#ffab0f" stroke="none" /><path d="M 119.41010516605496 108.01547362559984 l 16.482906545831987 6.806676293665634 a38.8330325622251,38.8330325622251 0 0,0 -0.26045688255792965,0.6156431326476243 l -16.363298682081748 -7.089393951979423" fill="#ffcd13" stroke="none" /><path d="M 118.97047184881838 109.00673069616215 l 19.09480189027608 9.065759654944852 a42.13763130887936,42.13763130887936 0 0,0 -0.3167279940988791,0.6525534795767121 l -18.93592063956249 -9.39310209048684" fill="#fff817" stroke="none" /><path d="M 118.81262510543309 109.33194174019688 l 26.694577469133826 13.241758676687041 a50.798399942064066,50.798399942064066 0 0,0 -0.39531152815529635,0.7799871482647931 l -26.46268727119226 -13.69930003665453" fill="#9eff22" stroke="none" /><path d="M 118.64920377521936 109.65438752849418 l 15.22854660246012 7.883569302365786 a38.14815723535634,38.14815723535634 0 0,0 -0.3069064514645643,0.5805513454549109 l -15.090587642770663 -8.144535662906831" fill="#ffc412" stroke="none" /><line stroke="#e1ed5e" stroke-width="0.3" x1="174.80103733775053" x2="179.2010983576182" y1="140.37084112569926" y2="142.7455964860345" /><path d="M 175.68104954172406 140.8457921977663 a86.0,86.0 0 0,1 -30.038265399797805,32.042727171017184" fill="none" id="id29" stroke="none" /><text fill="#e1ed5e" style="font-size:6.75px; font-family:Arial;" text-anchor="middle"><textPath startOffset="22.206326154141568" xlink:href="#id29">May</textPath></text><path d="M 118.48025628344425 109.97397251340804 l 13.623286536658407 7.352619107378993 a36.48079273803809,36.48079273803809 0 0,0 -0.3030052788297095,0.5500425949086724 l -13.494704848377188 -7.58603222068547" fill="#ffae10" stroke="none" /><path d="M 118.12598468904814 110.60418214915192 l 12.111879566870508 7.085771024251643 a35.032311913954146,35.032311913954146 0 0,0 -0.3089835302366261,0.5178741693760387 l -11.988115160935655 -7.293207287513785" fill="#ff9a0e" stroke="none" /><path d="M 117.94076556474637 110.91462005526583 l 11.72120130184805 7.1308249550033755 a34.71988427419646,34.71988427419646 0 0,0 -0.31501741242241194,0.507908372552681 l -11.596719249757674 -7.33152965892133" fill="#ff960d" stroke="none" /><path d="M 117.75023020441432 111.22182372390056 l 21.57278850853201 13.638472689527655 a46.52240469346183,46.52240469346183 0 0,0 -0.43375526585640545,0.6731978050502795 l -21.334828379298557 -14.007792094499386" fill="#d0ff1d" stroke="none" /><path d="M 117.55443506779139 111.5257021239791 l 13.182649848756464 8.65532241708314 a36.770125655129725,36.770125655129725 0 0,0 -0.35193719382565003,0.5260983533038335 l -13.031709549520093 -8.880957684592781" fill="#ffb110" stroke="none" /><path d="M 116.71984013943494 112.70617746262583 l 11.849697162310232 9.005131255266654 a35.88313514562854,35.88313514562854 0 0,0 -0.3779573748121794,0.4885608561115883 l -11.692932970279985 -9.207770105491495" fill="#ffa50f" stroke="none" /><path d="M 116.498646956653 112.99209946851258 l 7.230076393258972 5.693428795279894 a30.2026700527229,30.2026700527229 0 0,0 -0.32515631938275846,0.4056825034996595 l -7.1310021618213595 -5.817039132357804" fill="#ff5608" stroke="none" /><path d="M 116.0416608686014 113.55231037782055 l 45.76697436143512 38.664839425320736 a80.91315172803127,80.91315172803127 0 0,0 -0.907990013283174,1.0561975175081597 l -45.09464183858116 -39.446914041990425" fill="#49f0ff" stroke="none" /><path d="M 115.80600337817218 113.82643327865902 l 5.969047135181787 5.221473763932961 a28.930530371259046,28.930530371259046 0 0,0 -0.3311046166529565,0.3719995468255382 l -5.878283668880492 -5.3234474804993654" fill="#ff4406" stroke="none" /><path d="M 115.56566222782051 114.09645910891815 l 5.294419828166331 4.794693057119108 a28.142825969381235,28.142825969381235 0 0,0 -0.328270776683391,0.3562730938240195 l -5.211102643487218 -4.885117405744463" fill="#ff3805" stroke="none" /><path d="M 115.32070863581623 114.36230785411682 l 10.697681780826777 10.028478624182467 a35.66324585484121,35.66324585484121 0 0,0 -0.42370219987353247,0.4442500626283268 l -10.52347302957428 -10.2111358033933" fill="#ffa30f" stroke="none" /><path d="M 114.81725581225074 114.88116024355365 l 10.199623851572929 10.243613181985884 a35.455585001504794,35.455585001504794 0 0,0 -0.4361881939848971,0.426901953259547 l -10.021785705212237 -10.417665238168004" fill="#ffa00e" stroke="none" /><path d="M 114.55890576462653 115.13401014063108 l 14.611985982859645 15.189187128104866 a42.076563761103785,42.076563761103785 0 0,0 -0.5262859767624908,0.4976362401433304 l -14.348364171706347 -15.438458004994118" fill="#fff717" stroke="none" /><path d="M 114.29624159901734 115.38237550388516 l 12.566934563124656 13.521687154197483 a39.45979056787607,39.45979056787607 0 0,0 -0.5015159943099674,0.45812296997270063 l -12.332319019347825 -13.736002890756767" fill="#ffd513" stroke="none" /><path d="M 114.0293411484842 115.62618273729858 l 6.229256393707118 6.938280115604001 a30.324342667508894,30.324342667508894 0 0,0 -0.39141166538615857,0.34537528604930035 l -6.108902375414372 -7.0444785434255905" fill="#ff5808" stroke="none" /><path d="M 113.48314897796784 116.09983520530334 l 9.902940064957278 11.824812093549829 a36.423825821692176,36.423825821692176 0 0,0 -0.4841418009294999,0.39841574195898277 l -9.697928135483085 -11.99352295436599" fill="#ffad10" stroke="none" /><path d="M 113.20401910651253 116.32954008644616 l 5.031474262664587 6.222473627410875 a29.002181658752818,29.002181658752818 0 0,0 -0.390897629207631,0.31055271785314614 l -4.923619140739605 -6.308160259269147" fill="#ff4506" stroke="none" /><path d="M 112.92097659922987 116.55440617244103 l 5.658159519708679 7.249256289443644 a30.196003800592308,30.196003800592308 0 0,0 -0.41249361927101,0.31628251762673704 l -5.532537171944175 -7.3455781488977525" fill="#ff5608" stroke="none" /><path d="M 112.63410532772338 116.77436683061366 l 11.607049422888517 15.410739406561452 a40.29286099473903,40.29286099473903 0 0,0 -0.5576052852336553,0.412503059556205 l -11.340059167236298 -15.608252414857427" fill="#ffe015" stroke="none" /><path d="M 112.34349029814194 116.9893568818739 l 17.64988485976226 24.292982419374663 a51.02777764655439,51.02777764655439 0 0,0 -0.7150514515230721,0.5101702248681607 l -17.229106080390306 -24.593196906087044" fill="#9bff22" stroke="none" /><path d="M 111.7513745106137 117.40417183066458 l 7.946709270789735 11.769337579382182 a35.20096811108007,35.20096811108007 0 0,0 -0.5050924914626723,0.33474776148971835 l -7.742942080587099 -11.904383361963218" fill="#ff9c0e" stroke="none" /><path d="M 111.45004920935366 117.60387380957326 l 12.390101789564618 19.04915729210001 a43.724106492774126,43.724106492774126 0 0,0 -0.6344538541707733,0.4049384678769421 l -12.060366133346914 -19.25961018880076" fill="#f2ff19" stroke="none" /><path d="M 111.1453310114006 117.79835938074945 l 8.050257311152388 12.855730582145377 a36.16827121251695,36.16827121251695 0 0,0 -0.5305038017116532,0.32587876420416034 l -7.827774309508426 -12.992397813177917" fill="#ffa90f" stroke="none" /><line stroke="#e1ed5e" stroke-width="0.3" x1="143.8653032363475" x2="146.44561519142675" y1="172.8068346515853" y2="177.08958963109032" /><path d="M 144.38136562736335 173.6633856474863 a86.0,86.0 0 0,1 -40.68145358897372,12.25698825130547" fill="none" id="id30" stroke="none" /><text fill="#e1ed5e" style="font-size:6.75px; font-family:Arial;" text-anchor="middle"><textPath startOffset="21.466115282336833" xlink:href="#id30">June</textPath></text><path d="M 110.8373102113329 117.98757091392108 l 4.356883105478257 7.231475550224738 a29.44255109716844,29.44255109716844 0 0,0 -0.4363556123965418,0.2578065871934078 l -4.231759622053333 -7.305400709711895" fill="#ff4b07" stroke="none" /><path d="M 110.5260780823613 118.17145234162733 l 12.194907392113645 21.052397365139157 a45.3293896578181,45.3293896578181 0 0,0 -0.6785404539830745,0.3852929785896305 l -11.830718171209373 -21.259193509523417" fill="#deff1b" stroke="none" /><path d="M 110.21172684928248 118.3499491758327 l 20.302897677858542 36.48326536828715 a62.752081457700456,62.752081457700456 0 0,0 -0.9483847220206895,0.5171349675136873 l -19.671890143969204 -36.8273409875606" fill="#32ff45" stroke="none" /><path d="M 109.57404056367764 118.69057910512821 l 7.099906177571076 13.860538522714034 a36.573156259087355,36.573156259087355 0 0,0 -0.5627844061348509,0.2821917844486379 l -6.860267863753465 -13.980698148071975" fill="#ffaf10" stroke="none" /><path d="M 109.2508944713604 118.85261126421891 l 6.792697099506444 13.842994128734274 a36.41976719454009,36.41976719454009 0 0,0 -0.565178131575301,0.27131984897463873 l -6.553406299930911 -13.957868254208472" fill="#ffad10" stroke="none" /><path d="M 108.59647513512805 119.15986991738527 l 6.300720863311822 14.04308047533389 a36.391789780076806,36.391789780076806 0 0,0 -0.5737413908754609,0.25151136505455957 l -6.058058797778608 -14.149456393682904" fill="#ffac10" stroke="none" /><path d="M 108.2653958097858 119.30500536409082 l 6.018352424175593 14.056716520961109 a36.290907273678734,36.290907273678734 0 0,0 -0.5763834922144305,0.2409283464917173 l -5.775497472463701 -14.158229910472798" fill="#ffab0f" stroke="none" /><path d="M 107.93186726928326 119.44442032107085 l 12.12362302462053 29.720217686677884 a53.097874923219294,53.097874923219294 0 0,0 -0.8492598616035462,0.337938025658101 l -11.610242086975118 -29.924502556742052" fill="#84ff25" stroke="none" /><path d="M 106.57524785965236 119.94407469862006 l 4.7718831035644245 14.474099699658094 a36.24042094135612,36.24042094135612 0 0,0 -0.594133494048962,0.1902227826771258 l -4.522028264424522 -14.554095328994926" fill="#ffaa0f" stroke="none" /><path d="M 106.2309692047433 120.05430185196036 l 6.318908207374879 20.337332508249172 a42.296377496755596,42.296377496755596 0 0,0 -0.6971349877214067,0.21004105311495486 l -5.967898245213226 -20.44308893046985" fill="#fffa17" stroke="none" /><path d="M 105.88484417918355 120.15858648285463 l 4.176909426792397 14.308040679970405 a35.905254122601036,35.905254122601036 0 0,0 -0.5947770862160243,0.168089945632382 l -3.930001172471767 -14.377819418941305" fill="#ffa60f" stroke="none" /><path d="M 105.53697534728816 120.25689768951611 l 7.803280564937386 28.548123502833388 a50.59538043526654,50.59538043526654 0 0,0 -0.8420747148435159,0.22239958568815718 l -7.310715407282372 -28.67821443782513" fill="#a0ff22" stroke="none" /><path d="M 104.48393922423573 120.51570834832081 l 2.0956288178862152 9.588290002172803 a30.8146301666503,30.8146301666503 0 0,0 -0.5191656793265116,0.10879621585622025 l -1.9302716771303254 -9.622942198755563" fill="#ff5f08" stroke="none" /><path d="M 104.13013068566511 120.58985236759428 l 4.156601529729978 20.721816901606 a42.134593253257506,42.134593253257506 0 0,0 -0.7123402453216658,0.13652170339997016 l -3.799293669836608 -20.79029580335444" fill="#fff817" stroke="none" /><path d="M 103.7750983002368 120.6578951692458 l 3.805772363240517 20.825748170028767 a42.1706327284345,42.1706327284345 0 0,0 -0.7151959152336371,0.12434597729586874 l -3.44672747653483 -20.888172725845642" fill="#fff817" stroke="none" /><path d="M 103.41894727170886 120.7198165907248 l 2.4302762075283075 14.72818188846193 a35.92734350728542,35.92734350728542 0 0,0 -0.6110456484104642,0.09543276349325479 l -2.1763946955093263 -14.767832959302293" fill="#ffa60f" stroke="none" /><path d="M 103.06178313531738 120.77559828337769 l 4.363537280151162 29.608595259822653 a50.92840408132818,50.92840408132818 0 0,0 -0.8683812094289313,0.12034972291924874 l -3.8532274795354 -29.679319548234503" fill="#9cff22" stroke="none" /><path d="M 102.34483914955558 120.86867818915974 l 1.7176061092835178 15.286408518539929 a36.38260238523827,36.38260238523827 0 0,0 -0.6229522794471872,0.06457155086289815 l -1.4542212332307278 -15.313709437858584" fill="#ffac0f" stroke="none" /><path d="M 101.62511606390274 120.93702456842531 l 1.6517300786756974 21.279903636291916 a42.343910396707344,42.343910396707344 0 0,0 -0.727180521109185,0.05015062624858076 l -1.285186796787582 -21.305182607056782" fill="#fffa17" stroke="none" /><path d="M 101.26447882468166 120.96189622390904 l 1.2878797271790339 21.349824657443058 a42.388633595796676,42.388633595796676 0 0,0 -0.7287048805586586,0.037665718761132706 l -0.9201867782068955 -21.36883018296639" fill="#fffb17" stroke="none" /><path d="M 100.90346689309514 120.98055641714683 l 1.2806728478007765 29.74013673388997 a50.767698196091104,50.767698196091104 0 0,0 -0.8733969595510087,0.030081557242723645 l -0.7685555365751154 -29.757775089558784" fill="#9eff22" stroke="none" /><line stroke="#e1ed5e" stroke-width="0.3" x1="102.19456741930631" x2="102.32365962044197" y1="184.97166512339345" y2="189.96999836594603" /><path d="M 102.22038585953345 185.97133177190398 a86.0,86.0 0 0,1 -42.740103519485714,-10.115201625700543" fill="none" id="id31" stroke="none" /><text fill="#e1ed5e" style="font-size:6.75px; font-family:Arial;" text-anchor="middle"><textPath startOffset="22.20632615414155" xlink:href="#id31">July</textPath></text><path d="M 100.18074693466247 120.99922214144158 l 0.13330053500230002 15.486888069851418 a36.48746173912104,36.48746173912104 0 0,0 -0.6280949393295003,0.0 l 0.13330053500228936 -15.486888069851418" fill="#ffae10" stroke="none" /><path d="M 99.45781275523022 120.99299961872073 l -0.3734451280007082 14.459457512802313 a35.46427920181862,35.46427920181862 0 0,0 -0.6101201103878715,-0.021013770227691377 l 0.6222855900632228 -14.450886944148527" fill="#ffa00e" stroke="none" /><path d="M 98.73552117531835 120.96189622390904 l -0.9188139597210756 15.231637332955051 a36.2593248518815,36.2593248518815 0 0,0 -0.6226887052667845,-0.042944258847052205 l 1.18086542576679 -15.213564729591715" fill="#ffab0f" stroke="none" /><path d="M 98.37488393609728 120.93702456842531 l -1.155530620390691 14.887166231430408 a35.93194459596279,35.93194459596279 0 0,0 -0.6162425724205763,-0.05317200216196111 l 1.411617510552809 -14.865069976989783" fill="#ffa60f" stroke="none" /><path d="M 98.01472825383883 120.90594882070398 l -1.462127207185351 15.396963474588311 a36.466230963224305,36.466230963224305 0 0,0 -0.6243841894774893,-0.06471997419226011 l 1.7269439932684336 -15.36951413194029" fill="#ffad10" stroke="none" /><path d="M 97.65516085044442 120.86867818915974 l -1.9788910495627263 17.611801002452587 a38.722628031305895,38.722628031305895 0 0,0 -0.6617375860865359,-0.08012720606978063 l 2.2817560587006516 -17.57512826765746" fill="#ffcb13" stroke="none" /><path d="M 97.2962882734958 120.8252237178851 l -2.7789740692200025 21.40492868762141 a42.584570160175886,42.584570160175886 0 0,0 -0.726110334807496,-0.10063227607187523 l 3.1470129952143293 -21.35392184605693" fill="#fffd18" stroke="none" /><path d="M 96.58105272829116 120.7198165907248 l -2.5800705405657065 15.635979189855757 a36.84741648408021,36.84741648408021 0 0,0 -0.624916441876329,-0.10864973364394073 l 2.8488359539140853 -15.589250877690809" fill="#ffb310" stroke="none" /><path d="M 96.22490169976321 120.6578951692458 l -2.827207966027097 15.470899335304988 a36.72710498236428,36.72710498236428 0 0,0 -0.6209196043697417,-0.11900071997857146 l 3.0930951849685338 -15.419941416977949" fill="#ffb110" stroke="none" /><path d="M 95.86986931433489 120.58985236759428 l -1.7487359025842568 8.717935776001545 a29.89159611382989,29.89159611382989 0 0,0 -0.5036143779322465,-0.10553728944658333 l 1.89854174194589 -8.68654250582842" fill="#ff5207" stroke="none" /><path d="M 94.81253420990036 120.34920634021253 l -3.5867366083966856 14.069922826586254 a35.519896963963134,35.519896963963134 0 0,0 -0.591168736155061,-0.15613303626758304 l 3.828395787363236 -14.006098441015089" fill="#ffa10e" stroke="none" /><path d="M 94.11515582081647 120.15858648285463 l -5.979756799890094 20.483710515806166 a42.33869461520971,42.33869461520971 0 0,0 -0.6978324645645756,-0.21025119716631185 l 6.331464238894915 -20.37774394953413" fill="#fffa17" stroke="none" /><path d="M 93.76903079525671 120.05430185196036 l -2.1549109735982364 6.9355558836245645 a28.262615005561937,28.262615005561937 0 0,0 -0.46334357515845087,-0.14834798085789302 l 2.2739758938476275 -6.897435056106965" fill="#ff3a05" stroke="none" /><path d="M 93.42475214034765 119.94407469862007 l -4.8427638356579745 14.689095490804071 a36.46679953661769,36.46679953661769 0 0,0 -0.5944613916330945,-0.2016735797889376 l 5.094894960228294 -14.603558924117012" fill="#ffad10" stroke="none" /><path d="M 93.08242187328487 119.8279376855182 l -7.019578894492574 20.120303717432694 a42.3096482734404,42.3096482734404 0 0,0 -0.6855783668613347,-0.24582401064652226 l 7.364876821983636 -19.996492165746215" fill="#fffa17" stroke="none" /><path d="M 92.7421414339146 119.70592522655815 l -1.6289975625123205 4.422916741739048 a25.71336669091496,25.71336669091496 0 0,0 -0.41402166679566516,-0.15654756795634703 l 1.7048894500682685 -4.394220923676068" fill="#ff1402" stroke="none" /><path d="M 92.06813273071674 119.44442032107085 l -5.871946744127805 14.39466858427168 a36.546261358181624,36.546261358181624 0 0,0 -0.5804391053151718,-0.24262359309674797 l 6.11885730894044 -14.291459948154959" fill="#ffae10" stroke="none" /><path d="M 91.7346041902142 119.30500536409082 l -7.86083191962485 18.360088962092536 a40.972119195632324,40.972119195632324 0 0,0 -0.645953408625356,-0.28316699152052605 l 8.17570600290795 -18.222057417277558" fill="#ffe915" stroke="none" /><path d="M 91.07499286063937 119.00905698771935 l -7.6800375174538225 16.357440230301123 a39.07066205642095,39.07066205642095 0 0,0 -0.6063158960491047,-0.29106847585989865 l 7.960466081503169 -16.22281747794166" fill="#ffd013" stroke="none" /><path d="M 90.7491055286396 118.85261126421891 l -6.797724359863059 13.853239298595497 a36.43117933071955,36.43117933071955 0 0,0 -0.5605996780586003,-0.281096316436995 l 7.03517794560442 -13.7341751412492" fill="#ffad10" stroke="none" /><path d="M 90.42595943632237 118.69057910512821 l -6.783283321686933 13.242422848873513 a35.878665784627444,35.878665784627444 0 0,0 -0.5472506217155961,-0.28629566061992046 l 7.0102248459290255 -13.123697769308874" fill="#ffa50f" stroke="none" /><path d="M 90.10565033884886 118.52300852407294 l -8.593388617904438 16.087506109178307 a39.238809740528,39.238809740528 0 0,0 -0.5930239571938178,-0.32336394473420604 l 8.869035386966896 -15.937201512684336" fill="#ffd213" stroke="none" /><line stroke="#e1ed5e" stroke-width="0.3" x1="58.666819895761336" x2="56.23545636021788" y1="174.27360380694188" y2="178.64263932499728" /><path d="M 58.180547188652646 175.14741091055294 a86.0,86.0 0 0,1 -31.652253787137756,-30.449443065178592" fill="none" id="id32" stroke="none" /><text fill="#e1ed5e" style="font-size:6.75px; font-family:Arial;" text-anchor="middle"><textPath startOffset="22.20632615414155" xlink:href="#id32">August</textPath></text><path d="M 88.8546689885994 117.79835938074946 l -11.631927629398247 18.575422123140907 a42.91684392033741,42.91684392033741 0 0,0 -0.6227401591066031,-0.39746223347268894 l 11.949949590551773 -18.372445460844414" fill="#fcff18" stroke="none" /><path d="M 88.54995079064634 117.60387380957326 l -8.507779980840684 13.080283101314913 a36.603721550096246,36.603721550096246 0 0,0 -0.5252203534914907,-0.34808741090364637 l 8.731675033072138 -12.931897669319948" fill="#ffaf10" stroke="none" /><path d="M 87.95078237400918 117.19931262002967 l -12.097265020574861 17.267896505363968 a42.083739485631696,42.083739485631696 0 0,0 -0.5897187844070547,-0.4207486946695895 l 12.392711132830803 -17.057103548850158" fill="#fff717" stroke="none" /><path d="M 87.36589467227662 116.77436683061367 l -12.97596506389327 17.228255766187708 a42.56822816284543,42.56822816284543 0 0,0 -0.5815048447073731,-0.4458731182829668 l 13.270598637094128 -17.002343306077375" fill="#fffd17" stroke="none" /><path d="M 87.07902340077011 116.55440617244103 l -9.327360380881274 11.950250902168339 a36.15942440528693,36.15942440528693 0 0,0 -0.48736448312236025,-0.38719182084972514 l 9.531682356720992 -11.787925167313483" fill="#ffa90f" stroke="none" /><path d="M 86.79598089348748 116.32954008644616 l -9.781522910272873 12.09690543321094 a36.5567770281714,36.5567770281714 0 0,0 -0.48590897489018847,-0.39987000582003135 l 9.98830201370775 -11.926740308533727" fill="#ffaf10" stroke="none" /><path d="M 86.51685102203217 116.09983520530335 l -13.642227191815305 16.28978586385375 a42.247764264583566,42.247764264583566 0 0,0 -0.5535151660295743,-0.47171763274548717 l 13.920607834421936 -16.052543840885313" fill="#fff917" stroke="none" /><path d="M 85.97065885151581 115.62618273729859 l -14.373992190364616 16.01006250071896 a42.515895351241845,42.515895351241845 0 0,0 -0.5403576963841195,-0.4936039438895681 l 14.64744943621559 -15.760265790242816" fill="#fffc17" stroke="none" /><path d="M 85.70375840098266 115.38237550388516 l -10.669958374581364 11.480591258328781 a36.67328897698611,36.67328897698611 0 0,0 -0.4587028023468812,-0.43373213040431463 l 10.865997011319063 -11.295224491178535" fill="#ffb010" stroke="none" /><path d="M 85.18274418774928 114.88116024355367 l -12.960869971724321 13.016768110706948 a39.369006572807976,39.369006572807976 0 0,0 -0.4761013476864246,-0.48228815159012123 l 13.18301194446628 -12.791739465136162" fill="#ffd413" stroke="none" /><path d="M 84.9287848128048 114.62390073753433 l -10.12889629914746 9.828270130822652 a35.11344869276478,35.11344869276478 0 0,0 -0.4171702574921867,-0.43740134715584666 l 10.296573108018602 -9.652461667084305" fill="#ff9b0e" stroke="none" /><path d="M 84.67929136418377 114.36230785411682 l -14.487444085674403 13.581168921346984 a40.85784946578313,40.85784946578313 0 0,0 -0.4765846184863507,-0.5172384767616199 l 14.719075112156482 -13.329779189784022" fill="#ffe715" stroke="none" /><path d="M 83.95833913139862 113.55231037782056 l -19.929621418082235 16.8369358623562 a47.08969564983805,47.08969564983805 0 0,0 -0.5177713852068354,-0.6236889881400736 l 20.216488803182607 -16.491385617102367" fill="#c9ff1d" stroke="none" /><path d="M 83.72743513129214 113.27417163493432 l -11.035325530426833 9.001949374308458 a35.24126055165422,35.24126055165422 0 0,0 -0.37940084606365,-0.4733608910113392 l 11.188644288545344 -8.810660649718859" fill="#ff9d0e" stroke="none" /><path d="M 83.50135304334701 112.99209946851258 l -10.989072711449225 8.65350510917466 a34.98723953223187,34.98723953223187 0 0,0 -0.368520898518485,-0.4763629384521828 l 11.136400427185778 -8.463064176609224" fill="#ff990e" stroke="none" /><path d="M 83.28015986056508 112.70617746262583 l -17.527454345203303 13.319920736141219 a43.01435768402683,43.01435768402683 0 0,0 -0.44292239140564266,-0.5933669246305906 l 17.754138003304032 -13.01624093200132" fill="#fbff18" stroke="none" /><path d="M 83.06392112726016 112.41649034213515 l -11.438672422671667 8.386130386506267 a35.18345549055917,35.18345549055917 0 0,0 -0.3538788939837848,-0.4915068326207476 l 11.581331109031058 -8.187989948434382" fill="#ff9c0e" stroke="none" /><path d="M 82.44556493220864 111.52570212397912 l -17.612105048154937 11.563566459265292 a42.06898937977543,42.06898937977543 0 0,0 -0.39223350110489263,-0.6087551040784639 l 17.808543412636876 -11.25868975526538" fill="#fff717" stroke="none" /><path d="M 82.24976979558568 111.22182372390057 l -40.07864325213325 25.33800770407395 a68.41637142742448,68.41637142742448 0 0,0 -0.6207494277397757,-1.000845728437215 l 40.50885731954098 -24.64436564427147" fill="#39ff89" stroke="none" /><line stroke="#e1ed5e" stroke-width="0.3" x1="26.63291911575756" x2="22.317208475507996" y1="142.92168965132927" y2="145.44649492493687" /><path d="M 25.769776987707644 143.4266507060508 a86.0,86.0 0 0,1 -11.730757126820373,-40.83630448921669" fill="none" id="id33" stroke="none" /><text fill="#e1ed5e" style="font-size:6.75px; font-family:Arial;" text-anchor="middle"><textPath startOffset="21.46611528233685" xlink:href="#id33">September</textPath></text><path d="M 81.87401531095188 110.60418214915194 l -13.385845130279325 7.83107469287367 a36.508274588012334,36.508274588012334 0 0,0 -0.31266382421785294,-0.5451557320360078 l 13.518660950649554 -7.599499114979355" fill="#ffae10" stroke="none" /><path d="M 81.35079622478065 109.6543875284942 l -18.91008814001085 9.789443093770872 a42.29376973551553,42.29376973551553 0 0,0 -0.3291287671395849,-0.6494022820206395 l 19.075795576936702 -9.462486600047548" fill="#fffa17" stroke="none" /><path d="M 81.18737489456691 109.33194174019688 l -13.865199608498266 6.87778734958891 a36.4773291949763,36.4773291949763 0 0,0 -0.27418226765808784,-0.5648966814807733 l 13.981535132771073 -6.638101712142852" fill="#ffae10" stroke="none" /><path d="M 81.02952815118164 109.00673069616217 l -15.441828374845755 7.331414354738585 a38.0938497711621,38.0938497711621 0 0,0 -0.2761357560695824,-0.5947718523837665 l 15.565738747755166 -7.064522435075991" fill="#ffc312" stroke="none" /><path d="M 80.73074385275274 108.34839909993369 l -14.185292855548258 6.14577362004047 a36.45940059596276,36.45940059596276 0 0,0 -0.24453670477418987,-0.578012535111354 l 14.288980541514755 -5.900686559262956" fill="#ffad10" stroke="none" /><path d="M 80.58989483394504 108.01547362559985 l -27.41710679550872 11.321994112323518 a50.66286054506239,50.66286054506239 0 0,0 -0.32592476256573627,-0.8089185317929148 l 27.60793417233184 -10.848376212687798" fill="#9fff22" stroke="none" /><path d="M 80.45479744820244 107.68017299344265 l -14.356966798658256 5.641486108040718 a36.425591112336406,36.425591112336406 0 0,0 -0.22428749047680627,-0.5855438630331595 l 14.451948568728572 -5.3935186781744004" fill="#ffad10" stroke="none" /><path d="M 80.20201598880116 107.00284435728193 l -14.837849196496594 5.248370160371417 a36.73871526263347,36.73871526263347 0 0,0 -0.20575284639293584,-0.5980140823903806 l 14.925992873832758 -4.99218337489174" fill="#ffb110" stroke="none" /><path d="M 80.0844068197444 106.66101706037122 l -16.69192967650294 5.582822833312958 a38.6008075699236,38.6008075699236 0 0,0 -0.20533377726624236,-0.631952385918327 l 16.78555570478543 -5.2946715474168276" fill="#ffca12" stroke="none" /><path d="M 79.86692584326677 105.97154293290107 l -8.488364151304442 2.5176796432084254 a29.853871286108493,29.853871286108493 0 0,0 -0.14188743675276866,-0.49392878121935185 l 8.530444224943313 -2.3711933864844776" fill="#ff5107" stroke="none" /><path d="M 79.76711848015287 105.62410040840567 l -59.04006858805496 16.411269622305767 a82.2785400405252,82.2785400405252 0 0,0 -0.3675575293805699,-1.367818301582229 l 59.313814193777304 -15.392560387547999" fill="#4be2ff" stroke="none" /><path d="M 79.58551787078972 104.9243191809786 l -20.89056556974868 5.039158577988581 a42.48973822544344,42.48973822544344 0 0,0 -0.16538510268126685,-0.7124746938206193 l 20.974211238360503 -4.678815226819387" fill="#fffc17" stroke="none" /><path d="M 79.50377843672027 104.57218783832718 l -15.100823331840848 3.3686111644239007 a36.471987799780294,36.471987799780294 0 0,0 -0.13141371507146882,-0.6139211269354575 l 15.156571085636758 -3.1081762180722796" fill="#ffad10" stroke="none" /><path d="M 79.29508885075956 103.50808413554451 l -29.467573553121728 4.992763627410669 a50.887548908330274,50.887548908330274 0 0,0 -0.1388945251561669,-0.8648963407326431 l 29.549149832639188 -4.484788056984812" fill="#9dff22" stroke="none" /><path d="M 79.23777060512086 103.15116336523772 l -9.28454472432476 1.4091510425859863 a30.390872025472817,30.390872025472817 0 0,0 -0.07404656226744812,-0.5178814840371249 l 9.307425337608807 -1.249124086568461" fill="#ff5908" stroke="none" /><path d="M 79.18660465613746 102.79330883721812 l -9.334157650956467 1.25271175719498 a30.41784401015029,30.41784401015029 0 0,0 -0.06517890821055067,-0.5195400285379049 l 9.354338068413867 -1.0918539743696665" fill="#ff5908" stroke="none" /><path d="M 79.10278846688536 102.07522291339032 l -14.14703016938877 1.4048879735661033 a35.21661608231251,35.21661608231251 0 0,0 -0.054712205592413674,-0.6037446296177326 l 14.16911697125826 -1.1611619553998045" fill="#ff9c0e" stroke="none" /><path d="M 79.07016306316243 101.71520430193888 l -20.970813396306585 1.7185623309465399 a42.04111382479692,42.04111382479692 0 0,0 -0.05289861451597723,-0.7217595669255575 l 20.997288569486898 -1.3573296275242215" fill="#fff617" stroke="none" /><path d="M 79.04373962182676 101.35467743843564 l -14.123355730887972 0.9129773642038727 a35.15283380700681,35.15283380700681 0 0,0 -0.03383652608970244,-0.6041739034242177 l 14.136978607865206 -0.6697317444442173" fill="#ff9c0e" stroke="none" /><path d="M 79.0095281055655 100.63252640178507 l -30.576038890894495 0.9213776592429039 a51.58991812752111,51.58991812752111 0 0,0 -0.019107769013402703,-0.8878629435161703 l 30.587368722592903 -0.3949248999366048" fill="#95ff23" stroke="none" /><line stroke="#e1ed5e" stroke-width="0.3" x1="15.007084014347285" x2="10.007500721073583" y1="101.09737516637583" y2="101.16192664675087" /><path d="M 14.007167355692545 101.11028546245083 a86.0,86.0 0 0,1 10.666146001902534,-42.60595125391555" fill="none" id="id34" stroke="none" /><text fill="#e1ed5e" style="font-size:6.75px; font-family:Arial;" text-anchor="middle"><textPath startOffset="22.20632615414155" xlink:href="#id34">October</textPath></text><path d="M 79.00175016825051 100.2711162175752 l -7.822148637759433 0.10099467188802778 a28.822800600485195,28.822800600485195 0 0,0 -0.0021352242389661427,-0.4961509156524196 l 7.8227281592879025 0.0336657219680672" fill="#ff4206" stroke="none" /><path d="M 79.00019446554 99.90962569577889 l -60.21760019651919 -0.25915114836162023 a81.21815783254686,81.21815783254686 0 0,0 0.018049741167464342,-1.3979723449327417 l 60.20421744823401 1.295659751354834" fill="#49edff" stroke="none" /><path d="M 79.01574976396665 99.18683210126434 l -19.20550434271145 -0.7442391047979267 a40.21991906598513,40.21991906598513 0 0,0 0.032762747255224406,-0.6915698127261289 l 19.189847987222727 1.0747200241470647" fill="#ffdf14" stroke="none" /><path d="M 79.03285615573316 98.82574320788736 l -15.528811002942678 -0.8696850619749549 a36.55314512476933,36.55314512476933 0 0,0 0.040590368630454114,-0.6279150369907023 l 15.51154004330781 1.136859163218669" fill="#ffaf10" stroke="none" /><path d="M 79.05617556472873 98.46500227214037 l -22.462050584772026 -1.6462703226554536 a43.52229833849364,43.52229833849364 0 0,0 0.06119134875266045,-0.7466894467852518 l 22.430384752199867 2.032673686648484" fill="#f5ff19" stroke="none" /><path d="M 79.08570108090925 98.10471618934814 l -15.585622184010111 -1.4123914704751177 a36.64948780403304,36.64948780403304 0 0,0 0.06234404983972216,-0.6277960738219163 l 15.559001008488162 1.6804630750014642" fill="#ffb010" stroke="none" /><path d="M 79.12142395522702 97.74499172005258 l -7.614808389786684 -0.8224438262628071 a28.659093984311948,28.659093984311948 0 0,0 0.057194881529499156,-0.49001081661921386 l 7.599523155253595 0.9533983812068828" fill="#ff4006" stroke="none" /><path d="M 79.21141760316559 97.0276538004421 l -15.809121303898388 -2.260384124756275 a36.96989833382868,36.96989833382868 0 0,0 0.0954951954646841,-0.6291940228230708 l 15.767870214994401 2.5321772599714376" fill="#ffb410" stroke="none" /><path d="M 79.26566170972629 96.67025291283419 l -21.04711925320807 -3.3799768791982934 a42.31678851428322,42.31678851428322 0 0,0 0.12168724213428432,-0.7182049913963847 l 20.985820149553565 3.741767658910506" fill="#fffa17" stroke="none" /><path d="M 79.32604984820605 96.31383870115002 l -15.222956042238652 -2.7142501072600016 a36.46303800385588,36.46303800385588 0 0,0 0.11549107508922277,-0.6169579411945403 l 15.173979243239566 2.9758861259171145" fill="#ffad10" stroke="none" /><path d="M 79.3925641242962 95.95851677861259 l -29.081688858615937 -5.703434346738756 a50.635684406082234,50.635684406082234 0 0,0 0.17510471682837248,-0.8538727864295669 l 28.979204845872573 6.203182789331725" fill="#9fff22" stroke="none" /><path d="M 79.46518482838121 95.60439243477599 l -29.444816350608313 -6.302849888137681 a51.111843627274766,51.111843627274766 0 0,0 0.19156138019717425,-0.8587321060119684 l 29.331960583409103 6.808760163699608" fill="#9aff23" stroke="none" /><path d="M 79.62865764111835 94.90015583598534 l -15.074716816647605 -3.7738655228105613 a36.53992110940002,36.53992110940002 0 0,0 0.15799804142395762,-0.6088309050638854 l 15.00752244335334 4.03279285342331" fill="#ffae10" stroke="none" /><path d="M 79.71946130924805 94.55025226153421 l -13.28900064736232 -3.570994948840186 a34.76043397317971,34.76043397317971 0 0,0 0.16025094616468166,-0.5765079162433652 l 13.225562930631277 3.7992141685024943" fill="#ff960d" stroke="none" /><path d="M 79.81627453868168 94.20196356495316 l -27.86009335439944 -8.003172489746287 a49.98681720397194,49.98681720397194 0 0,0 0.24468333479635182,-0.8249505663318666 l 27.71820412249138 8.481552442824693" fill="#a7ff21" stroke="none" /><path d="M 79.91906864156998 93.8553929516997 l -6.1317253793166575 -1.8762597367364684 a27.41236358350448,27.41236358350448 0 0,0 0.14194972460277622,-0.4500194182510374 l 6.098520170945678 1.9815293214139202" fill="#ff2d04" stroke="none" /><path d="M 80.02781315780177 93.51064311812611 l -14.779472690126745 -4.802141776958514 a36.540057227829394,36.540057227829394 0 0,0 0.19951342130843935,-0.5965197351646441 l 14.694621975046534 5.05583461504548" fill="#ffae10" stroke="none" /><path d="M 80.14247586403 93.16781622104843 l -28.050498372919115 -9.651060155471082 a50.664345957624946,50.664345957624946 0 0,0 0.2908300389513174,-0.822215683709615 l 27.88021525315799 10.132473465607308" fill="#9fff22" stroke="none" /><path d="M 80.38941819471856 92.48833698450439 l -14.485509008432308 -5.548548399005951 a36.51181358092873,36.51181358092873 0 0,0 0.2298617743293356,-0.5849731434458977 l 14.38785368422128 5.797070547347612" fill="#ffae10" stroke="none" /><path d="M 80.52162464483688 92.15188598940014 l -14.477220860601902 -5.833077851665967 a36.60816200166576,36.60816200166576 0 0,0 0.2405301161517411,-0.5824627549391115 l 14.374669057563962 6.08141517705839" fill="#ffaf10" stroke="none" /><path d="M 80.803312248108 91.48605970444005 l -30.0412394012313 -13.323617176692258 a53.86327493469178,53.86327493469178 0 0,0 0.38319278457185374,-0.8443145066756701 l 29.807444299696094 13.838753692209998" fill="#7bff26" stroke="none" /><path d="M 80.95270993114464 91.15688171328213 l -14.08395046221891 -6.538780027575925 a36.52782357161692,36.52782357161692 0 0,0 0.26968284483682525,-0.5680208489264785 l 13.969309423540334 6.780243292142935" fill="#ffae10" stroke="none" /><path d="M 81.10775173730289 90.83032412892265 l -37.83071633450217 -18.361785317155906 a63.05137641522441,63.05137641522441 0 0,0 0.4823129662195783,-0.9723135087625308 l 37.50904335532918 19.010258414417397" fill="#32ff48" stroke="none" /><path d="M 81.43458229118936 90.18545643968196 l -15.577997240023796 -8.235254110235827 a38.620823143949465,38.620823143949465 0 0,0 0.31575631120628184,-0.5850484895925564 l 15.433932829599044 8.502183583160855" fill="#ffca12" stroke="none" /><path d="M 81.6062741919709 89.86733742301443 l -8.170910180520016 -4.5011585292809615 a30.328676287868735,30.328676287868735 0 0,0 0.25583301210054266,-0.45509838191225344 l 8.092219527127043 4.641140421128" fill="#ff5808" stroke="none" /><line stroke="#e1ed5e" stroke-width="0.3" x1="26.266209847984243" x2="21.928928074336255" y1="57.711370442889674" y2="55.22380399835377" /><path d="M 25.398753493254645 57.213857153982495 a86.0,86.0 0 0,1 29.58750427330803,-30.492523968695096" fill="none" id="id35" stroke="none" /><text fill="#e1ed5e" style="font-size:6.75px; font-family:Arial;" text-anchor="middle"><textPath startOffset="21.46611528233685" xlink:href="#id35">November</textPath></text><path d="M 81.78341655067845 89.55222093294921 l -11.25937732820499 -6.457604253009777 a33.97976234402566,33.97976234402566 0 0,0 0.2953655656999732,-0.5048754959360945 l 11.14655208803469 6.6504591612997634" fill="#ff8b0c" stroke="none" /><path d="M 82.15384107792192 88.93136811851018 l -13.185328590196617 -8.177868920623464 a36.51549000561553,36.51549000561553 0 0,0 0.3358945227924418,-0.5313044698135181 l 13.042606471158212 8.403621038151197" fill="#ffae10" stroke="none" /><path d="M 82.34701348167596 88.62581576622439 l -28.33507046180507 -18.256871797587582 a54.70741143886619,54.70741143886619 0 0,0 0.5168635476347454,-0.787218643017472 l 28.016610278812408 18.74190850458272" fill="#72ff27" stroke="none" /><path d="M 82.7489923806493 88.02491185347247 l -12.71527584932431 -8.826530743182307 a36.47856210649918,36.47856210649918 0 0,0 0.3625055028250874,-0.5127383257066502 l 12.561457726695345 9.044095569220742" fill="#ffae10" stroke="none" /><path d="M 82.95767976084542 87.72973835380427 l -5.954378028229784 -4.28707918414065 a28.337142879497282,28.337142879497282 0 0,0 0.28841461370912597,-0.39339720897238917 l 5.879700802007025 4.388938836784539" fill="#ff3b05" stroke="none" /><path d="M 83.17141714833178 87.43820079747576 l -16.712072673533207 -12.474829463260821 a41.85460963870807,41.85460963870807 0 0,0 0.43593381621492255,-0.5736378025512814 l 16.494862917094174 12.76065204169313" fill="#fff417" stroke="none" /><path d="M 83.6137871275137 86.86637796730984 l -11.465428505229687 -9.189591615971137 a35.69369405142425,35.69369405142425 0 0,0 0.388383948291159,-0.4761127975699886 l 11.305546064862135 9.38558858314921" fill="#ffa30f" stroke="none" /><path d="M 83.84228863543731 86.58626213691792 l -34.957371950510336 -29.02075752849636 a66.43371238644389,66.43371238644389 0 0,0 0.7380133336383967,-0.8735750056395156 l 34.452648003384816 29.618191483764992" fill="#36ff71" stroke="none" /><path d="M 84.5562425177563 85.77008943001954 l -11.92523681373161 -10.987938238498284 a37.215611607233086,37.215611607233086 0 0,0 0.43813882486493433,-0.4673759500197899 l 11.734330666896218 11.191583605396124" fill="#ffb711" stroke="none" /><path d="M 84.80347519578584 85.50635884689758 l -15.540239926866938 -14.821458447569798 a42.47497817222703,42.47497817222703 0 0,0 0.5091652335418831,-0.5247395300525076 l 15.282810429621938 15.08676217317243" fill="#fffc17" stroke="none" /><path d="M 85.05521093208273 85.24692304244772 l -15.348849889211124 -15.151954476999988 a42.56777497551883,42.56777497551883 0 0,0 0.5192542864410309,-0.5170244435165844 l 15.08575980260278 15.41391477116668" fill="#fffd17" stroke="none" /><path d="M 85.31137513191541 84.99185889309783 l -20.671245882722623 -21.120899869766163 a50.55322008940253,50.55322008940253 0 0,0 0.6271409963161053,-0.6033091415729267 l 20.30462164279409 21.473592098101403" fill="#a0ff22" stroke="none" /><path d="M 85.57189188830299 84.74124197986013 l -20.41434710522877 -21.589634635832418 a50.71292465311177,50.71292465311177 0 0,0 0.6394467922785465,-0.5942961039939407 l 20.03969242915537 21.937835325901005" fill="#9fff22" stroke="none" /><path d="M 86.10567301691215 84.25364557470407 l -14.199832963645912 -16.092582454531925 a42.46174424997544,42.46174424997544 0 0,0 0.5522174130925238,-0.47887749899308446 l 13.920721751906614 16.33462494694469" fill="#fffc17" stroke="none" /><path d="M 86.37877921826538 84.01681056812374 l -13.937424348714883 -16.354223834083264 a42.48749484447751,42.48749484447751 0 0,0 0.5607185223635999,-0.4695856370780759 l 13.653848289392172 16.591710628555152" fill="#fffc17" stroke="none" /><path d="M 86.65592168130627 83.78471172551755 l -13.509361411639244 -16.416134892360507 a42.26011125451755,42.26011125451755 0 0,0 0.5656749357109994,-0.4574031246233893 l 13.224783077363744 16.64624411424803" fill="#fff917" stroke="none" /><path d="M 86.93701828274178 83.55741782278169 l -9.678621636423905 -12.182634490627247 a36.559315534858,36.559315534858 0 0,0 0.49610546348041906,-0.3872181833409338 l 9.46748361778406 12.347431063191403" fill="#ffaf10" stroke="none" /><path d="M 87.22198572758235 83.33499621200491 l -9.390959441006219 -12.247628725465992 a36.433552041558144,36.433552041558144 0 0,0 0.500968013535418,-0.3773187216387623 l 9.17874527371241 12.407464036610609" fill="#ffad10" stroke="none" /><path d="M 87.51073957382395 83.11751280151077 l -29.381790626559454 -39.71713994224537 a70.40385435990677,70.40385435990677 0 0,0 0.9804731883000458,-0.7123554688689936 l 28.693772121905624 40.21701464593103" fill="#3bff9f" stroke="none" /><path d="M 88.09926311788651 82.69761687909137 l -12.04780757329648 -17.51620798485714 a42.25952044360251,42.25952044360251 0 0,0 0.6028930448349612,-0.4070760751291336 l 11.744509834054979 17.72099597228494" fill="#fff917" stroke="none" /><path d="M 88.70189139769569 82.29822771554957 l -8.375127850777208 -13.122073020025624 a36.5670025007947,36.5670025007947 0 0,0 0.5334966295904675,-0.33407554050647736 l 8.148012068814499 13.26429290185503" fill="#ffaf10" stroke="none" /><path d="M 89.00827224532344 82.1063720568725 l -17.600423794405554 -28.65204106647096 a54.626096636651354,54.626096636651354 0 0,0 0.805443413960369,-0.4852706447432584 l 17.104618314227537 28.950758320672836" fill="#73ff27" stroke="none" /><line stroke="#e1ed5e" stroke-width="0.3" x1="56.762969772571076" x2="54.21961505331055" y1="26.818313649435495" y2="22.513508569990535" /><path d="M 56.25429882871897 25.957352633546506 a86.0,86.0 0 0,1 42.265352541879196,-11.944610805530505" fill="none" id="id36" stroke="none" /><text fill="#e1ed5e" style="font-size:6.75px; font-family:Arial;" text-anchor="middle"><textPath startOffset="22.20632615414155" xlink:href="#id36">December</textPath></text><path d="M 89.3179101791058 81.91981866633112 l -9.284737681340879 -15.71506547209869 a39.25293501340701,39.25293501340701 0 0,0 0.5846879205961979,-0.3386889826032382 l 9.01285302827936 15.872558612091977" fill="#ffd213" stroke="none" /><path d="M 89.63071344664047 81.73862282372117 l -9.702491565996336 -17.087082811779258 a40.64959901893248,40.64959901893248 0 0,0 0.6114394818553037,-0.34026540966099794 l 9.406927995068987 17.25156361900044" fill="#ffe515" stroke="none" /><path d="M 90.26544431104013 81.39251694778311 l -7.074278280915796 -13.52239562079815 a36.26108110591179,36.26108110591179 0 0,0 0.5555534549771596,-0.2845760574525597 l 6.840464338349872 13.642164203563214" fill="#ffab0f" stroke="none" /><path d="M 90.91171255644093 81.06846463323043 l -6.758907483105883 -14.079274764557116 a36.61758010259847,36.61758010259847 0 0,0 0.5705747647167684,-0.26789250260683944 l 6.515554507089506 14.193532249803964" fill="#ffaf10" stroke="none" /><path d="M 91.23893434514133 80.91482961587045 l -4.4538278578804515 -9.702251629867774 a31.675685892574016,31.675685892574016 0 0,0 0.4974860770095544,-0.22320750138311193 l 4.286159662404122 9.777479461767417" fill="#ff6b09" stroke="none" /><path d="M 91.56875222667455 80.76684994638697 l -17.97293832789851 -40.999414209892606 a65.76581818410993,65.76581818410993 0 0,0 1.040716645942344,-0.445580555007083 l 17.264537924165857 41.302714292862476" fill="#35ff69" stroke="none" /><path d="M 91.90106846888425 80.62456947434976 l -24.29679459334727 -58.12629157695071 a84.0,84.0 0 0,0 1.338864521646478,-0.5461564552656921 l 23.29264620211241 58.53590891839998" fill="#4dd2ff" stroke="none" /><path d="M 92.23578459929587 80.48803036053334 l -6.473312551317221 -16.26784825632546 a38.50847401339912,38.50847401339912 0 0,0 0.6180001920327611,-0.23977447329966822 l 6.192329194284784 16.376865433515682" fill="#ffc912" stroke="none" /><path d="M 92.91201910852362 80.23233633223022 l -7.39268260460303 -20.617446007240265 a42.90275863798594,42.90275863798594 0 0,0 0.6973087427844732,-0.24327732834142723 l 7.0366918577552715 20.7416441887539" fill="#fdff18" stroke="none" /><path d="M 93.25333710446033 80.11325718540243 l -5.01334156754419 -14.777533121062781 a36.604777435675715,36.604777435675715 0 0,0 0.5984308991267107,-0.19729325867922692 l 4.75822784617507 14.861640104001243" fill="#ffaf10" stroke="none" /><path d="M 93.94186890950719 79.89281104454417 l -4.46725214469193 -14.826995593731704 a36.485352435795384,36.485352435795384 0 0,0 0.6028940097633141,-0.1760012938922045 l 4.2113679172051945 14.901695216542608" fill="#ffae10" stroke="none" /><path d="M 94.28887869178378 79.79150937346287 l -8.065044901672216 -28.537720616014855 a50.6554623505301,50.6554623505301 0 0,0 0.8411269830465763,-0.229911778222493 l 7.572620029401918 28.672318935063643" fill="#9fff22" stroke="none" /><path d="M 94.98787191387505 79.60689891045804 l -5.059247354658814 -20.584817659822047 a42.19742205749897,42.19742205749897 0 0,0 0.7068596929082299,-0.16729085159065563 l 4.70416397478805 20.668854423553572" fill="#fff817" stroke="none" /><path d="M 95.33964822691252 79.52364482259891 l -4.725748164822025 -20.763689655499892 a42.294682524687516,42.294682524687516 0 0,0 0.7112702315814441,-0.15545612348697346 l 4.36763520908706 20.841959277082733" fill="#fffa17" stroke="none" /><path d="M 95.692805502759 79.44645832069477 l -3.164516197266353 -15.100784419420448 a36.428799462193176,36.428799462193176 0 0,0 0.6148376281993704,-0.12333064412469384 l 2.9041121595998463 15.153019019622352" fill="#ffad10" stroke="none" /><path d="M 96.04723909329186 79.375362276772 l -2.825524305086448 -14.742964865819653 a36.011282444662314,36.011282444662314 0 0,0 0.6097994158411261,-0.11143694550519354 l 2.5713297681424283 14.789417292675584" fill="#ffa70f" stroke="none" /><path d="M 96.40284397218896 79.31037775812273 l -10.197325710984506 -58.651561179579495 a80.53142935003208,80.53142935003208 0 0,0 1.3677718493831517,-0.22569407466965682 l 9.186224655462468 58.818401517188775" fill="#49f3ff" stroke="none" /><path d="M 96.75951476605007 79.25152402106235 l -4.68056866312974 -29.969174201833923 a51.33247641308141,51.33247641308141 0 0,0 0.8741945655586972,-0.12883355469744523 l 4.164005117142394 30.045302240692337" fill="#97ff23" stroke="none" /><path d="M 97.47563105711357 79.15227682838746 l -3.688024843724003 -30.45787788217407 a51.68034961230647,51.68034961230647 0 0,0 0.8840620169047201,-0.09933466840032741 l 3.163196123309565 30.516848504044997" fill="#93ff23" stroke="none" /><path d="M 97.83486435360386 79.11191278185805 l -1.5756335687415488 -15.2008819689831 a36.28232422695909,36.28232422695909 0 0,0 0.6217665152403686,-0.05904422257999999 l 1.3137419264109438 15.225751736078282" fill="#ffab0f" stroke="none" /><path d="M 98.19473922651362 79.07773832637324 l -5.084610722596397 -58.92863657655542 a80.1475906100332,80.1475906100332 0 0,0 1.3755227597536777,-0.10676703969248326 l 4.069497773480385 59.007428878436365" fill="#48f7ff" stroke="none" /><path d="M 98.55514903715128 79.0497635885617 l -2.023036566152263 -29.333886621987897 a50.403564091783664,50.403564091783664 0 0,0 0.8660723237171413,-0.052243847707538836 l 1.5178021935954988 29.364363739075742" fill="#a2ff22" stroke="none" /><path d="M 98.91598698831166 79.02799685794201 l -1.7795934705634042 -34.42914379608191 a55.475105445114416,55.475105445114416 0 0,0 0.9540639478891427,-0.04108400052293718 l 1.1866886902849376 34.45467552312904" fill="#69ff28" stroke="none" /><path d="M 99.27714615592234 79.0124445844662 l -0.15413812676089594 -4.475292624567294 a25.477946252203992,25.477946252203992 0 0,0 0.43843100788014183,-0.011323379436076619 l 0.07708048368587511 4.47728279614573" fill="#ff1101" stroke="none" /><path d="M 99.63851952072746 79.00311137660856 l -0.8777540659130187 -50.98506120660842 a71.99261631297058,71.99261631297058 0 0,0 1.239234545185542,-0.010666482970720492 l 1.2489588869565706e-14 50.99261631297058" fill="#3dffb1" stroke="none" /></svg>