<?xml version="1.0" encoding="utf-8" ?>
<svg baseProfile="full" height="200mm" version="1.1" viewBox="0,0,200,200" width="200mm" xmlns="http://www.w3.org/2000/svg" xmlns:ev="http://www.w3.org/2001/xml-events" xmlns:xlink="http://www.w3.org/1999/xlink"><defs /><rect fill="#1a1a1a" height="200" width="200" x="0" y="0" /><text alignment-baseline="middle" fill="#e1ed5e" style="dominant-baseline: central; font-size:9.0px; font-family:Arial;" text-anchor="middle" x="100.0" y="100.0">2016</text><line stroke="#e1ed5e" stroke-width="0.3" x1="100.0" x2="100.0" y1="15.0" y2="10.0" /><path d="M 100.0 14.0 a86.0,86.0 0 0,1 42.35913384403234,11.155469271406648" fill="none" id="id1" stroke="none" /><text fill="#e1ed5e" style="font-size:6.75px; font-family:Arial;" text-anchor="middle"><textPath startOffset="22.145653131862478" xlink:href="#id1">January</textPath></text><line stroke="#e1ed5e" stroke-width="0.3" x1="143.13028292997686" x2="145.6673583964461" y1="26.7553504044142" y2="22.446841604673864" /><path d="M 143.63769802327073 25.89364864446614 a86.0,86.0 0 0,1 29.32050498858742,28.57503671076993" fill="none" id="id2" stroke="none" /><text fill="#e1ed5e" style="font-size:6.75px; font-family:Arial;" text-anchor="middle"><textPath startOffset="20.669276256404974" xlink:href="#id2">February</textPath></text><line stroke="#e1ed5e" stroke-width="0.3" x1="172.87174338648825" x2="177.1583165268699" y1="56.24261187166439" y2="53.66864786411523" /><path d="M 173.72905801456457 55.72781907015455 a86.0,86.0 0 0,1 12.242430191666344,42.057860355516425" fill="none" id="id3" stroke="none" /><text fill="#e1ed5e" style="font-size:6.75px; font-family:Arial;" text-anchor="middle"><textPath startOffset="22.145653131862474" xlink:href="#id3">March</textPath></text><line stroke="#e1ed5e" stroke-width="0.3" x1="184.99686870605535" x2="189.99668451229388" y1="99.2704041080226" y2="99.22748670261217" /><path d="M 185.99683186730306 99.26182062694052 a86.0,86.0 0 0,1 -10.086455211305974,41.156179273409016" fill="none" id="id4" stroke="none" /><text fill="#e1ed5e" style="font-size:6.75px; font-family:Arial;" text-anchor="middle"><textPath startOffset="21.40746469413373" xlink:href="#id4">April</textPath></text><line stroke="#e1ed5e" stroke-width="0.3" x1="174.33088141563837" x2="178.70328620479359" y1="141.23008692659167" y2="143.65538615756765" /><path d="M 175.20536237346943 141.71514677278685 a86.0,86.0 0 0,1 -30.301960400862466,31.631185727798858" fill="none" id="id5" stroke="none" /><text fill="#e1ed5e" style="font-size:6.75px; font-family:Arial;" text-anchor="middle"><textPath startOffset="22.145653131862474" xlink:href="#id5">May</textPath></text><line stroke="#e1ed5e" stroke-width="0.3" x1="143.1302829299769" x2="145.66735839644613" y1="173.24464959558577" y2="177.55315839532614" /><path d="M 143.63769802327073 174.10635135553383 a86.0,86.0 0 0,1 -40.68552437913181,11.842963189579606" fill="none" id="id6" stroke="none" /><text fill="#e1ed5e" style="font-size:6.75px; font-family:Arial;" text-anchor="middle"><textPath startOffset="21.407464694133747" xlink:href="#id6">June</textPath></text><path d="M 103.58742460773223 120.69131181640829 l 2.9699163996524254 17.12968856862448 a38.38524184125687,38.38524184125687 0 0,0 -0.6502140035087419,0.10699246684191303 l -2.6754248930906113 -17.178147033962063" fill="#ffa50f" stroke="none" /><path d="M 103.2317021107853 120.74984581791261 l 1.9203927110466044 12.330298801697788 a33.478949342945135,33.478949342945135 0 0,0 -0.5686238438695526,0.08356812341134619 l -1.7084437615693662 -12.361447998408016" fill="#ff5c08" stroke="none" /><path d="M 102.51750503828377 120.84855314841334 l 1.7190825454856036 14.2364695486367 a35.33988528571457,35.33988528571457 0 0,0 -0.6029053399722719,0.06755680088409059 l -1.4744413039125324 -14.263882110027762" fill="#ff780b" stroke="none" /><path d="M 102.15924093988457 120.88869738790638 l 4.44114831315362 42.964081244789824 a64.1930095680809,64.1930095680809 0 0,0 -1.0970904362673393,0.1038956049551436 l -3.7029583135012647 -43.03398860525015" fill="#32ff49" stroke="none" /><path d="M 101.08105385017728 120.97215588758144 l 0.45023634451108646 8.734464801908683 a29.746061293045024,29.746061293045024 0 0,0 -0.5101792857782664,0.021909293697676822 l -0.3002312981319904 -8.740906664032192" fill="#ff2303" stroke="none" /><path d="M 100.72087961077811 120.9876233191556 l 0.5473943141564857 15.936788197079483 a36.946186333219075,36.946186333219075 0 0,0 -0.6340435071596952,0.016330711637278103 l -0.2737374929260466 -15.943836626066807" fill="#ff900d" stroke="none" /><line stroke="#e1ed5e" stroke-width="0.3" x1="101.45913802915013" x2="101.54496967792366" y1="184.9874750549273" y2="189.98673829345242" /><path d="M 101.47630435890484 185.9873277026323 a86.0,86.0 0 0,1 -42.54439059252881,-10.42667462771756" fill="none" id="id7" stroke="none" /><text fill="#e1ed5e" style="font-size:6.75px; font-family:Arial;" text-anchor="middle"><textPath startOffset="22.145653131862474" xlink:href="#id7">July</textPath></text><path d="M 100.36049292484886 120.99690560180557 l 0.5039323685049113 29.351534085248034 a50.355859738551416,50.355859738551416 0 0,0 -0.86442529335376,0.007420051497818625 l -3.5950559665035646e-15 -29.355859738551416" fill="#b9ff1f" stroke="none" /><path d="M 100.0 121.0 l 3.533670556389787e-15 28.854609825870334 a49.854609825870334,49.854609825870334 0 0,0 -0.8558206720631581,-0.007346191172830006 l 0.49532774721430245 -28.85035803289194" fill="#bfff1e" stroke="none" /><path d="M 99.63950707515114 120.99690560180557 l -0.364154910784255 21.21019792379243 a42.21332375573184,42.21332375573184 0 0,0 -0.7244342785898541,-0.018658857271174296 l 0.728202503444853 -21.200821349171207" fill="#ffdb14" stroke="none" /><path d="M 98.55909050195518 120.95050786540614 l -1.057698927898789 15.378710278642307 a36.41503995637043,36.41503995637043 0 0,0 -0.6232711627056269,-0.048245129835741404 l 1.321539085379652 -15.358287381811513" fill="#ff880c" stroke="none" /><path d="M 97.84075906011543 120.88869738790638 l -1.386591121952982 13.414011290829734 a34.485486044262046,34.485486044262046 0 0,0 -0.588329122166941,-0.06592350527592238 l 1.6166561457207222 -13.388232025046841" fill="#ff6c09" stroke="none" /><path d="M 97.48249496171623 120.84855314841334 l -1.5933473978579609 13.195202155692128 a34.291053978516636,34.291053978516636 0 0,0 -0.5838005860980772,-0.07558467396531239 l 1.819625805846832 -13.165905885526419" fill="#ff6909" stroke="none" /><path d="M 97.12497278360702 120.80226474461374 l -8.392370567725028 60.72301277333634 a82.3002134092271,82.3002134092271 0 0,0 -1.397829520295289,-0.2054328025802195 l 9.433525193628 -60.56999889745724" fill="#4be3ff" stroke="none" /><path d="M 95.70440661134978 120.55596938700252 l -2.9272630631459022 14.00801343831061 a35.31060129864392,35.31060129864392 0 0,0 -0.5922724223409294,-0.12908301781516715 l 3.167297902105968 -13.955698962361724" fill="#ff780b" stroke="none" /><path d="M 95.35216902796893 120.47920084513623 l -7.748918773201513 34.14316588619252 a56.0114483974276,56.0114483974276 0 0,0 -0.9358388697673728,-0.22085542510796843 l 8.333889796708773 -34.00511431743833" fill="#75ff27" stroke="none" /><path d="M 94.6519064749342 120.30758222061772 l -11.684626289088321 44.36842923010263 a66.88123803759309,66.88123803759309 0 0,0 -1.1077399294280386,-0.30191944366627044 l 12.444547619451054 -44.161309292292216" fill="#36ff6b" stroke="none" /><path d="M 93.61358852112213 120.00534299687104 l -4.533801658471613 14.202069120896025 a35.90818985635306,35.90818985635306 0 0,0 -0.5856065980013744,-0.1925005203880716 l 4.776930994120731 -14.122147679105932" fill="#ff810b" stroke="none" /><path d="M 92.59220618246901 119.65005319985036 l -4.976940349488149 13.201925573101288 a35.10888989538401,35.10888989538401 0 0,0 -0.5621229817089902,-0.21744124510204102 l 5.202835593690667 -13.114544439861207" fill="#ff750a" stroke="none" /><path d="M 92.25597844496254 119.51999308798841 l -10.786097136541281 27.188010784228617 a50.24940720497145,50.24940720497145 0 0,0 -0.799074541139292,-0.3249766594176904 l 11.251226138871015 -26.998846868231634" fill="#baff1f" stroke="none" /><path d="M 91.59046798132341 119.24265499422711 l -4.346479182344892 9.945594970053419 a31.85388136064281,31.85388136064281 0 0,0 -0.49917549632448827,-0.22327485024995752 l 4.5165680815250155 -9.869516368893606" fill="#ff4406" stroke="none" /><path d="M 90.6110303473126 118.78422872680471 l -19.210424528769177 38.43371761076394 a63.9673254922794,63.9673254922794 0 0,0 -0.9780079483503684,-0.499377827010223 l 19.86735969883313 -38.098281832080886" fill="#32ff46" stroke="none" /><path d="M 90.28995756902619 118.62028667847754 l -6.709255307251992 12.865881700127654 a35.510169492448,35.510169492448 0 0,0 -0.5380825278957991,-0.2864986384856008 l 6.929126650934353 -12.74881259391948" fill="#ff7b0b" stroke="none" /><path d="M 89.97174638481275 118.45085714620012 l -30.084760845561753 55.35257143860034 a84.0,84.0 0 0,0 -1.2610232473755896,-0.6994683382674065 l 31.030528281093442 -54.82797018489979" fill="#4dd2ff" stroke="none" /><line stroke="#e1ed5e" stroke-width="0.3" x1="58.13341422392154" x2="55.67067388415222" y1="173.97424548756322" y2="178.32567169271397" /><path d="M 57.64086615596768 174.84453072859336 a86.0,86.0 0 0,1 -31.369924170532247,-30.572349798747897" fill="none" id="id8" stroke="none" /><text fill="#e1ed5e" style="font-size:6.75px; font-family:Arial;" text-anchor="middle"><textPath startOffset="22.145653131862474" xlink:href="#id8">August</textPath></text><path d="M 88.1277618465304 117.32195027204791 l -16.383942476132557 23.90466171273041 a49.98044897273505,49.98044897273505 0 0,0 -0.7035460029371244,-0.4911297501862424 l 16.791883570243446 -23.61988714673904" fill="#bdff1f" stroke="none" /><path d="M 87.83215693770417 117.11559508785305 l -15.87845818794294 22.335039955138832 a48.404004164061504,48.404004164061504 0 0,0 -0.6730899233259128,-0.4872651972732158 l 16.259529121642807 -22.059173986492553" fill="#d1ff1c" stroke="none" /><path d="M 87.2517909369889 116.68781488649013 l -9.823482563136055 12.859254013171748 a37.18212666627943,37.18212666627943 0 0,0 -0.503888737454115,-0.39182692998810004 l 10.042781245225399 -12.688726031562855" fill="#ff930d" stroke="none" /><path d="M 86.96720088162412 116.46651593811092 l -7.998568073550587 10.105929468327378 a33.88824664747034,33.88824664747034 0 0,0 -0.45305234001372274,-0.36494689522262624 l 8.170871183919571 -9.967134279311342" fill="#ff6309" stroke="none" /><path d="M 86.68645165197938 116.24036423190432 l -5.4795475998498775 6.684157109839893 a29.64311275918831,29.64311275918831 0 0,0 -0.390760687003638,-0.325986462983863 l 5.593482621015409 -6.58910846294416" fill="#ff2103" stroke="none" /><path d="M 86.40962598614128 116.0094264158162 l -11.210987664092364 13.206515278673303 a38.32334523728782,38.32334523728782 0 0,0 -0.49787595166020404,-0.430053388987953 l 11.436043095515432 -13.012117757220627" fill="#ffa40f" stroke="none" /><path d="M 86.13680546590413 115.77377054828092 l -15.4919811899915 17.62703077044769 a44.46728989409216,44.46728989409216 0 0,0 -0.569043616996488,-0.508842311215326 l 15.79228983381136 -17.35849292934898" fill="#fff917" stroke="none" /><path d="M 85.86807049272751 115.53346607816431 l -20.686004201165968 22.737542271649264 a51.73933308264337,51.73933308264337 0 0,0 -0.6518422469398941,-0.6033354523278746 l 21.073276219419828 -22.379089073189014" fill="#a8ff21" stroke="none" /><path d="M 85.34317274990678 115.03919595460226 l -23.230508823169682 23.83654854870067 a54.28419425039351,54.28419425039351 0 0,0 -0.6617710636826367,-0.6561149347323975 l 23.636271806982283 -23.434253603739613" fill="#89ff24" stroke="none" /><path d="M 85.08716467003676 114.78537596483092 l -21.265452322926972 21.083697412317452 a50.945646746611466,50.945646746611466 0 0,0 -0.6104093878740842,-0.626333806090866 l 21.624248511951865 -20.71554091415885" fill="#b1ff20" stroke="none" /><path d="M 84.83555147118756 114.52719865689866 l -10.884984762601967 10.427569174255826 a36.073721908207254,36.073721908207254 0 0,0 -0.4245433297635308,-0.4508503041141208 l 11.06238392610175 -10.239177410197215" fill="#ff830c" stroke="none" /><path d="M 84.58840730492382 114.26474011684316 l -15.899592857389555 14.716425781661007 a42.66495420761119,42.66495420761119 0 0,0 -0.49288647544011366,-0.5417685775105912 l 16.149877033671547 -14.441319628592742" fill="#ffe115" stroke="none" /><path d="M 84.3458050057657 113.99807769240083 l -20.466202762017037 18.30100471066451 a48.455276886525084,48.455276886525084 0 0,0 -0.5491342758007576,-0.6248140026726134 l 20.777348101776386 -17.9469784301806" fill="#d1ff1d" stroke="none" /><path d="M 84.1078160697243 113.72728997021213 l -24.51141863980579 21.172379625487956 a53.389493709250786,53.389493709250786 0 0,0 -0.5931456730462401,-0.6987241114048891 l 24.871258876359143 -20.74848873163351" fill="#94ff23" stroke="none" /><path d="M 82.98947788004972 112.3143062007846 l -30.102836624476783 21.792132251557476 a58.16285512321829,58.16285512321829 0 0,0 -0.5785401076966489,-0.8137891140379682 l 30.472491830703394 -21.272165910810003" fill="#5cff2a" stroke="none" /><path d="M 82.576782715395 111.72311816256416 l -12.98944353770182 8.739877312612311 a36.65602436312166,36.65602436312166 0 0,0 -0.3467931527275575,-0.5250890337390762 l 13.137561129350106 -8.515608400534173" fill="#ff8c0c" stroke="none" /><line stroke="#e1ed5e" stroke-width="0.3" x1="26.387840678322732" x2="22.057713659400548" y1="142.50000000000003" y2="145.00000000000006" /><path d="M 25.521815274538298 143.00000000000003 a86.0,86.0 0 0,1 -11.493303480769221,-40.785679425670985" fill="none" id="id9" stroke="none" /><text fill="#e1ed5e" style="font-size:6.75px; font-family:Arial;" text-anchor="middle"><textPath startOffset="21.40746469413373" xlink:href="#id9">September</textPath></text><path d="M 81.63589988554817 110.18625677009913 l -46.218744009198566 25.636758193159682 a73.85277351702906,73.85277351702906 0 0,0 -0.6054332573696372,-1.1139290021911896 l 46.65202261618354 -24.839574357493905" fill="#3fffbf" stroke="none" /><path d="M 81.4637452351635 109.86951160357371 l -35.07312946197419 18.674465936627993 a60.73487244568278,60.73487244568278 0 0,0 -0.48209586516814334,-0.9244823881824434 l 35.38853339611728 -18.069637305341043" fill="#40ff2d" stroke="none" /><path d="M 81.29705330413844 109.54985784667822 l -55.100461655545246 28.13468832765455 a82.86777482622495,82.86777482622495 0 0,0 -0.6360302446876749,-1.2724865491453738 l 55.57531181344466 -27.184669922345424" fill="#4bddff" stroke="none" /><path d="M 80.83023694016515 108.57439118712176 l -12.694124714680804 5.6779205221288445 a34.90609879612114,34.90609879612114 0 0,0 -0.23996466557753315,-0.5490861156433512 l 12.789723262275304 -5.459172336709644" fill="#ff720a" stroke="none" /><path d="M 80.5471966667186 107.91128576633889 l -16.409080792408332 6.673430306550419 a38.71419217769102,38.71419217769102 0 0,0 -0.24508171455801642,-0.6177660199115622 l 16.52122118193247 -6.390763269425292" fill="#ffa90f" stroke="none" /><path d="M 80.41425534168474 107.57618678355246 l -56.7115133582905 21.93723166905097 a81.80656116480503,81.80656116480503 0 0,0 -0.49539449727717977,-1.314092760434598 l 57.07973853938212 -20.960470628422225" fill="#4ae8ff" stroke="none" /><path d="M 80.28708602549918 107.23885506374661 l -28.890408822314264 10.608958293413085 a51.77670739360909,51.77670739360909 0 0,0 -0.2992196383320431,-0.8369705825630369 l 29.068268630690252 -10.111452754469127" fill="#a7ff21" stroke="none" /><path d="M 79.94057633289273 106.21446072829308 l -16.254596653797982 5.03571559360951 a38.01676655294367,38.01676655294367 0 0,0 -0.1877732823063926,-0.6250361868476839 l 16.338646256108003 -4.755941803171102" fill="#ff9f0e" stroke="none" /><path d="M 79.83685265289637 105.86919833188381 l -7.246764219352327 2.1094274487800937 a28.547534419434736,28.547534419434736 0 0,0 -0.13292480776596663,-0.4717032493166833 l 7.2819075191928695 -1.9847162755604149" fill="#ff1001" stroke="none" /><path d="M 79.73907114497094 105.5222062557868 l -32.69578806405875 8.911382428570585 a54.888453696179226,54.888453696179226 0 0,0 -0.23996844912721946,-0.9111992877770847 l 32.84394599399071 -8.348802636420698" fill="#82ff25" stroke="none" /><path d="M 79.64726062577567 105.17358676015961 l -6.346838518163327 1.613341532198155 a27.54868155243154,27.54868155243154 0 0,0 -0.11257240501090976,-0.4593338278719143 l 6.3735984496905305 -1.5041518797181412" fill="#ff0000" stroke="none" /><path d="M 79.34024301695615 103.76489593502545 l -16.33562925154009 2.9768958180719602 a37.604658736494,37.604658736494 0 0,0 -0.11028046530615372,-0.6360684179926749 l 16.38432453433848 -2.6960343671586924" fill="#ff9a0e" stroke="none" /><path d="M 79.17382384314188 102.69636545807758 l -28.532342464826993 3.6940829694684587 a49.77048514563991,49.77048514563991 0 0,0 -0.10242745399233681,-0.8482462541054551 l 28.59155200507899 -3.2037430384396046" fill="#c0ff1e" stroke="none" /><path d="M 79.13060592940153 102.33845913500099 l -14.419511948739752 1.6157363900800266 a35.509752889766155,35.509752889766155 0 0,0 -0.06267912300908933,-0.6063636571962262 l 14.445123464230507 -1.3679682106008688" fill="#ff7b0b" stroke="none" /><path d="M 79.01933749520258 100.90099992219065 l -22.772917010708955 0.9779670422710035 a43.793906394306475,43.793906394306475 0 0,0 -0.025807776155251268,-0.7513652440063788 l 22.786349473861055 -0.5868955337005048" fill="#fff016" stroke="none" /><line stroke="#e1ed5e" stroke-width="0.3" x1="15.003131293944662" x2="10.003315487706104" y1="100.72959589197737" y2="100.7725132973878" /><path d="M 14.003168132696942 100.73817937305945 a86.0,86.0 0 0,1 10.791469493833604,-42.45332614584628" fill="none" id="id10" stroke="none" /><text fill="#e1ed5e" style="font-size:6.75px; font-family:Arial;" text-anchor="middle"><textPath startOffset="22.145653131862435" xlink:href="#id10">October</textPath></text><path d="M 79.00077361379809 99.81974689727619 l -46.275665523962566 -0.3972209327094335 a67.27737032454459,67.27737032454459 0 0,0 0.019826219434062882,-1.1547778866178215 l 46.26202787292984 1.1915457352963075" fill="#36ff70" stroke="none" /><path d="M 79.01933749520258 99.09900007780938 l -29.299482743580036 -1.2582458569244308 a50.326487544160685,50.326487544160685 0 0,0 0.04447521985968253,-0.8628073836273054 l 29.273565934263782 1.7610250339284481" fill="#b9ff1f" stroke="none" /><path d="M 79.03789590574601 98.7389718711861 l -28.208978766731953 -1.6969821135328778 a49.259975784766425,49.259975784766425 0 0,0 0.05802365114380959,-0.8436511531899982 l 28.17569115442308 2.180976690877201" fill="#c6ff1e" stroke="none" /><path d="M 79.06263194458094 98.37931529534042 l -22.612039245167193 -1.7503148461069202 a43.67968079328904,43.67968079328904 0 0,0 0.06428479500188256,-0.7470867618237217 l 22.57866082746757 2.1382226553063224" fill="#ffef16" stroke="none" /><path d="M 79.13060592940154 97.66154086499901 l -11.369447701020881 -1.2739703292979165 a32.44060057104436,32.44060057104436 0 0,0 0.06676262272209284,-0.5528902889894266 l 11.34590299203912 1.4689542952107795" fill="#ff4d07" stroke="none" /><path d="M 79.17382384314186 97.30363454192245 l -25.48017093317122 -3.298918258092723 a46.692838933391556,46.692838933391556 0 0,0 0.1097403637603501,-0.7940266050688208 l 25.41978605285566 3.735833171361611" fill="#e7ff1a" stroke="none" /><path d="M 79.34024301695615 96.23510406497455 l -16.98234389264356 -3.0947487688791786 a38.262024042113,38.262024042113 0 0,0 0.12330157293899767,-0.645165931902184 l 16.9267160274224 3.3858172658146772" fill="#ffa30f" stroke="none" /><path d="M 79.56144815229197 95.17655741523228 l -27.750057913632148 -6.548938108126951 a49.51235354287709,49.51235354287709 0 0,0 0.20232273931018138,-0.825545819189621 l 27.633547647805667 7.024339751924689" fill="#c3ff1e" stroke="none" /><path d="M 79.64726062577567 94.8264132398404 l -21.975768147463935 -5.586154327512457 a43.67464455822575,43.67464455822575 0 0,0 0.19094246631237005,-0.7250396455993605 l 21.87663620034684 5.962574477484602" fill="#ffef16" stroke="none" /><path d="M 79.83685265289637 94.1308016681162 l -20.073099433139838 -5.842986696501297 a41.90621473122789,41.90621473122789 0 0,0 0.20698413364957438,-0.6889828629783556 l 19.969838979486635 6.186707163070377" fill="#ffd614" stroke="none" /><path d="M 79.94057633289273 93.78553927170692 l -14.522028251994982 -4.498961473911561 a36.20295888619978,36.20295888619978 0 0,0 0.1890057946282279,-0.5920579596913528 l 14.442657741589496 4.747588467294305" fill="#ff850c" stroke="none" /><path d="M 80.16572619554312 93.10060997987247 l -50.47384461672726 -17.557423239154026 a74.44036022700739,74.44036022700739 0 0,0 0.43019378376272516,-1.2033285776895706 l 50.165010662920594 18.42128677322452" fill="#40ffc6" stroke="none" /><path d="M 80.41425534168474 92.42381321644754 l -56.16923609881554 -21.727467175643692 a81.22512693048606,81.22512693048606 0 0,0 0.5141988571515704,-1.2961170195763572 l 55.78797856669784 22.688485212433633" fill="#49eeff" stroke="none" /><path d="M 80.9802524753101 91.09779779509293 l -13.768681060349165 -6.444437957706327 a36.20221558630004,36.20221558630004 0 0,0 0.2682769358588336,-0.5605956145813911 l 13.656024866530426 6.679846074352806" fill="#ff850c" stroke="none" /><path d="M 81.1358732173502 90.77261029715801 l -18.62791681493999 -9.111847571002682 a41.737045378296095,41.737045378296095 0 0,0 0.32034193315995924,-0.6408984548736968 l 18.468754968568284 9.43027788204015" fill="#ffd413" stroke="none" /><path d="M 81.29705330413844 90.45014215332179 l -25.653905224133688 -13.099066798754345 a49.80465941904299,49.80465941904299 0 0,0 0.39533499298122493,-0.7581069759142196 l 25.42526216217752 13.537520017773051" fill="#c0ff1e" stroke="none" /><path d="M 81.46374523516351 90.13048839642627 l -33.599060565561686 -17.889607276549135 a59.064877766747685,59.064877766747685 0 0,0 0.4842044467593571,-0.8908816449537967 l 33.28701076918698 18.463743754977553" fill="#52ff2b" stroke="none" /><line stroke="#e1ed5e" stroke-width="0.3" x1="26.387840678322718" x2="22.05771365940052" y1="57.49999999999999" y2="54.99999999999999" /><path d="M 25.521815274538284 56.99999999999999 a86.0,86.0 0 0,1 29.574782752854787,-30.34633250058573" fill="none" id="id11" stroke="none" /><text fill="#e1ed5e" style="font-size:6.75px; font-family:Arial;" text-anchor="middle"><textPath startOffset="21.40746469413373" xlink:href="#id11">November</textPath></text><path d="M 81.99639281039701 89.18935116829357 l -13.09578251348306 -7.863641126952908 a36.275351760727276,36.275351760727276 0 0,0 0.32515158581039705,-0.5311106793309449 l 12.958862963217271 8.087288922408396" fill="#ff860c" stroke="none" /><path d="M 82.37810715431573 88.57770195909679 l -15.259313393380465 -9.890902583795038 a39.18451536773867,39.18451536773867 0 0,0 0.3707145512526093,-0.5613090800070514 l 15.087274403207127 10.15139154214115" fill="#ffb010" stroke="none" /><path d="M 82.576782715395 88.27688183743585 l -25.441044031975466 -17.117869822433743 a51.66379279695684,51.66379279695684 0 0,0 0.5014100574793758,-0.7315722586835192 l 25.143444237680775 17.5520768161873" fill="#a8ff21" stroke="none" /><path d="M 82.78059297857968 87.97951657250589 l -23.71735016648532 -16.55655239844584 a49.92459379562942,49.92459379562942 0 0,0 0.4965949455205337,-0.6985229811634529 l 23.429640122434815 16.961252606318816" fill="#beff1f" stroke="none" /><path d="M 83.8745106332314 86.54754324733833 l -22.63038618466686 -18.879073032824735 a50.471236442434694,50.471236442434694 0 0,0 0.5607244689779931,-0.6605320145344532 l 22.302967152181754 19.264771829808744" fill="#b7ff1f" stroke="none" /><path d="M 84.10781606972428 86.27271002978789 l -23.264309059295332 -20.09515607261406 a51.74155776126396,51.74155776126396 0 0,0 0.586377060987059,-0.6671894556508434 l 22.91592093434968 20.491557806076205" fill="#a8ff21" stroke="none" /><path d="M 84.34580500576568 86.00192230759919 l -22.97321855467685 -20.54279369148742 a51.818422143451215,51.818422143451215 0 0,0 0.5986318262260969,-0.6580012418833073 l 22.617189027608887 20.934132508928386" fill="#a7ff21" stroke="none" /><path d="M 85.86807049272753 84.46653392183569 l -17.799474727962316 -19.56474073506108 a47.44995993610439,47.44995993610439 0 0,0 0.607212557650483,-0.5429732133094962 l 17.46099714348844 19.867409478253975" fill="#deff1b" stroke="none" /><path d="M 86.13680546590413 84.22622945171909 l -23.51006199786042 -26.75013487100969 a56.613097741708025,56.613097741708025 0 0,0 0.735486418006166,-0.6352956505801112 l 23.047396100091404 27.14977465405451" fill="#6eff28" stroke="none" /><path d="M 87.83215693770416 82.88440491214696 l -11.823042071158264 -16.630589313206915 a41.40492158085716,41.40492158085716 0 0,0 0.5828332413746036,-0.4068628675900983 l 11.535813738609894 16.83109699660214" fill="#ffcf13" stroke="none" /><path d="M 88.12776184653039 82.6780497279521 l -23.406419825535856 -34.150666034787974 a62.40203472860795,62.40203472860795 0 0,0 0.8887942960774866,-0.5980204680300916 l 22.816729241361383 34.54743617687517" fill="#30ff31" stroke="none" /><line stroke="#e1ed5e" stroke-width="0.3" x1="56.869717070023135" x2="54.33264160355391" y1="26.7553504044142" y2="22.446841604673864" /><path d="M 56.362301976729285 25.89364864446614 a86.0,86.0 0 0,1 42.16139366436587,-11.88097634709845" fill="none" id="id12" stroke="none" /><text fill="#e1ed5e" style="font-size:6.75px; font-family:Arial;" text-anchor="middle"><textPath startOffset="22.145653131862474" xlink:href="#id12">December</textPath></text><path d="M 89.97174638481275 81.54914285379989 l -20.33334710406709 -37.41106847886975 a63.57972579978828,63.57972579978828 0 0,0 0.9634180875579197,-0.5129658668850013 l 19.68814020072261 37.75460481347733" fill="#31ff41" stroke="none" /></svg>