<?xml version="1.0" encoding="utf-8" ?>
<svg baseProfile="full" height="200mm" version="1.1" viewBox="0,0,200,200" width="200mm" xmlns="http://www.w3.org/2000/svg" xmlns:ev="http://www.w3.org/2001/xml-events" xmlns:xlink="http://www.w3.org/1999/xlink"><defs /><rect fill="#1a1a1a" height="200" width="200" x="0" y="0" /><text alignment-baseline="middle" fill="#e1ed5e" style="dominant-baseline: central; font-size:9.0px; font-family:Arial;" text-anchor="middle" x="100.0" y="100.0">2020</text><line stroke="#e1ed5e" stroke-width="0.3" x1="100.0" x2="100.0" y1="15.0" y2="10.0" /><path d="M 100.0 14.0 a86.0,86.0 0 0,1 42.35913384403234,11.155469271406648" fill="none" id="id49" stroke="none" /><text fill="#e1ed5e" style="font-size:6.75px; font-family:Arial;" text-anchor="middle"><textPath startOffset="22.145653131862478" xlink:href="#id49">January</textPath></text><path d="M 100.0 79.0 l 0.0 -15.64664318661164 a36.64664318661164,36.64664318661164 0 0,0 0.6290883613444755,0.0053999669766072135 l -0.26859543649562073 15.644337617829468" fill="#ffbf11" stroke="none" /><path d="M 101.80034050326958 79.07731436759882 l 1.460409468482226 -16.972171735371074 a38.034888001702896,38.034888001702896 0 0,0 0.6500351385911096,0.06155900346356347 l -1.7515441704583485 16.944600976402327" fill="#ffd113" stroke="none" /><path d="M 102.15924093988457 79.11130261209362 l 1.750557563246307 -16.93505644660374 a38.025292615162115,38.025292615162115 0 0,0 0.6487189131017591,0.07269030731121812 l -2.0410123779488627 16.90251037878555" fill="#ffd113" stroke="none" /><path d="M 102.51750503828377 79.15144685158666 l 2.8418780101144945 -23.534826677276612 a44.70578700135946,44.70578700135946 0 0,0 0.7611100163243985,0.09854092956656993 l -3.2454658483296845 23.482574151509645" fill="#dbff1b" stroke="none" /><path d="M 103.58742460773223 79.30868818359171 l 4.048969945850154 -23.353382675771822 a44.701785587238724,44.701785587238724 0 0,0 0.7549605093353187,0.13757895385865646 l -4.449265188736526 23.280435547981803" fill="#dbff1b" stroke="none" /><path d="M 105.3480935250658 79.69241777938227 l 5.9768269131399165 -22.69498530422508 a44.4688052083745,44.4688052083745 0 0,0 0.7365275014135645,0.20074384570258594 l -6.365535815488174 22.589040964378352" fill="#ddff1b" stroke="none" /><path d="M 105.69591212413111 79.78721728523813 l 4.245018556199363 -15.064073290926848 a36.650766328103316,36.650766328103316 0 0,0 0.6041093239530662,0.17584741981911586 l -4.502987892534033 14.988982176805216" fill="#ffbf11" stroke="none" /><path d="M 106.38641147887787 79.99465700312896 l 7.136508654103343 -22.355011714741707 a44.466493230483565,44.466493230483565 0 0,0 0.7251791841895813,0.23838080173195647 l -7.519210575940667 22.22920999160773" fill="#ddff1b" stroke="none" /><path d="M 106.72888874123014 80.10723608172694 l 5.461785930885871 -16.146799608904686 a38.04553440537865,38.04553440537865 0 0,0 0.6168707078330523,0.21457965374946036 l -5.738162410763942 16.050661522586637" fill="#ffd113" stroke="none" /><path d="M 107.06938296918511 80.22567764915836 l 5.701623708887985 -15.948456270399008 a37.93699413492793,37.93699413492793 0 0,0 0.6113471604234979,0.22449514534802814 l -5.974560020965607 15.848230276042258" fill="#ffd013" stroke="none" /><path d="M 107.40779381753099 80.34994680014964 l 6.0785677843583485 -16.124123225307144 a38.23184076336386,38.23184076336386 0 0,0 0.6121240628844582,0.23678273744627684 l -6.354464109736333 16.01740059972283" fill="#ffd313" stroke="none" /><path d="M 108.07796709384702 80.6158196554323 l 9.014184291582174 -21.63076080122827 a44.43385011649943,44.43385011649943 0 0,0 0.7015574368459768,0.29945315260567723 l -9.384176803598582 21.47283299896319" fill="#deff1b" stroke="none" /><path d="M 108.4095320186766 80.7573450057729 l 2.0959243510666306 -4.795885085163323 a26.23387166784648,26.23387166784648 0 0,0 0.4111055027187454,0.18388226231520433 l -2.1779432566410075 4.759199071938266" fill="#ff3004" stroke="none" /><path d="M 108.73861861582097 80.90454125486305 l 9.73807325531707 -21.279447505280444 a44.40181524702534,44.40181524702534 0 0,0 0.6903663715593362,0.3231263205313977 l -10.101928340747913 21.10914495317851" fill="#deff1b" stroke="none" /><path d="M 109.3889696526874 81.21577127319529 l 11.898221121203557 -23.804412544758264 a47.61236033218585,47.61236033218585 0 0,0 0.7279539434585287,0.37169847040712656 l -12.305102286375664 23.596656122678304" fill="#b9ff1f" stroke="none" /><path d="M 109.71004243097381 81.37971332152246 l 9.027144743292128 -17.31074031891265 a40.52309075441629,40.52309075441629 0 0,0 0.6140428903310251,0.32694325299792726 l -9.322976449409714 17.15322659819215" fill="#fff016" stroke="none" /><line stroke="#e1ed5e" stroke-width="0.3" x1="143.13028292997686" x2="145.6673583964461" y1="26.7553504044142" y2="22.446841604673864" /><path d="M 143.63769802327073 25.89364864446614 a86.0,86.0 0 0,1 29.32050498858742,28.57503671076993" fill="none" id="id50" stroke="none" /><text fill="#e1ed5e" style="font-size:6.75px; font-family:Arial;" text-anchor="middle"><textPath startOffset="20.669276256404974" xlink:href="#id50">February</textPath></text><path d="M 110.65571695917076 81.90426304109057 l 11.914803870170868 -20.23394179647833 a44.481374574072774,44.481374574072774 0 0,0 0.654654086864043,0.3931009694221602 l -12.260390713592345 20.026426826520247" fill="#ddff1b" stroke="none" /><path d="M 110.96478420261332 82.08984904055464 l 32.61971198151715 -53.28184805528209 a83.4740021284318,83.4740021284318 0 0,0 1.2156830554456348,0.7586761381281087 l -33.529559165752495 52.714036120312436" fill="#4cd7ff" stroke="none" /><path d="M 111.5731344415666 82.4767994020092 l 8.614778318320681 -13.043872370216805 a36.63192284667224,36.63192284667224 0 0,0 0.5217497189325686,0.35105649584796494 l -8.837424325350252 12.894066200311721" fill="#ffbf11" stroke="none" /><path d="M 112.45986205192187 83.09580414077388 l 14.280915262238182 -19.374804282415774 a45.06922478413345,45.06922478413345 0 0,0 0.6188369646958901,0.464386795202265 l -14.611405215844838 19.126798459949494" fill="#d6ff1c" stroke="none" /><path d="M 113.03279911837588 83.53348406188908 l 14.54388554802013 -18.375724278667384 a44.43484264080975,44.43484264080975 0 0,0 0.5940498971806001,0.47852454658288296 l -14.85718621555599 18.123351438291095" fill="#deff1b" stroke="none" /><path d="M 114.13192950727249 84.46653392183569 l 15.911658418354376 -17.489699914059965 a44.64467121163364,44.64467121163364 0 0,0 0.5624595653368933,0.5206041766420916 l -16.209547755005232 17.2139779912855" fill="#dbff1b" stroke="none" /><path d="M 114.39649973595853 84.71141617570332 l 27.939867324844133 -29.671170872783456 a61.75554645801975,61.75554645801975 0 0,0 0.7655556139735958,0.7333849606181105 l -28.44509542468304 29.187173781859766" fill="#31ff3f" stroke="none" /><path d="M 114.65682725009322 84.96080404539774 l 16.41988914788372 -16.84825277901122 a44.5260787496397,44.5260787496397 0 0,0 0.5428112345160638,0.5381718501329263 l -16.706692302529742 16.563900918649633" fill="#ddff1b" stroke="none" /><path d="M 114.91283532996326 85.21462403516908 l 8.55679267851252 -8.483658137813823 a33.04952929961748,33.04952929961748 0 0,0 0.39598560893032025,0.4063161191906441 l -8.701165088593653 8.335519326555437" fill="#ff8f0d" stroke="none" /><path d="M 115.6541949942343 86.00192230759917 l 11.701059478137603 -10.463159537663909 a36.69689461076684,36.69689461076684 0 0,0 0.4158788049733403,0.4731937382404006 l -11.878949347069534 10.26075352161221" fill="#ffc011" stroke="none" /><path d="M 115.8921839302757 86.27271002978787 l 11.874205561656904 -10.256655952756896 a36.6906261523786,36.6906261523786 0 0,0 0.40762488331800256,0.48018108759042016 l -12.048525008482018 10.051308082716924" fill="#ffc011" stroke="none" /><path d="M 116.1254893667686 86.54754324733833 l 8.445905496618728 -7.045874754317551 a31.998984985504066,31.998984985504066 0 0,0 0.34826046664630256,0.42482114294869733 l -8.565612782503658 6.8998513296703585" fill="#ff810b" stroke="none" /><path d="M 116.35404254752997 86.82634096563983 l 7.914022542650542 -6.37497635609764 a31.16228696437888,31.16228696437888 0 0,0 0.33200236628154733,0.41947414413511963 l -8.022291339573648 6.238182268047842" fill="#ff760a" stroke="none" /><path d="M 116.57777611688842 87.10902102172516 l 19.878482217517025 -15.457628006266027 a46.181189782300606,46.181189782300606 0 0,0 0.4812696222515229,0.6299973844896662 l -20.140903817122854 15.11410970853548" fill="#c9ff1d" stroke="none" /><path d="M 117.21940702142032 87.97951657250589 l 7.089373336802545 -4.948933177567955 a29.64587496466377,29.64587496466377 0 0,0 0.28772064661371854,0.41979302204511676 l -7.173283720231589 4.82650542045279" fill="#ff6108" stroke="none" /><path d="M 117.42321728460499 88.27688183743584 l 18.797018814459452 -12.647473142664516 a43.65582691506896,43.65582691506896 0 0,0 0.4130164717490985,0.6253595792285733 l -19.011359725129275 12.322933685096885" fill="#e7ff1a" stroke="none" /><path d="M 117.62189284568427 88.57770195909679 l 13.209915713665394 -8.562507767924055 a36.742249281405236,36.742249281405236 0 0,0 0.33852262884872725,0.5322137996643269 l -13.354956034140011 8.334480293581056" fill="#ffc011" stroke="none" /><path d="M 117.81537515405839 88.88188828441811 l 16.223292886522596 -10.124534630744165 a40.12332171906943,40.12332171906943 0 0,0 0.35964259619005734,0.5874491526860656 l -16.394703447168055 9.844548361933544" fill="#ffeb16" stroke="none" /><line stroke="#e1ed5e" stroke-width="0.3" x1="172.87174338648825" x2="177.1583165268699" y1="56.24261187166439" y2="53.66864786411523" /><path d="M 173.72905801456457 55.72781907015455 a86.0,86.0 0 0,1 12.242430191666344,42.057860355516425" fill="none" id="id51" stroke="none" /><text fill="#e1ed5e" style="font-size:6.75px; font-family:Arial;" text-anchor="middle"><textPath startOffset="22.145653131862474" xlink:href="#id51">March</textPath></text><path d="M 118.00360718960297 89.18935116829356 l 27.07496630661013 -16.25773934015169 a52.58113185046397,52.58113185046397 0 0,0 0.458022446027756,0.7778222466261475 l -27.350062462767653 15.790565925231988" fill="#81ff25" stroke="none" /><path d="M 118.36410011445183 89.81374322990088 l 13.467096388772099 -7.469971352190158 a36.40010250443224,36.40010250443224 0 0,0 0.2984022343150606,0.5490265013956143 l -13.5933439727025 7.237690017319941" fill="#ffbc11" stroke="none" /><path d="M 118.70294669586156 90.45014215332178 l 16.52379151191053 -8.437165682657406 a39.55320594090677,39.55320594090677 0 0,0 0.3035804364909235,0.6073642334541488 l -16.666191861613193 8.152269593039508" fill="#ffe415" stroke="none" /><path d="M 118.8641267826498 90.77261029715802 l 22.61596863884694 -11.062603561900968 a46.17664066234994,46.17664066234994 0 0,0 0.34219252784730475,0.7150507733346847 l -22.802540424654158 10.67274028650118" fill="#c9ff1d" stroke="none" /><path d="M 119.0197475246899 91.09779779509293 l 21.259643691954853 -9.950586710174797 a44.473104306537365,44.473104306537365 0 0,0 0.31769793057630097,0.6942273136570726 l -21.427326087386202 9.584170414303038" fill="#ddff1b" stroke="none" /><path d="M 119.16976305983485 91.42560881287824 l 10.480502426924035 -4.687795428954032 a32.48113048024814,32.48113048024814 0 0,0 0.22329403405398496,0.5109404482945592 l -10.55943034299499 4.5071929108836235" fill="#ff880c" stroke="none" /><path d="M 119.4528033332814 92.08871423366111 l 14.587803829313193 -5.932732821060282 a36.74805827042212,36.74805827042212 0 0,0 0.23263502661390412,0.5863922355140515 l -14.687497530893221 5.681439568332665" fill="#ffc011" stroke="none" /><path d="M 119.58574465831526 92.42381321644754 l 14.62345175359855 -5.656665285815087 a36.67938784983553,36.67938784983553 0 0,0 0.22211869861754757,0.5891962373719302 l -14.718401136030538 5.404800768248999" fill="#ffbf11" stroke="none" /><path d="M 119.83427380445688 93.10060997987247 l 23.443851346226385 -8.154988461193964 a45.821724411212195,45.821724411212195 0 0,0 0.25205129419944994,0.7451448647207332 l -23.5803880619982 7.751341921999069" fill="#cdff1d" stroke="none" /><path d="M 119.94978838288452 93.4421083053983 l 21.093241452372663 -6.933767430406305 a43.20364757752779,43.20364757752779 0 0,0 0.2255544848391178,0.7065462112193873 l -21.209160652989038 6.57065218549553" fill="#edff1a" stroke="none" /><path d="M 120.05942366710727 93.78553927170692 l 10.445986466365019 -3.236193309479455 a31.935793541933787,31.935793541933787 0 0,0 0.15773800141779834,0.525058505215236 l -10.500000787786444 3.0563972006734956" fill="#ff800b" stroke="none" /><path d="M 120.35273937422433 94.82641323984039 l 15.258707077828635 -3.8787036704741666 a36.74396658565838,36.74396658565838 0 0,0 0.1501471742056234,0.6126517086077651 l -15.32304177855055 3.6161961372583065" fill="#ffc011" stroke="none" /><path d="M 120.43855184770803 95.1765574152323 l 22.274862895819634 -5.25680699210629 a43.88675461440131,43.88675461440131 0 0,0 0.1667469685577709,0.7347179103460243 l -22.361820725935072 4.873654747821239" fill="#e4ff1a" stroke="none" /><path d="M 120.51834098615036 95.52812308129327 l 15.41445141121268 -3.359507941058994 a36.77629886616867,36.77629886616867 0 0,0 0.1291413555142153,0.6179881358324838 l -15.469850477551262 3.094403353941106" fill="#ffc111" stroke="none" /><path d="M 120.592083275326 95.88100663000786 l 34.24687264037875 -6.85033366768239 a55.92528248998003,55.92528248998003 0 0,0 0.18022243910784363,0.9429999561661532 l -34.35942137176875 6.261431146482923" fill="#5dff2a" stroke="none" /><path d="M 120.65975698304385 96.23510406497455 l 10.336515708422294 -1.883657489529301 a31.506746524415664,31.506746524415664 0 0,0 0.09239755880628812,0.5329245654989212 l -10.367328084720816 1.7059398911097872" fill="#ff7a0b" stroke="none" /><path d="M 120.77682067341334 96.94652285012252 l 15.552066510268402 -2.2856182121861592 a36.71912285567134,36.71912285567134 0 0,0 0.08629952667667636,0.6244203849713188 l -15.589010553500291 2.018309519014755" fill="#ffc011" stroke="none" /><path d="M 120.82617615685814 97.30363454192243 l 17.513425224476002 -2.2674635262964946 a38.65959948403126,38.65959948403126 0 0,0 0.07956129693984831,0.6588816715687215 l -17.549768607675514 1.9664881778043601" fill="#ffd914" stroke="none" /><path d="M 120.86939407059847 97.66154086499901 l 21.826966120365505 -2.4457570804815414 a42.96356477706452,42.96356477706452 0 0,0 0.07583602651165447,0.7336447636028416 l -21.865734539358826 2.0707077945957684" fill="#f0ff19" stroke="none" /><path d="M 120.9064616781168 98.02013634271609 l 15.637063706710729 -1.4808461908193449 a36.707026033230925,36.707026033230925 0 0,0 0.05402291410604219,0.6278281506938187 l -15.66018024351451 1.2121969927498641" fill="#ffc011" stroke="none" /><path d="M 120.93736805541906 98.37931529534042 l 8.557053798898586 -0.6623700826252916 a29.582651329490307,29.582651329490307 0 0,0 0.03484560057745627,0.5066473848381294 l -8.567163360641107 0.5153792736328281" fill="#ff6008" stroke="none" /><path d="M 120.96210409425399 98.7389718711861 l 36.74420214739666 -2.210439957284293 a57.810629392249034,57.810629392249034 0 0,0 0.05108920923977544,0.9911170106597087 l -36.77673294609301 1.579351153247854" fill="#4aff2c" stroke="none" /><line stroke="#e1ed5e" stroke-width="0.3" x1="184.99686870605535" x2="189.99668451229388" y1="99.2704041080226" y2="99.22748670261217" /><path d="M 185.99683186730306 99.26182062694052 a86.0,86.0 0 0,1 -10.086455211305974,41.156179273409016" fill="none" id="id52" stroke="none" /><text fill="#e1ed5e" style="font-size:6.75px; font-family:Arial;" text-anchor="middle"><textPath startOffset="21.40746469413373" xlink:href="#id52">April</textPath></text><path d="M 120.99922638620191 99.81974689727618 l 15.435691441517928 -0.13249684649570947 a36.43626009407982,36.43626009407982 0 0,0 0.0,0.6254998984390708 l -15.435691441517928 -0.1324968464957076" fill="#ffbc11" stroke="none" /><path d="M 120.99922638620191 100.18025310272382 l 34.274134963025546 0.29420222710299154 a55.27539762590833,55.27539762590833 0 0,0 -0.016289313291368488,0.9487708354902166 l -34.264034218135514 -0.8825199785622793" fill="#64ff29" stroke="none" /><path d="M 120.99303781780057 100.54070618675476 l 16.921489177953593 0.4358375365696229 a37.9271010618441,37.9271010618441 0 0,0 -0.022350464140122983,0.6507093769441092 l -16.911514026816622 -0.7262531780778427" fill="#ffcf13" stroke="none" /><path d="M 120.98066250479742 100.90099992219065 l 17.061136561415047 0.7326786134996424 a38.07686150081253,38.07686150081253 0 0,0 -0.033649810854157206,0.6527973409514354 l -17.046045161104317 -1.0254477478278083" fill="#ffd113" stroke="none" /><path d="M 120.96210409425399 101.26102812881392 l 16.863622761579347 1.0144736692671654 a37.89410931273068,37.89410931273068 0 0,0 -0.04463572188452081,0.6489936000065581 l -16.84372307852976 -1.3038106934280669" fill="#ffcf13" stroke="none" /><path d="M 120.9064616781168 101.97986365728391 l 18.66626592565967 1.76771479040348 a39.74978131039545,39.74978131039545 0 0,0 -0.07016329964539733,0.6787662770547743 l -18.633170233532606 -2.0878855897411857" fill="#ffe715" stroke="none" /><path d="M 120.86939407059847 102.33845913500097 l 16.73321736010228 1.8749919073508614 a37.83793805289292,37.83793805289292 0 0,0 -0.07787032108962459,0.6448779657767022 l -16.698564952752992 -2.161963550050972" fill="#ffce13" stroke="none" /><path d="M 120.82617615685814 102.69636545807757 l 18.612670252082097 2.409782802772248 a39.768019263344726,39.768019263344726 0 0,0 -0.09346522935162344,0.6762678399364116 l -18.568560506175263 -2.7289389509087445" fill="#ffe715" stroke="none" /><path d="M 120.65975698304385 103.76489593502545 l 32.33803053117186 5.893066399254432 a53.87060161026909,53.87060161026909 0 0,0 -0.1736011118075044,0.9083543738242134 l -32.2321031270822 -6.44732333811196" fill="#73ff27" stroke="none" /><path d="M 120.51834098615036 104.47187691870673 l 22.715994950801 4.950845371685405 a44.24924292313957,44.24924292313957 0 0,0 -0.1681242366458541,0.7407864076651335 l -22.627659852597482 -5.340066113289556" fill="#e0ff1b" stroke="none" /><path d="M 120.43855184770803 104.8234425847677 l 16.54757463268679 3.9051825566043656 a38.002137425181175,38.002137425181175 0 0,0 -0.15528844810106857,0.6336298605652257 l -16.478098658069424 -4.188668241777691" fill="#ffd013" stroke="none" /><path d="M 120.26092885502905 105.52220625578681 l 22.784244030184396 6.209947027459567 a44.61535979211088,44.61535979211088 0 0,0 -0.20774081700513178,0.7371988723847045 l -22.674284721104684 -6.600153823747279" fill="#dcff1b" stroke="none" /><path d="M 120.16314734710363 105.8691983318838 l 31.524925873075734 9.176446472459805 a53.83333856257752,53.83333856257752 0 0,0 -0.26589485629528825,0.8850774989917825 l -31.362754696776815 -9.71626157504231" fill="#73ff27" stroke="none" /><path d="M 119.94978838288452 106.5578916946017 l 23.1677274364574 7.615692177902293 a45.38734019770387,45.38734019770387 0 0,0 -0.24966187947092452,0.7380809846470238 l -23.03358013541411 -8.012274837023478" fill="#d3ff1c" stroke="none" /><path d="M 119.83427380445688 106.89939002012753 l 16.34863920507065 5.6869053682612885 a38.30950306984958,38.30950306984958 0 0,0 -0.22139213229799906,0.6192731966967482 l -16.248606902728707 -5.966713521338957" fill="#ffd413" stroke="none" /><path d="M 119.71291397450082 107.23885506374661 l 14.875218606553814 5.462386315573444 a36.846444170643736,36.846444170643736 0 0,0 -0.22313033852619782,0.5918797324196743 l -14.779257584213177 -5.7169343281872775" fill="#ffc212" stroke="none" /><path d="M 119.58574465831526 107.57618678355244 l 21.79795646219784 8.431917833016438 a44.371952085151406,44.371952085151406 0 0,0 -0.2808983859304603,0.7080474289515575 l -21.649999401301255 -8.804866279181558" fill="#dfff1b" stroke="none" /><path d="M 119.31412917781788 108.2440532568976 l 33.1919349952097 14.167663334998348 a57.08915672470171,57.08915672470171 0 0,0 -0.3924638064414393,0.8980339938419228 l -32.94383730675129 -14.735359398616115" fill="#51ff2b" stroke="none" /><path d="M 119.16976305983485 108.57439118712176 l 15.758010825998884 7.048357808663401 a38.262510043190254,38.262510043190254 0 0,0 -0.27333194857704657,0.5972796362037565 l -15.63469441256678 -7.3178264270818465" fill="#ffd413" stroke="none" /><path d="M 119.0197475246899 108.90220220490707 l 15.6912112701521 7.344279170135209 a38.324911187461545,38.324911187461545 0 0,0 -0.2840071960768208,0.593465808458464 l -15.562824816115368 -7.612557480658777" fill="#ffd513" stroke="none" /><path d="M 118.8641267826498 109.22738970284198 l 21.257552360001604 10.398134088809899 a44.664418963225785,44.664418963225785 0 0,0 -0.34281023451620385,0.6858501085045816 l -21.075922212273667 -10.761516053478225" fill="#dbff1b" stroke="none" /><path d="M 118.70294669586154 109.54985784667822 l 15.422549385972925 7.874863606492859 a38.31671176591097,38.31671176591097 0 0,0 -0.3041469845138087,0.5832419460883496 l -15.285094332484165 -8.138451795685711" fill="#ffd413" stroke="none" /><path d="M 118.5362547648365 109.86951160357373 l 15.487958408037168 8.246465489553188 a38.546539508389706,38.546539508389706 0 0,0 -0.3159983825050169,0.5814014321696515 l -15.344114675916812 -8.511121755197443" fill="#ffd714" stroke="none" /><line stroke="#e1ed5e" stroke-width="0.3" x1="174.33088141563837" x2="178.70328620479359" y1="141.23008692659167" y2="143.65538615756765" /><path d="M 175.20536237346943 141.71514677278685 a86.0,86.0 0 0,1 -30.301960400862466,31.631185727798858" fill="none" id="id53" stroke="none" /><text fill="#e1ed5e" style="font-size:6.75px; font-family:Arial;" text-anchor="middle"><textPath startOffset="22.145653131862474" xlink:href="#id53">May</textPath></text><path d="M 118.18653347947321 110.5 l 40.93167454404807 23.631913316388296 a68.26382663277661,68.26382663277661 0 0,0 -0.594630882775178,1.009813237680178 l -40.51996995114313 -24.331077722362025" fill="#39ff8b" stroke="none" /><path d="M 118.00360718960297 110.81064883170644 l 16.087332514239915 9.65998094819442 a39.764794146038476,39.764794146038476 0 0,0 -0.3564289592914586,0.5821999183263963 l -15.91913559049305 -9.934717982645372" fill="#ffe715" stroke="none" /><path d="M 117.81537515405839 111.11811171558189 l 15.261927129767134 9.524571296224806 a38.99010500500738,38.99010500500738 0 0,0 -0.3592331200056081,0.5647741316840912 l -15.096176318135637 -9.785159102587569" fill="#ffdd14" stroke="none" /><path d="M 117.62189284568427 111.42229804090321 l 14.296047063072898 9.266524986343311 a38.036591412372374,38.036591412372374 0 0,0 -0.3598543400188643,0.5448653360112993 l -14.134868284133306 -9.510570200693671" fill="#ffd113" stroke="none" /><path d="M 117.423217284605 111.72311816256416 l 16.759391564490812 11.276466592470724 a41.199898624078145,41.199898624078145 0 0,0 -0.39985534198835654,0.5834008937826822 l -16.563346485687138 -11.56250222132345" fill="#fff917" stroke="none" /><path d="M 117.21940702142032 112.02048342749411 l 15.554454135255087 10.858217006193335 a39.96949972981207,39.96949972981207 0 0,0 -0.3975726196604076,0.5592356789355768 l -15.36576641706472 -11.123629911838416" fill="#ffe915" stroke="none" /><path d="M 116.79662413953412 112.60449989151573 l 16.662850024891853 12.50411330195532 a41.83274874854911,41.83274874854911 0 0,0 -0.4359530640692461,0.5706765551480086 l -16.445744983468302 -12.788310770344205" fill="#fdff18" stroke="none" /><path d="M 116.57777611688842 112.89097897827486 l 27.3434457995499 21.262428839083363 a55.6374783771857,55.6374783771857 0 0,0 -0.5927605536871757,0.7489335956242129 l -26.974418815221163 -21.72868237862226" fill="#60ff29" stroke="none" /><path d="M 116.35404254752997 113.17365903436017 l 13.440086985243846 10.826382701473745 a38.25822993732819,38.25822993732819 0 0,0 -0.4163828639274438,0.5079193910848339 l -13.252257302077775 -11.055504374257072" fill="#ffd413" stroke="none" /><path d="M 115.89218393027572 113.72728997021213 l 19.172539209223707 16.560782730993044 a46.334675533591856,46.334675533591856 0 0,0 -0.5251019110506516,0.5974695831473401 l -18.88542623421447 -16.887464591951677" fill="#c7ff1e" stroke="none" /><path d="M 115.6541949942343 113.99807769240083 l 12.874163192290641 11.512156112576026 a38.27060555574276,38.27060555574276 0 0,0 -0.4421208046665105,0.48596821249382866 l -12.674644686782251 -11.731461900627526" fill="#ffd413" stroke="none" /><path d="M 115.41159269507618 114.26474011684316 l 12.645572609467317 11.704553219885737 a38.23099163421675,38.23099163421675 0 0,0 -0.4499317406130723,0.47781191662812716 l -12.442785035117986 -11.919906596458361" fill="#ffd313" stroke="none" /><path d="M 115.16444852881244 114.52719865689866 l 14.335435148053934 13.733022591173363 a40.85196741821168,40.85196741821168 0 0,0 -0.48947115244663064,0.5022405224652571 l -14.097577194456496 -13.977085805706357" fill="#fff417" stroke="none" /><path d="M 114.91283532996324 114.78537596483092 l 23.336288727930597 23.13683446722201 a53.8617632021925,53.8617632021925 0 0,0 -0.6566212655146579,0.6510091516688925 l -22.935675542285974 -23.534023629119563" fill="#73ff27" stroke="none" /><path d="M 114.39649973595853 115.28858382429668 l 10.824498138265014 11.495241911438795 a36.78956448252458,36.78956448252458 0 0,0 -0.46349635659052746,0.42900530806137027 l -10.625572010360518 -11.679364965632546" fill="#ffc111" stroke="none" /><path d="M 114.13192950727249 115.5334660781643 l 13.747824766361324 15.111267682656079 a41.429221639197706,41.429221639197706 0 0,0 -0.5301657507589584,0.4740774834929107 l -13.486393988778987 -15.345040696032376" fill="#fffc17" stroke="none" /><path d="M 113.86319453409587 115.77377054828091 l 15.542745657617502 17.684791415901266 a44.544188030198086,44.544188030198086 0 0,0 -0.578693740568563,0.4998618701862414 l -15.236872437286083 -17.948997418552224" fill="#ddff1b" stroke="none" /><path d="M 113.31354834802062 116.24036423190432 l 11.98817621885841 14.62362573682018 a39.90943676435107,39.90943676435107 0 0,0 -0.5335496965308251,0.4297898675239172 l -11.735375751972333 -14.8272638981375" fill="#ffe915" stroke="none" /><path d="M 113.03279911837588 116.46651593811092 l 23.949137572650073 30.258952966444394 a59.58970620643818,59.58970620643818 0 0,0 -0.8075541804028847,0.6279590151290793 l -23.42617344761196 -30.665613033194266" fill="#38ff2e" stroke="none" /><path d="M 112.7482090630111 116.68781488649013 l 9.57587603517517 12.535129119794627 a36.774246856536934,36.774246856536934 0 0,0 -0.5049401983876225,0.3789165384024145 l -9.35928284787678 -12.697664685461056" fill="#ffc111" stroke="none" /><path d="M 112.16784306229584 117.11559508785304 l 10.019204079061112 14.09326527650165 a38.29174879911578,38.29174879911578 0 0,0 -0.5390109005980936,0.37627147031359687 l -9.77579808728926 -14.263181562620371" fill="#ffd413" stroke="none" /><path d="M 111.8722381534696 117.32195027204791 l 9.749562430495237 14.224902955295788 a38.2453423182524,38.2453423182524 0 0,0 -0.5447297071614311,0.366518457492632 l -9.503936435236803 -14.390171086845541" fill="#ffd413" stroke="none" /><path d="M 111.5731344415666 117.5232005979908 l 10.6295020473156 16.094420882459875 a40.28773437487273,40.28773437487273 0 0,0 -0.5803627853434362,0.37618414571536846 l -10.351653629715155 -16.274518869879138" fill="#ffed16" stroke="none" /><path d="M 111.27062007382361 117.71928675628689 l 10.374037272186104 16.309709673667662 a40.329440730761846,40.329440730761846 0 0,0 -0.5873423638721955,0.36654507470966147 l -10.092530779524193 -16.485390545218873" fill="#ffee16" stroke="none" /><path d="M 110.96478420261333 117.91015095944535 l 24.973012480954203 40.791539092889856 a68.82887217926695,68.82887217926695 0 0,0 -1.012988085414599,0.6082702397797349 l -24.269091638982168 -41.21422333320552" fill="#3aff92" stroke="none" /><line stroke="#e1ed5e" stroke-width="0.3" x1="143.1302829299769" x2="145.66735839644613" y1="173.24464959558577" y2="177.55315839532614" /><path d="M 143.63769802327073 174.10635135553383 a86.0,86.0 0 0,1 -40.68552437913181,11.842963189579606" fill="none" id="id54" stroke="none" /><text fill="#e1ed5e" style="font-size:6.75px; font-family:Arial;" text-anchor="middle"><textPath startOffset="21.407464694133747" xlink:href="#id54">June</textPath></text><path d="M 110.65571695917076 118.09573695890943 l 8.764520365503126 14.884071687794878 a38.27288068750364,38.27288068750364 0 0,0 -0.5690038870151868,0.32851454733816277 l -8.507724010627541 -15.032333132409212" fill="#ffd413" stroke="none" /><path d="M 110.34350942703117 118.27599006163325 l 9.473321545923163 16.738451455507754 a40.23329348397829,40.23329348397829 0 0,0 -0.6039895047831281,0.33502279686028474 l -9.18458785298394 -16.89860716780118" fill="#ffed16" stroke="none" /><path d="M 110.02825361518725 118.45085714620011 l 0.9852456430349212 1.8127410126547696 a23.06318660234113,23.06318660234113 0 0,0 -0.34947447240317425,0.18607547232675156 l -0.9539823548451932 -1.8293869527040898" fill="#ff0200" stroke="none" /><path d="M 109.71004243097381 118.62028667847754 l 7.851103509470586 15.055526186210727 a37.979655328071246,37.979655328071246 0 0,0 -0.5806777835497324,0.2964982137735085 l -7.591498504207271 -15.188082351657071" fill="#ffd013" stroke="none" /><path d="M 109.3889696526874 118.78422872680471 l 9.170397912404619 18.3469388308349 a41.51112776846345,41.51112776846345 0 0,0 -0.6401406318756949,0.31312486090653846 l -8.854097031266855 -18.501657441838663" fill="#fffd17" stroke="none" /><path d="M 109.06512990194946 118.94263497670748 l 22.375159553929453 46.75547781003411 a72.8336036785828,72.8336036785828 0 0,0 -1.1324282671650985,0.5300336086885368 l -21.56924257289285 -47.13268765029318" fill="#3fffbd" stroke="none" /><path d="M 108.73861861582097 119.09545874513695 l 6.492683018129557 14.187684137339664 a36.60273418202167,36.60273418202167 0 0,0 -0.5735937732448352,0.2565611989541619 l -6.248175842029095 -14.297049087203675" fill="#ffbe11" stroke="none" /><path d="M 108.07796709384702 119.3841803445677 l 10.02630946757678 24.059492772382335 a47.06503546907116,47.06503546907116 0 0,0 -0.7484361251814277,0.30438245648797696 l -9.611818881204913 -24.228062485449605" fill="#bfff1e" stroke="none" /><path d="M 107.74402155503746 119.51999308798841 l 7.264692592804954 18.31177098230936 a40.70017043013847,40.70017043013847 0 0,0 -0.6516441057072959,0.25206993899736296 l -6.949276224604128 -18.433780809444762" fill="#fff316" stroke="none" /><path d="M 107.06938296918513 119.77432235084164 l 6.354147966139165 17.773682752097958 a39.875354167480275,39.875354167480275 0 0,0 -0.6465394253184532,0.22489997378471202 l -6.04810276877569 -17.880141158451263" fill="#ffe815" stroke="none" /><path d="M 106.72888874123015 119.89276391827305 l 14.969474799001148 44.25459234188917 a67.71781372351157,67.71781372351157 0 0,0 -1.104371974119473,0.3630290035077443 l -14.207580087233941 -44.50504226679893" fill="#38ff85" stroke="none" /><path d="M 105.69591212413111 120.21278271476187 l 8.948991834190183 31.756814978647103 a53.99363199825729,53.99363199825729 0 0,0 -0.8942852114324509,0.243741411085611 l -8.402525221823037 -31.905756883876855" fill="#72ff27" stroke="none" /><path d="M 105.3480935250658 120.30758222061773 l 4.625418397556037 17.563467050993907 a39.162320066659944,39.162320066659944 0 0,0 -0.65157653982399,0.16562820845301696 l -4.32323656450665 -17.640280491282194" fill="#ffdf14" stroke="none" /><path d="M 104.9986988182912 120.39639698878246 l 3.7706901668859216 15.385702632069098 a36.841021110304354,36.841021110304354 0 0,0 -0.615539510999816,0.14526564856876326 l -3.5060185021462265 -15.448164424284087" fill="#ffc112" stroke="none" /><path d="M 104.64783097203109 120.47920084513623 l 4.525072451620616 19.93830415374062 a41.44534796034262,41.44534796034262 0 0,0 -0.695171867044291,0.15150947285981697 l -4.182138167957189 -20.013045084734156" fill="#fffc17" stroke="none" /><path d="M 104.29559338865022 120.5559693870025 l 3.726439550401576 17.83236223497402 a39.217560061713115,39.217560061713115 0 0,0 -0.6601688243198238,0.1320522539702001 l -3.4197742405507934 -17.89370388560708" fill="#ffe015" stroke="none" /><path d="M 103.94208987418118 120.62667999033965 l 6.177192521700711 32.32168150664134 a53.90666806084925,53.90666806084925 0 0,0 -0.9104201329131341,0.1659088759070726 l -5.6214376552365195 -32.42295855647978" fill="#73ff27" stroke="none" /><path d="M 103.2317021107853 120.74984581791261 l 2.646791771983086 16.99430185643659 a38.19918027906916,38.19918027906916 0 0,0 -0.648794694852856,0.09535047767101441 l -2.354671971522544 -17.037233407406486" fill="#ffd313" stroke="none" /><path d="M 102.875027216393 120.80226474461374 l 3.2538796581677456 23.54345228816308 a44.76724381317382,44.76724381317382 0 0,0 -0.7621563102872674,0.09867639326759867 l -2.8492455259897027 -23.595840277631073" fill="#daff1c" stroke="none" /><path d="M 102.51750503828377 120.84855314841334 l 2.3085474876291516 19.118084873539544 a40.256961357766194,40.256961357766194 0 0,0 -0.6867916173872175,0.07695643323846599 l -1.9800199686411346 -19.15489706728498" fill="#ffed16" stroke="none" /><path d="M 102.15924093988457 120.88869738790638 l 1.603794773911582 15.515259592260119 a36.597930564406475,36.597930564406475 0 0,0 -0.6254768218462085,0.059233305334636076 l -1.3372183886803584 -15.540504653099937" fill="#ffbe11" stroke="none" /><path d="M 101.80034050326958 120.92268563240118 l 2.806758218298196 32.61878502481163 a53.73931929944268,53.73931929944268 0 0,0 -0.9197894074234881,0.07119751728934783 l -2.246399816099472 -32.66216030909603" fill="#74ff27" stroke="none" /><path d="M 101.44090949804482 120.95050786540614 l 1.5058359293881576 21.894523927745333 a42.946246145271616,42.946246145271616 0 0,0 -0.7359261538135876,0.04427148994757556 l -1.1297654234421048 -21.917147395517603" fill="#f0ff19" stroke="none" /><path d="M 101.08105385017728 120.97215588758144 l 1.0480930352391955 20.332724883335075 a41.35972004208089,41.35972004208089 0 0,0 -0.7093669384723386,0.030463268556079785 l -0.6989003361660273 -20.347720720316985" fill="#fffb17" stroke="none" /><path d="M 100.72087961077811 120.9876233191556 l 0.593554675861331 17.28069676274353 a38.2908874196535,38.2908874196535 0 0,0 -0.6571202865932939,0.01692508761651552 l -0.2968210751972932 -17.288339567710093" fill="#ffd413" stroke="none" /><line stroke="#e1ed5e" stroke-width="0.3" x1="101.45913802915013" x2="101.54496967792366" y1="184.9874750549273" y2="189.98673829345242" /><path d="M 101.47630435890484 185.9873277026323 a86.0,86.0 0 0,1 -42.54439059252881,-10.42667462771756" fill="none" id="id55" stroke="none" /><text fill="#e1ed5e" style="font-size:6.75px; font-family:Arial;" text-anchor="middle"><textPath startOffset="22.145653131862474" xlink:href="#id55">July</textPath></text><path d="M 100.36049292484886 120.99690560180557 l 0.2708435648084108 15.775279821436351 a36.77760468769626,36.77760468769626 0 0,0 -0.6313364896572611,0.0054192644543451535 l -1.93219930789995e-15 -15.777604687696261" fill="#ffc111" stroke="none" /><path d="M 100.0 121.0 l 2.103003188780182e-15 17.172324218251127 a38.17232421825113,38.17232421825113 0 0,0 -0.6552787050340964,-0.005624779578016205 l 0.2947857801852421 -17.169793836867544" fill="#ffd313" stroke="none" /><path d="M 99.27912038922189 120.98762331915562 l -1.1881953849569309 34.59301219813686 a55.61341215790894,55.61341215790894 0 0,0 -0.953834210684139,-0.0409617451027928 l 1.7818553562419086 -34.567517884608236" fill="#61ff29" stroke="none" /><path d="M 98.91894614982273 120.97215588758144 l -0.8089262153392219 15.692952471205384 a36.71378754105369,36.71378754105369 0 0,0 -0.6291268476789331,-0.03784670889658506 l 1.0781974151506013 -15.676753784484108" fill="#ffc011" stroke="none" /><path d="M 98.55909050195518 120.95050786540614 l -1.085690655230989 15.785703850712803 a36.822994983923394,36.822994983923394 0 0,0 -0.6302536239265726,-0.04878561649441368 l 1.3565132739327979 -15.764740467223335" fill="#ffc112" stroke="none" /><path d="M 98.19965949673042 120.92268563240118 l -2.11876222756612 24.623228737377325 a45.714217503901786,45.714217503901786 0 0,0 -0.7812786962696537,-0.07398790482913452 l 2.541140487220789 -24.583229077043004" fill="#cfff1d" stroke="none" /><path d="M 97.84075906011543 120.88869738790638 l -1.7675694966885878 17.09963147067585 a38.190744555095684,38.190744555095684 0 0,0 -0.6515415554869304,-0.0730065902779457 l 2.0608469537763177 -17.066769119890935" fill="#ffd313" stroke="none" /><path d="M 97.48249496171623 120.84855314841334 l -2.269025447298311 18.79078568412737 a39.9272846205496,39.9272846205496 0 0,0 -0.6797566554059569,-0.0880081082446513 l 2.591259924595062 -18.74906597968232" fill="#ffe915" stroke="none" /><path d="M 97.12497278360702 120.80226474461374 l -3.440349710290506 24.89265669537094 a46.129273039280136,46.129273039280136 0 0,0 -0.7834835042704529,-0.11514509439151738 l 3.867158320168644 -24.82993052768054" fill="#caff1d" stroke="none" /><path d="M 96.76829788921471 120.74984581791261 l -7.6683763648231285 49.23647718419821 a70.83005801303716,70.83005801303716 0 0,0 -1.1998021473949498,-0.1974269867755721 l 8.512456015271141 -49.09758419892697" fill="#3cffa8" stroke="none" /><path d="M 96.41257539226777 120.69131181640829 l -3.6811223540609967 21.23173551802549 a42.54848613923848,42.54848613923848 0 0,0 -0.7185938177891508,-0.1309517312207118 l 4.0450509054012045 -21.165415612873414" fill="#f5ff19" stroke="none" /><path d="M 96.05791012581884 120.62667999033965 l -3.3040890441969397 17.288390054372805 a38.60129072210668,38.60129072210668 0 0,0 -0.6497948539669491,-0.12997716935964052 l 3.600380383694847 -17.229123488350304" fill="#ffd814" stroke="none" /><path d="M 95.70440661134978 120.55596938700252 l -3.7878133663063576 18.12605816164988 a39.5176001300785,39.5176001300785 0 0,0 -0.6628373319442928,-0.14446231143051866 l 4.098413114869787 -18.05836439208564" fill="#ffe415" stroke="none" /><path d="M 95.35216902796893 120.47920084513623 l -4.2030961426514235 18.519617127806423 a39.990582817410115,39.990582817410115 0 0,0 -0.6681623649443492,-0.15768449881507005 l 4.520390661335661 -18.444736485345125" fill="#ffea16" stroke="none" /><path d="M 95.00130118170881 120.39639698878247 l -4.4988974425486346 18.357036818115166 a39.900287800459715,39.900287800459715 0 0,0 -0.6638547312506963,-0.16874927670019588 l 4.8133574670247095 -18.277102309579703" fill="#ffe915" stroke="none" /><path d="M 94.6519064749342 120.30758222061772 l -8.057228727190434 30.59460985131696 a52.637779421390555,52.637779421390555 0 0,0 -0.8718285093455522,-0.23762073707130238 l 8.581238637470681 -30.451788620101514" fill="#80ff25" stroke="none" /><path d="M 94.30408787586889 120.21278271476187 l -17.08773637239334 60.63834814428561 a84.0,84.0 0 0,0 -1.3845599504735728,-0.40302522278993624 l 18.12615633524852 -60.33607922719316" fill="#4dd2ff" stroke="none" /><path d="M 93.95794788825049 120.11202640906438 l -4.852348356893332 16.15188953932425 a37.86501764799485,37.86501764799485 0 0,0 -0.6209130244556156,-0.19236044216426398 l 5.128902014220581 -16.06621250935334" fill="#ffcf13" stroke="none" /><path d="M 93.61358852112213 120.00534299687104 l -5.061043465918979 15.853646573297834 a37.64188302551605,37.64188302551605 0 0,0 -0.61388043087441,-0.20179469084311819 l 5.332446634441132 -15.764430961052692" fill="#ffcc13" stroke="none" /><path d="M 93.27111125876986 119.89276391827306 l -4.909147041538953 14.513020930045887 a36.32081920758158,36.32081920758158 0 0,0 -0.5889061568941825,-0.20485213130184804 l 5.157558970478157 -14.42661036617545" fill="#ffbb11" stroke="none" /><path d="M 92.93061703081489 119.77432235084164 l -5.838853665743078 16.332312883468823 a38.344643445556414,38.344643445556414 0 0,0 -0.6179163484729084,-0.22690744219250772 l 6.118359165870105 -16.229674592267596" fill="#ffd513" stroke="none" /><path d="M 92.59220618246901 119.65005319985036 l -6.956969077124705 18.45418701472147 a40.721978529406826,40.721978529406826 0 0,0 -0.6519932717966466,-0.25220500394166484 l 7.272734611414879 -18.332042122641763" fill="#fff316" stroke="none" /><path d="M 92.25597844496254 119.51999308798841 l -8.382618191378882 21.129673773767035 a43.73172676081284,43.73172676081284 0 0,0 -0.6954292883910504,-0.2828250374243245 l 8.744101940960373 -20.98266147976342" fill="#e6ff1a" stroke="none" /><path d="M 91.92203290615298 119.3841803445677 l -12.718680022930656 30.520201982145785 a54.064294194140466,54.064294194140466 0 0,0 -0.8536106495449466,-0.3643556274639422 l 13.240725747646033 -30.29737170502244" fill="#71ff27" stroke="none" /><path d="M 91.59046798132341 119.24265499422711 l -6.795333850553761 15.54905368888489 a37.96907872455976,37.96907872455976 0 0,0 -0.5950054721034225,-0.2661383795077917 l 7.061252725512818 -15.430111558467242" fill="#ffd013" stroke="none" /><path d="M 91.26138138417905 119.09545874513695 l -4.576709302392571 10.000935790251509 a31.99840828117143,31.99840828117143 0 0,0 -0.4975162591404977,-0.23286273034635654 l 4.747714275404559 -9.920896828334627" fill="#ff810b" stroke="none" /><path d="M 90.93487009805054 118.94263497670748 l -8.87060324976801 18.536149090088056 a41.54936556453184,41.54936556453184 0 0,0 -0.6407302946541499,-0.31341329451986405 l 9.18749379368423 -18.38114204547097" fill="#fffd17" stroke="none" /><path d="M 90.6110303473126 118.78422872680471 l -6.971616023226125 13.94790214688282 a36.59318454563793,36.59318454563793 0 0,0 -0.5594797823055034,-0.28567436329646645 l 7.210023027245211 -13.826169831913518" fill="#ffbe11" stroke="none" /><path d="M 89.97174638481275 118.45085714620012 l -10.188992551163347 18.746598683992463 a42.33660074675275,42.33660074675275 0 0,0 -0.6355647351965948,-0.35253704490740223 l 10.509301474516043 -18.56892872365191" fill="#f7ff18" stroke="none" /><line stroke="#e1ed5e" stroke-width="0.3" x1="58.13341422392154" x2="55.67067388415222" y1="173.97424548756322" y2="178.32567169271397" /><path d="M 57.64086615596768 174.84453072859336 a86.0,86.0 0 0,1 -31.369924170532247,-30.572349798747897" fill="none" id="id56" stroke="none" /><text fill="#e1ed5e" style="font-size:6.75px; font-family:Arial;" text-anchor="middle"><textPath startOffset="22.145653131862474" xlink:href="#id56">August</textPath></text><path d="M 89.65649057296885 118.27599006163327 l -8.351395783626543 14.756116134379873 a37.955493944621054,37.955493944621054 0 0,0 -0.5642852902661754,-0.3257902642349249 l 8.603473541753118 -14.610578972868778" fill="#ffd013" stroke="none" /><path d="M 89.34428304082925 118.09573695890944 l -24.482479275557385 41.57660219110357 a69.24941078640624,69.24941078640624 0 0,0 -1.0191773572274734,-0.6119867196711397 l 25.192589389342285 -41.15020147089651" fill="#3aff96" stroke="none" /><path d="M 88.72937992617639 117.7192867562869 l -10.137956732203662 15.93855185287984 a39.88956330545979,39.88956330545979 0 0,0 -0.5746269534711979,-0.3724662487941382 l 10.410069317931871 -15.762171762381806" fill="#ffe815" stroke="none" /><path d="M 88.4268655584334 117.5232005979908 l -9.248100082172286 14.002802240692139 a37.781115151318396,37.781115151318396 0 0,0 -0.5381177038854187,-0.3620696066042031 l 9.48711407415471 -13.841982960030814" fill="#ffce13" stroke="none" /><path d="M 88.1277618465304 117.32195027204791 l -11.540863730244842 16.838465085318386 a41.41385416989078,41.41385416989078 0 0,0 -0.5829589802873114,-0.4069506431165399 l 11.82821780170592 -16.637869626396718" fill="#fffb17" stroke="none" /><path d="M 87.83215693770417 117.11559508785305 l -21.653990787710512 30.459049846474958 a58.3717678814409,58.3717678814409 0 0,0 -0.8116983180678315,-0.5876069858917659 l 22.173670116152298 -30.08284208921013" fill="#44ff2d" stroke="none" /><path d="M 87.54013794807813 116.9041958592261 l -12.172211867213361 16.51394313885147 a41.51519095045302,41.51519095045302 0 0,0 -0.570037201207711,-0.4277665429132948 l 12.45390205733184 -16.30255756867416" fill="#fffd17" stroke="none" /><path d="M 87.2517909369889 116.68781488649013 l -21.079134692340944 27.593263961588296 a55.72345223954178,55.72345223954178 0 0,0 -0.7551590646651145,-0.5872162562223596 l 21.54970370164129 -27.22734665374514" fill="#5fff29" stroke="none" /><path d="M 86.96720088162412 116.46651593811092 l -9.754820898648683 12.324897540585521 a36.71813061883137,36.71813061883137 0 0,0 -0.4908850897729418,-0.39542228038881555 l 9.964956758776887 -12.155626966403295" fill="#ffc011" stroke="none" /><path d="M 86.68645165197938 116.24036423190432 l -11.510329897648043 14.04073092166855 a39.15571037352683,39.15571037352683 0 0,0 -0.5161574093102691,-0.4305968686210293 l 11.749661641120206 -13.84107186913565" fill="#ffdf14" stroke="none" /><path d="M 86.40962598614128 116.0094264158162 l -19.923848909999197 23.470243918173576 a51.78655721198848,51.78655721198848 0 0,0 -0.6727826418983324,-0.5811336222122112 l 20.32381103166039 -23.124766163496645" fill="#8aff24" stroke="none" /><path d="M 86.13680546590413 115.77377054828092 l -31.341461717588388 35.66083016184206 a68.4761206337123,68.4761206337123 0 0,0 -0.8762823067495378,-0.7835770421202775 l 31.949009051161294 -35.1175575898384" fill="#39ff8e" stroke="none" /><path d="M 85.60350026404147 115.28858382429668 l -10.774765414865689 11.442427482623023 a36.71701996055462,36.71701996055462 0 0,0 -0.4551643110840389,-0.43603711378524396 l 10.969602211815042 -11.255778238532196" fill="#ffc011" stroke="none" /><path d="M 85.34317274990678 115.03919595460226 l -11.251220266779558 11.544743172122333 a37.12051650543047,37.12051650543047 0 0,0 -0.45253105496853757,-0.4486632914150115 l 11.447743241878058 -11.349899870478662" fill="#ffc512" stroke="none" /><path d="M 84.83555147118756 114.52719865689866 l -12.575585146147892 12.047126098764974 a38.4148956071393,38.4148956071393 0 0,0 -0.45209606413977715,-0.4801103532111714 l 12.780537044023923 -11.829474285609312" fill="#ffd614" stroke="none" /><path d="M 84.58840730492382 114.26474011684316 l -25.119071498249124 23.249837572816443 a55.22751378783593,55.22751378783593 0 0,0 -0.6380153248436085,-0.7012906058374434 l 25.514484523934613 -22.815209391421327" fill="#65ff29" stroke="none" /><path d="M 84.3458050057657 113.99807769240083 l -22.569649729232065 20.181919959245846 a51.277037208776406,51.277037208776406 0 0,0 -0.5811127394605885,-0.6611996241118938 l 22.912773532651247 -19.791508057322652" fill="#8fff24" stroke="none" /><path d="M 84.1078160697243 113.72728997021213 l -13.058045608379185 11.2792287892534 a38.25495746708272,38.25495746708272 0 0,0 -0.42500426427974247,-0.5006539546635138 l 13.24974443616604 -11.053408052140332" fill="#ffd413" stroke="none" /><path d="M 83.8745106332314 113.45245675266167 l -12.141362825494474 10.128756691560096 a36.811527547239784,36.811527547239784 0 0,0 -0.40063770045744995,-0.4887128517792115 l 12.313447345190554 -9.918841558082388" fill="#ffc112" stroke="none" /><path d="M 83.64595745247003 113.17365903436017 l -36.70961613798298 29.570668223379055 a68.13831070557387,68.13831070557387 0 0,0 -0.7259441649624921,-0.917206737705264 l 37.21182673358703 -28.936141541759113" fill="#39ff8a" stroke="none" /><path d="M 83.4222238831116 112.89097897827486 l -12.35068548998798 9.603967739467997 a36.64530691336356,36.64530691336356 0 0,0 -0.3818929979635522,-0.49991019326421027 l 12.513730465305827 -9.390536632962917" fill="#ffbf11" stroke="none" /><path d="M 83.20337586046588 112.60449989151573 l -41.523243350935736 31.15981592279456 a72.91448609707574,72.91448609707574 0 0,0 -0.7426791104403512,-1.0075868489653985 l 42.052024480959915 -30.442422764560284" fill="#3fffbe" stroke="none" /><path d="M 82.576782715395 111.72311816256416 l -14.166023857247763 9.531533060714134 a38.074142860231646,38.074142860231646 0 0,0 -0.3602096045413776,-0.5454032517786122 l 14.327557900709866 -9.28694993059646" fill="#ffd113" stroke="none" /><path d="M 82.37810715431573 111.42229804090323 l -14.594153344515496 9.459753876356494 a38.39184450380334,38.39184450380334 0 0,0 -0.3537210808255124,-0.5561082905676078 l 14.754392116966898 -9.207831911110214" fill="#ffd513" stroke="none" /><path d="M 82.18462484594161 111.11811171558189 l -41.40036691303508 25.83689091163193 a69.80097655286724,69.80097655286724 0 0,0 -0.6256561856927034,-1.0219623594412732 l 41.83779106318318 -25.1223914360661" fill="#3bff9c" stroke="none" /><path d="M 81.99639281039703 110.81064883170644 l -13.891260291746933 8.341302676867384 a37.203223223796556,37.203223223796556 0 0,0 -0.324068933121099,-0.5503398966755401 l 14.032402934997801 -8.101611611898285" fill="#ffc612" stroke="none" /><line stroke="#e1ed5e" stroke-width="0.3" x1="26.387840678322732" x2="22.057713659400548" y1="142.50000000000003" y2="145.00000000000006" /><path d="M 25.521815274538298 143.00000000000003 a86.0,86.0 0 0,1 -11.493303480769221,-40.785679425670985" fill="none" id="id57" stroke="none" /><text fill="#e1ed5e" style="font-size:6.75px; font-family:Arial;" text-anchor="middle"><textPath startOffset="21.40746469413373" xlink:href="#id57">September</textPath></text><path d="M 81.81346652052679 110.50000000000001 l -1.6731564840075082 0.9659973464381038 a22.931994692876206,22.931994692876206 0 0,0 -0.19390272052198282,-0.3426075277625135 l 1.6894925695508691 -0.9371330485764686" fill="#ff0000" stroke="none" /><path d="M 81.63589988554817 110.18625677009913 l -15.969972859914964 8.858274739778288 a39.262230545905794,39.262230545905794 0 0,0 -0.3218655034739399,-0.5921962739248613 l 16.119683713004235 -8.582823632378838" fill="#ffe015" stroke="none" /><path d="M 81.4637452351635 109.86951160357371 l -13.929008895416604 7.416412682263235 a36.780382311028774,36.780382311028774 0 0,0 -0.2919520452983336,-0.5598565421796683 l 14.054269009689888 -7.1762098969790635" fill="#ffc111" stroke="none" /><path d="M 81.29705330413844 109.54985784667822 l -15.544605066511917 7.9371861066572205 a38.45375804706655,38.45375804706655 0 0,0 -0.29514190758862163,-0.5904815229031288 l 15.678566887312275 -7.669172727590339" fill="#ffd614" stroke="none" /><path d="M 81.1358732173502 109.22738970284198 l -55.51874486809849 27.157000194770834 a82.80480314108115,82.80480314108115 0 0,0 -0.6136259480618315,-1.2822422262114161 l 55.976750074120226 -26.199945466494313" fill="#4bddff" stroke="none" /><path d="M 80.9802524753101 108.90220220490708 l -14.303746966829745 6.694875819000693 a36.79299020207799,36.79299020207799 0 0,0 -0.262834291178448,-0.5743403602622936 l 14.416565722863249 -6.44834647652371" fill="#ffc111" stroke="none" /><path d="M 80.5471966667186 107.91128576633889 l -18.60413633377395 7.566140285837492 a41.08383348742518,41.08383348742518 0 0,0 -0.2600828219661625,-0.6555786100287352 l 18.731277830706237 -7.245660658595192" fill="#fff717" stroke="none" /><path d="M 80.28708602549918 107.23885506374661 l -28.206274561548028 10.35773471661281 a51.04790497024972,51.04790497024972 0 0,0 -0.29500786032392623,-0.8251894898756379 l 28.379922591915896 -9.872010270356252" fill="#92ff23" stroke="none" /><path d="M 80.05021161711548 106.5578916946017 l -45.06205086774017 14.812791166286265 a68.43424090825962,68.43424090825962 0 0,0 -0.35727654535927894,-1.1191636897009378 l 45.3096921288767 -14.037058442893935" fill="#39ff8d" stroke="none" /><path d="M 79.83685265289637 105.86919833188381 l -16.90169047824561 4.919835770340942 a38.60317940116343,38.60317940116343 0 0,0 -0.17974652821721251,-0.6378570173502291 l 16.983655498537395 -4.628970829087717" fill="#ffd814" stroke="none" /><path d="M 79.73907114497094 105.5222062557868 l -16.77296194702616 4.571545364710723 a38.384800243258354,38.384800243258354 0 0,0 -0.1678156399781036,-0.637223319074069 l 16.848967067809 -4.2829415412638525" fill="#ffd513" stroke="none" /><path d="M 79.64726062577567 105.17358676015961 l -29.77361616726024 7.568336800897205 a51.72048081666619,51.72048081666619 0 0,0 -0.21134582803070076,-0.8623631003059137 l 29.899149521807235 -7.056117875983192" fill="#8aff24" stroke="none" /><path d="M 79.56144815229197 104.8234425847677 l -16.722214432287533 3.9463970737906164 a38.18157458975831,38.18157458975831 0 0,0 -0.14507023528040536,-0.6392062239002443 l 16.787495529125604 -3.6587565159513455" fill="#ffd313" stroke="none" /><path d="M 79.48165901384964 104.47187691870673 l -33.624786797981095 7.328365781610785 a55.41411385229565,55.41411385229565 0 0,0 -0.19458874324321174,-0.9311775783367837 l 33.74563325204867 -6.7500717519885916" fill="#63ff29" stroke="none" /><path d="M 79.407916724674 104.11899336999214 l -9.155841087483898 1.8314246417814544 a30.33721276601228,30.33721276601228 0 0,0 -0.0977634128429111,-0.5115394868801683 l 9.185930792608966 -1.6739825898679717" fill="#ff6a09" stroke="none" /><path d="M 79.2786578344484 103.40968896794605 l -23.77086366317042 3.9114865699001946 a45.090531054328075,45.090531054328075 0 0,0 -0.11912168483748725,-0.7648466687875531 l 23.834506840146172 -3.502851719181191" fill="#d6ff1c" stroke="none" /><path d="M 79.22317932658666 103.0534771498775 l -38.58557968922925 5.6707514469047275 a60.00005617850355,60.00005617850355 0 0,0 -0.1410157990192595,-1.0203200747616812 l 38.67724000480372 -5.00754306394296" fill="#34ff2f" stroke="none" /><path d="M 79.17382384314188 102.69636545807758 l -21.131299365104933 2.7358697661645746 a42.30766989220308,42.30766989220308 0 0,0 -0.08706901085504554,-0.7210563128122386 l 21.17515046221964 -2.3727197764289367" fill="#f8ff18" stroke="none" /><path d="M 79.13060592940153 102.33845913500099 l -17.18561216598504 1.9256836889552909 a38.293164059522525,38.293164059522525 0 0,0 -0.06759218933302628,-0.6538931171058363 l 17.216136747799734 -1.6303860495665232" fill="#ffd413" stroke="none" /><path d="M 79.0935383218832 101.97986365728391 l -34.428095179208555 3.260376408226647 a55.58213110830453,55.58213110830453 0 0,0 -0.08180201501413802,-0.9506634112433074 l 34.47899081692043 -2.6688919496076777" fill="#61ff29" stroke="none" /><path d="M 79.06263194458094 101.62068470465958 l -22.19241439215871 1.7178332285910023 a43.25880067646378,43.25880067646378 0 0,0 -0.0509548273088416,-0.740872006023178 l 22.218633180632615 -1.3366177984134808" fill="#ecff1a" stroke="none" /><path d="M 79.03789590574601 101.26102812881392 l -17.392372928641684 1.0462819663151475 a38.42381536983173,38.42381536983173 0 0,0 -0.033956425727532866,-0.6587455875821012 l 17.40777094382579 -0.7475645853563154" fill="#ffd614" stroke="none" /><path d="M 79.00696218219943 100.54070618675478 l -21.72072694476321 0.5594488773742868 a42.7279304595573,42.7279304595573 0 0,0 -0.012591653347448172,-0.7334006813527283 l 21.727130029709322 -0.18650128005250619" fill="#f2ff19" stroke="none" /><line stroke="#e1ed5e" stroke-width="0.3" x1="15.003131293944662" x2="10.003315487706104" y1="100.72959589197737" y2="100.7725132973878" /><path d="M 14.003168132696942 100.73817937305945 a86.0,86.0 0 0,1 10.791469493833604,-42.45332614584628" fill="none" id="id58" stroke="none" /><text fill="#e1ed5e" style="font-size:6.75px; font-family:Arial;" text-anchor="middle"><textPath startOffset="22.145653131862435" xlink:href="#id58">October</textPath></text><path d="M 79.00077361379809 100.18025310272382 l -15.810877559019866 0.13571736807754078 a36.811460033479385,36.811460033479385 0 0,0 0.0,-0.6319409416027109 l 15.810877559019866 0.13571736807753496" fill="#ffc112" stroke="none" /><path d="M 79.00077361379809 99.81974689727619 l -18.766958086776267 -0.16109176412574644 a39.767649463565924,39.767649463565924 0 0,0 0.011719277088835712,-0.6825891378001904 l 18.761427378088765 0.48322781789498914" fill="#ffe715" stroke="none" /><path d="M 79.06263194458094 98.37931529534042 l -15.652570648736019 -1.2116079619875746 a36.69939367514631,36.69939367514631 0 0,0 0.05401168131848244,-0.6276976086755535 l 15.629465344719792 1.4801266180388089" fill="#ffc011" stroke="none" /><path d="M 79.0935383218832 98.0201363427161 l -16.456559450462766 -1.5584532897791676 a37.530188311179,37.530188311179 0 0,0 0.0662454424003826,-0.6408645622028323 l 16.42738161558072 1.8407223742649128" fill="#ffca12" stroke="none" /><path d="M 79.13060592940154 97.66154086499901 l -34.22989553358116 -3.8355311912674566 a55.44411484940591,55.44411484940591 0 0,0 0.11410376061765085,-0.9449428229516942 l 34.15900968670384 4.4225676911425875" fill="#62ff29" stroke="none" /><path d="M 79.22317932658666 96.9465228501225 l -15.615762673012346 -2.2949793546116926 a36.78350322640508,36.78350322640508 0 0,0 0.09717589871086553,-0.6239389790099109 l 15.574065282163213 2.5627065155530535" fill="#ffc111" stroke="none" /><path d="M 79.2786578344484 96.59031103205396 l -49.71558686614976 -8.180680899825356 a71.38415542043401,71.38415542043401 0 0,0 0.2093431542728638,-1.2074356830674953 l 49.56782889438466 9.032909615813445" fill="#3dffae" stroke="none" /><path d="M 79.407916724674 95.88100663000787 l -18.791351453157567 -3.758796573122476 a40.16359676872283,40.16359676872283 0 0,0 0.14103597939298504,-0.6749082169947043 l 18.724057762940213 4.080821241402589" fill="#ffec16" stroke="none" /><path d="M 79.48165901384962 95.52812308129327 l -23.033730902832385 -5.020094443581202 a44.57443758664394,44.57443758664394 0 0,0 0.1693598081709571,-0.7462305637829801 l 22.94416023310377 5.41475934130319" fill="#dcff1b" stroke="none" /><path d="M 79.56144815229197 95.17655741523228 l -21.469984076503934 -5.066857782319196 a43.0597657292996,43.0597657292996 0 0,0 0.1759554764219016,-0.7179583887549164 l 21.379841073565736 5.43467199568223" fill="#eeff19" stroke="none" /><path d="M 79.64726062577567 94.8264132398404 l -22.621003374662205 -5.7501705990935275 a44.340399645146576,44.340399645146576 0 0,0 0.19385310060699368,-0.7360917981047695 l 22.518960793250486 6.137642901571081" fill="#dfff1b" stroke="none" /><path d="M 80.16572619554312 93.10060997987247 l -14.808705473669814 -5.151236479002667 a36.679062314708304,36.679062314708304 0 0,0 0.21196975073621951,-0.5929171185033025 l 14.718095552889652 5.404688553886891" fill="#ffbf11" stroke="none" /><path d="M 80.41425534168474 92.42381321644754 l -16.029505808261785 -6.200557199640146 a38.186970822198646,38.186970822198646 0 0,0 0.24174411905394122,-0.609353098962541 l 15.920703014241713 6.47481131581627" fill="#ffd313" stroke="none" /><path d="M 80.5471966667186 92.08871423366112 l -15.452277653151778 -6.284306799408463 a37.681288817689875,37.681288817689875 0 0,0 0.24882956683667518,-0.5971003771848393 l 15.342122241778624 6.548639686034566" fill="#ffcc13" stroke="none" /><path d="M 80.9802524753101 91.09779779509293 l -21.348373113289924 -9.99211655957073 a44.57107184504531,44.57107184504531 0 0,0 0.3302944416213494,-0.690188349217501 l 21.17369941370867 10.357117410853318" fill="#dcff1b" stroke="none" /><path d="M 81.29705330413844 90.45014215332179 l -20.949901322310847 -10.697168889128804 a44.52292047465848,44.52292047465848 0 0,0 0.35341007565695265,-0.6777104189373695 l 20.763183177678954 11.05522555117066" fill="#ddff1b" stroke="none" /><path d="M 81.46374523516351 90.13048839642627 l -17.180514988199285 -9.147656534861015 a40.46406214898436,40.46406214898436 0 0,0 0.3317179272571965,-0.6103236239844473 l 17.020951711326735 9.441234992320082" fill="#fff016" stroke="none" /><path d="M 81.63589988554816 89.8137432299009 l -41.14843256869239 -22.824341907282225 a68.05469250096895,68.05469250096895 0 0,0 0.5754401305667872,-1.0167475731031523 l 40.750559073104235 23.52734625048448" fill="#39ff89" stroke="none" /><line stroke="#e1ed5e" stroke-width="0.3" x1="26.387840678322718" x2="22.05771365940052" y1="57.49999999999999" y2="54.99999999999999" /><path d="M 25.521815274538284 56.99999999999999 a86.0,86.0 0 0,1 29.574782752854787,-30.34633250058573" fill="none" id="id59" stroke="none" /><text fill="#e1ed5e" style="font-size:6.75px; font-family:Arial;" text-anchor="middle"><textPath startOffset="21.40746469413373" xlink:href="#id59">November</textPath></text><path d="M 82.37810715431573 88.57770195909679 l -19.71097719653725 -12.776417277525038 a44.48956067047342,44.48956067047342 0 0,0 0.42090421087507496,-0.6373026215968353 l 19.488748546741448 13.112899777460933" fill="#ddff1b" stroke="none" /><path d="M 82.78059297857968 87.97951657250589 l -13.910479569063007 -9.710595081492261 a37.96458365766814,37.96458365766814 0 0,0 0.3776299198420302,-0.5311837741483084 l 13.741734550691005 9.947956082350089" fill="#ffd013" stroke="none" /><path d="M 82.98947788004972 87.6856937992154 l -15.405791642733462 -11.152605088565185 a40.01891207195633,40.01891207195633 0 0,0 0.4076173557449616,-0.5530112282478974 l 15.21207226740468 11.415422626081945" fill="#ffea16" stroke="none" /><path d="M 83.2033758604659 87.39550010848427 l -27.95078387416398 -20.974789301884783 a55.94550193427883,55.94550193427883 0 0,0 0.5830267844875109,-0.7632007763053591 l 27.586605112322165 21.451510991431025" fill="#5dff2a" stroke="none" /><path d="M 83.42222388311158 87.10902102172516 l -14.851385546873571 -11.548527229051299 a39.8130841124475,39.8130841124475 0 0,0 0.4241677816974101,-0.5359221357064813 l 14.650951334534598 11.801769308672464" fill="#ffe715" stroke="none" /><path d="M 83.64595745247003 86.82634096563983 l -14.644457009259368 -11.796537939939903 a39.80474483912205,39.80474483912205 0 0,0 0.4332143353512417,-0.5284510494629009 l 14.439795854669496 12.046191271101296" fill="#ffe715" stroke="none" /><path d="M 83.8745106332314 86.54754324733833 l -13.272124404909059 -11.072078218036923 a38.28410258838191,38.28410258838191 0 0,0 0.42532806024384995,-0.5010353854950599 l 13.080101781158096 11.29828038598154" fill="#ffd413" stroke="none" /><path d="M 84.58840730492382 85.73525988315684 l -15.186779413933845 -14.056656300085224 a41.69366703381038,41.69366703381038 0 0,0 0.49068317035945536,-0.521088522821597 l 14.943240409838117 14.315286282851332" fill="#ffff18" stroke="none" /><path d="M 86.13680546590413 84.22622945171909 l -13.471806243914665 -15.328442520212162 a41.40712408863695,41.40712408863695 0 0,0 0.537938720732677,-0.4646586547261484 l 13.20668804341914 15.557445307403022" fill="#fffb17" stroke="none" /><path d="M 86.40962598614128 83.9905735841838 l -13.21563547196741 -15.567985355734894 a41.420949756666545,41.420949756666545 0 0,0 0.5460181902873966,-0.4555077941476305 l 12.946442947518104 15.792555333794407" fill="#fffb17" stroke="none" /><path d="M 86.68645165197937 83.75963576809568 l -10.903841365815522 -13.300913526488717 a38.1990714042939,38.1990714042939 0 0,0 0.5106838033285944,-0.41137072255185003 l 10.673906792131683 13.486132542833968" fill="#ffd313" stroke="none" /><path d="M 87.54013794807813 83.09580414077388 l -12.761814212169245 -17.313851956193147 a42.50891376957233,42.50891376957233 0 0,0 0.5911147642424113,-0.42792150384075595 l 12.462718437552866 17.530374231406984" fill="#f5ff19" stroke="none" /><path d="M 87.83215693770416 82.88440491214696 l -13.592361426811578 -19.119358564866655 a44.458520010627595,44.458520010627595 0 0,0 0.6258169882995664,-0.43686886122973895 l 13.262149347338246 19.349872241901522" fill="#deff1b" stroke="none" /><path d="M 88.12776184653039 82.6780497279521 l -13.28651958332154 -19.38542914451447 a44.50162687464376,44.50162687464376 0 0,0 0.6338381801870822,-0.42647461492909294 l 12.951785115037469 19.610653433500676" fill="#ddff1b" stroke="none" /><path d="M 88.72937992617638 82.28071324371311 l -12.594883112068269 -19.801248206651703 a44.467435120781516,44.467435120781516 0 0,0 0.6476065124119891,-0.40415436051565046 l 12.253112470866581 20.014538364008892" fill="#ddff1b" stroke="none" /><path d="M 89.03521579738668 82.08984904055464 l -11.144457343116065 -18.203633531495868 a42.34411401819092,42.34411401819092 0 0,0 0.6231989807438083,-0.3742130819755609 l 10.830325605814823 18.392260614007352" fill="#f7ff18" stroke="none" /><line stroke="#e1ed5e" stroke-width="0.3" x1="56.869717070023135" x2="54.33264160355391" y1="26.7553504044142" y2="22.446841604673864" /><path d="M 56.362301976729285 25.89364864446614 a86.0,86.0 0 0,1 42.16139366436587,-11.88097634709845" fill="none" id="id60" stroke="none" /><text fill="#e1ed5e" style="font-size:6.75px; font-family:Arial;" text-anchor="middle"><textPath startOffset="22.145653131862474" xlink:href="#id60">December</textPath></text><path d="M 90.28995756902619 81.37971332152246 l -8.990826696195072 -17.24109567489002 a40.444545372718935,40.444545372718935 0 0,0 0.618363930921426,-0.3157410291459309 l 8.693535543560063 17.392894655708783" fill="#ffef16" stroke="none" /><path d="M 90.61103034731259 81.2157712731953 l -8.398817688579479 -16.80326152208331 a39.785359627793156,39.785359627793156 0 0,0 0.6135276640421006,-0.3001071247463052 l 8.109129775275324 16.94496239692683" fill="#ffe715" stroke="none" /><path d="M 90.93487009805054 81.0573650232925 l -10.080461595862888 -21.064287712643264 a44.35208604871694,44.35208604871694 0 0,0 0.6895931742022605,-0.3227644251272606 l 9.717379707789105 21.234228369341064" fill="#dfff1b" stroke="none" /><path d="M 91.5904679813234 80.7573450057729 l -9.493745164481586 -21.72354685106247 a44.707460535418456,44.707460535418456 0 0,0 0.705877418654616,-0.3012970959577843 l 9.119432670656538 21.883318596679654" fill="#dbff1b" stroke="none" /><path d="M 92.25597844496254 80.48000691201159 l -8.675046743838223 -21.86678475443359 a44.52472553515784,44.52472553515784 0 0,0 0.7128784633229858,-0.2757567039869367 l 8.298396018021707 22.012481346558566" fill="#ddff1b" stroke="none" /><path d="M 92.592206182469 80.34994680014964 l -8.26230765829632 -21.91675268483192 a44.422420372122716,44.422420372122716 0 0,0 0.7158585220812875,-0.2628731649819689 l 7.884859984560906 22.05535669882261" fill="#deff1b" stroke="none" /><path d="M 93.27111125876988 80.10723608172694 l -7.649252688768693 -22.61365639121465 a44.87233801026951,44.87233801026951 0 0,0 0.7317978798619722,-0.24055649846347013 l 7.25993207125896 22.741633811080153" fill="#d9ff1c" stroke="none" /><path d="M 94.30408787586887 79.78721728523814 l -4.657095795431436 -16.526390039636713 a38.1700352064295,38.1700352064295 0 0,0 0.6322022938940163,-0.17230954647953842 l 4.372712100602742 16.603900080260388" fill="#ffd313" stroke="none" /><path d="M 95.35216902796891 79.52079915486377 l -4.3456009242258 -19.14751948931986 a40.63445313693549,40.63445313693549 0 0,0 0.6815705511884687,-0.14854512937411737 l 4.016267956418213 19.21929607682769" fill="#fff216" stroke="none" /><path d="M 95.70440661134978 79.44403061299748 l -4.804883602057263 -22.993107423287878 a44.48978278759033,44.48978278759033 0 0,0 0.7489187892084114,-0.14980473253564502 l 4.409468327317875 23.07220155248639" fill="#ddff1b" stroke="none" /><path d="M 97.12497278360702 79.19773525538626 l -7.263874746378222 -52.55777916963531 a74.05736544133362,74.05736544133362 0 0,0 1.2608166951245254,-0.16323796361349455 l 6.360580229362903 52.6747287294492" fill="#40ffca" stroke="none" /><path d="M 97.48249496171623 79.15144685158666 l -2.37482606885868 -19.66696660459937 a40.80983024368855,40.80983024368855 0 0,0 0.6962236684799767,-0.07801331423678558 l 2.036866498777904 19.704835679343127" fill="#fff417" stroke="none" /><path d="M 97.84075906011542 79.11130261209362 l -2.4739831772128698 -23.933543022916776 a45.06106968509381,45.06106968509381 0 0,0 0.7701160754437337,-0.07293079303118682 l 2.0627675383841204 23.972485571453145" fill="#d6ff1c" stroke="none" /><path d="M 98.1996594967304 79.07731436759882 l -3.1825260386903778 -36.985776692532006 a58.12244805420011,58.12244805420011 0 0,0 0.9948099966783985,-0.0770045853610403 l 2.547147047236762 37.0349590448881" fill="#47ff2c" stroke="none" /><path d="M 98.5590905019552 79.04949213459386 l -1.1813116278609306 -17.17601180683348 a38.216587314290905,38.216587314290905 0 0,0 0.6548787993937931,-0.039395882364013556 l 0.8862884763346538 17.193759667022185" fill="#ffd313" stroke="none" /><path d="M 98.9189461498227 79.02784411241856 l -0.980544431296882 -19.022300012608593 a40.04755535892825,40.04755535892825 0 0,0 0.6868617995808826,-0.02949680105843163 l 0.6538568711151793 19.036329382092855" fill="#ffea16" stroke="none" /><path d="M 99.27912038922189 79.0123766808444 l -0.5911855382872923 -17.211721907231173 a38.2218718887507,38.2218718887507 0 0,0 0.6559358923809266,-0.01689458182294045 l 0.2956363318356216 17.21933420640416" fill="#ffd313" stroke="none" /><path d="M 99.63950707515114 79.00309439819443 l -0.4108234059992388 -23.928403805414103 a44.93193023025667,44.93193023025667 0 0,0 0.771316330848085,-0.006620823036999125 l 5.861632350780322e-15 23.93193023025667" fill="#d8ff1c" stroke="none" /></svg>